<svg width="29" height="21" viewBox="0 0 29 21" fill="none" xmlns="http://www.w3.org/2000/svg">
<path d="M16.12 4.80005H3.16C1.96706 4.80005 1 5.77223 1 6.97148V17.8286C1 19.0279 1.96706 20 3.16 20H16.12C17.3129 20 18.28 19.0279 18.28 17.8286V6.97148C18.28 5.77223 17.3129 4.80005 16.12 4.80005Z" stroke="black" stroke-width="1.5" stroke-miterlimit="10"/>
<path d="M14.5002 12.3999H11.2602C10.962 12.3999 10.7202 12.6429 10.7202 12.9428V16.1999C10.7202 16.4997 10.962 16.7428 11.2602 16.7428H14.5002C14.7984 16.7428 15.0402 16.4997 15.0402 16.1999V12.9428C15.0402 12.6429 14.7984 12.3999 14.5002 12.3999Z" fill="#5F6369"/>
<path d="M6.40023 3.71429H4.24023V2.08571C4.24023 1.79776 4.35402 1.52161 4.55656 1.318C4.7591 1.11439 5.0338 1 5.32023 1C5.60667 1 5.88137 1.11439 6.08391 1.318C6.28645 1.52161 6.40023 1.79776 6.40023 2.08571V3.71429Z" fill="black"/>
<path d="M15.0399 3.71429H12.8799V2.08571C12.8799 1.79776 12.9937 1.52161 13.1962 1.318C13.3987 1.11439 13.6734 1 13.9599 1C14.2463 1 14.521 1.11439 14.7236 1.318C14.9261 1.52161 15.0399 1.79776 15.0399 2.08571V3.71429Z" fill="black"/>
<path d="M16.12 4.80005H3.16C1.96706 4.80005 1 5.77223 1 6.97148V17.8286C1 19.0279 1.96706 20 3.16 20H16.12C17.3129 20 18.28 19.0279 18.28 17.8286V6.97148C18.28 5.77223 17.3129 4.80005 16.12 4.80005Z" stroke="#5F6369" stroke-width="1.5" stroke-miterlimit="10"/>
<path d="M6.40023 3.71429H4.24023V2.08571C4.24023 1.79776 4.35402 1.52161 4.55656 1.318C4.7591 1.11439 5.0338 1 5.32023 1C5.60667 1 5.88137 1.11439 6.08391 1.318C6.28645 1.52161 6.40023 1.79776 6.40023 2.08571V3.71429Z" fill="#5F6369"/>
<path d="M15.0399 3.71429H12.8799V2.08571C12.8799 1.79776 12.9937 1.52161 13.1962 1.318C13.3987 1.11439 13.6734 1 13.9599 1C14.2463 1 14.521 1.11439 14.7236 1.318C14.9261 1.52161 15.0399 1.79776 15.0399 2.08571V3.71429Z" fill="#5F6369"/>
<path d="M18.28 9.14282H1" stroke="#5F6369" stroke-width="1.5" stroke-miterlimit="10"/>
<path d="M24.7598 1.54297V8.05725" stroke="#5F6369" stroke-width="1.5" stroke-miterlimit="10" stroke-linecap="round"/>
<path d="M21.52 4.80005H28" stroke="#5F6369" stroke-width="1.5" stroke-miterlimit="10" stroke-linecap="round"/>
</svg>
