<svg width="20" height="20" viewBox="0 0 20 20" fill="none" xmlns="http://www.w3.org/2000/svg">
<path fill-rule="evenodd" clip-rule="evenodd" d="M10 20C15.5228 20 20 15.5228 20 10C20 4.47716 15.5228 0 10 0C4.47716 0 0 4.47716 0 10C0 15.5228 4.47716 20 10 20ZM18.7188 9.37516H9.68126L3.9375 16.2939C2.22439 14.6478 1.25426 12.3759 1.25 10.0002C1.30667 5.33088 5.01986 1.5289 9.6865 1.36194C14.3531 1.19498 18.3286 4.72188 18.7188 9.37516Z" fill="#5F6369"/>
<path fill-rule="evenodd" clip-rule="evenodd" d="M10.2687 10.625H18.7187C18.3911 15.1998 14.5865 18.7453 9.99991 18.75C8.16786 18.7491 6.38293 18.1694 4.8999 17.0938L10.2687 10.625Z" fill="#5F6369"/>
</svg>
