<svg width="18" height="18" viewBox="0 0 18 18" fill="none" xmlns="http://www.w3.org/2000/svg">
<path d="M7.54548 10.6711H4.63639C3.86485 10.6711 3.12491 10.364 2.57935 9.81739C2.03379 9.27079 1.72729 8.52944 1.72729 7.75643C1.72729 6.98342 2.03379 6.24207 2.57935 5.69547C3.12491 5.14887 3.86485 4.8418 4.63639 4.8418H7.54548V10.6711Z" stroke="#323232" stroke-width="1.5" stroke-miterlimit="10"/>
<path d="M1.72727 7.02734C1.53439 7.02734 1.3494 7.10411 1.21301 7.24076C1.07662 7.37741 1 7.56275 1 7.756C1 7.94925 1.07662 8.13459 1.21301 8.27124C1.3494 8.40789 1.53439 8.48466 1.72727 8.48466" stroke="#323232" stroke-width="1.5" stroke-miterlimit="10"/>
<path d="M12.5116 12.7317L13.5767 13.7989C13.6784 13.9007 13.808 13.9701 13.949 13.9982C14.0901 14.0263 14.2363 14.0119 14.3692 13.9567C14.502 13.9016 14.6156 13.8082 14.6955 13.6884C14.7754 13.5686 14.8181 13.4278 14.8181 13.2837V2.22887C14.8182 2.08474 14.7756 1.94385 14.6957 1.82399C14.6158 1.70414 14.5022 1.61071 14.3693 1.55553C14.2364 1.50034 14.0902 1.48588 13.9491 1.51398C13.808 1.54207 13.6784 1.61145 13.5767 1.71334L12.5116 2.78046C11.1945 4.10006 9.40809 4.84142 7.54541 4.84147V10.6707C9.40809 10.6708 11.1945 11.4121 12.5116 12.7317V12.7317Z" stroke="#323232" stroke-width="1.5" stroke-miterlimit="10"/>
<path d="M14.8181 5.57031C15.3968 5.57031 15.9517 5.80062 16.3609 6.21057C16.7701 6.62052 16.9999 7.17653 16.9999 7.75629C16.9999 8.33604 16.7701 8.89206 16.3609 9.302C15.9517 9.71195 15.3968 9.94226 14.8181 9.94226" stroke="#323232" stroke-width="1.5" stroke-miterlimit="10"/>
<path d="M6.09098 10.6709C6.08528 12.3249 6.44543 13.9596 7.14552 15.4575C7.19849 15.5686 7.22249 15.6913 7.21529 15.8142C7.20808 15.9371 7.1699 16.0562 7.10432 16.1604C7.03873 16.2645 6.94788 16.3503 6.84024 16.4097C6.7326 16.4691 6.61169 16.5002 6.48879 16.5002H5.3637C5.02952 16.5002 3.18188 14.3142 3.18188 10.6709" stroke="#323232" stroke-width="1.5" stroke-miterlimit="10"/>
</svg>
