<svg width="23" height="22" viewBox="0 0 23 22" fill="none" xmlns="http://www.w3.org/2000/svg">
<g id="Announcement">
<path id="Path 82" d="M9.59095 13.2277H5.77277C4.76013 13.2277 3.78896 12.8182 3.07291 12.0894C2.35686 11.3606 1.95459 10.3722 1.95459 9.3415C1.95459 8.31082 2.35686 7.32236 3.07291 6.59356C3.78896 5.86476 4.76013 5.45532 5.77277 5.45532H9.59095V13.2277Z" stroke="#00A3E0" stroke-width="1.5" stroke-miterlimit="10"/>
<path id="Path 83" d="M1.95455 8.36987C1.70138 8.36987 1.45859 8.47223 1.27958 8.65443C1.10057 8.83663 1 9.08375 1 9.34142C1 9.59909 1.10057 9.8462 1.27958 10.0284C1.45859 10.2106 1.70138 10.313 1.95455 10.313" stroke="#00A3E0" stroke-width="1.5" stroke-miterlimit="10"/>
<path id="Path 84" d="M16.1089 15.9757L17.5069 17.3985C17.6404 17.5343 17.8104 17.6268 17.9956 17.6643C18.1807 17.7018 18.3726 17.6825 18.547 17.609C18.7214 17.5355 18.8704 17.411 18.9753 17.2513C19.0802 17.0915 19.1362 16.9037 19.1363 16.7116V1.97182C19.1363 1.77966 19.0804 1.59179 18.9755 1.43199C18.8707 1.27218 18.7216 1.14761 18.5472 1.07404C18.3728 1.00046 18.1809 0.981179 17.9957 1.01863C17.8105 1.05609 17.6404 1.1486 17.5069 1.28446L16.1089 2.70728C14.3802 4.46674 12.0356 5.45523 9.59082 5.45529V13.2276C12.0356 13.2277 14.3802 14.2162 16.1089 15.9757V15.9757Z" stroke="#00A3E0" stroke-width="1.5" stroke-miterlimit="10"/>
<path id="Path 85" d="M19.1365 6.42676C19.896 6.42676 20.6243 6.73383 21.1614 7.28043C21.6984 7.82703 22.0001 8.56838 22.0001 9.34139C22.0001 10.1144 21.6984 10.8557 21.1614 11.4023C20.6243 11.9489 19.896 12.256 19.1365 12.256" stroke="#00A3E0" stroke-width="1.5" stroke-miterlimit="10"/>
<path id="Path 86" d="M7.68171 13.2275C7.67424 15.4328 8.14693 17.6124 9.0658 19.6096C9.13532 19.7578 9.16682 19.9214 9.15737 20.0853C9.14791 20.2492 9.0978 20.408 9.01172 20.5468C8.92564 20.6857 8.8064 20.8 8.66512 20.8793C8.52384 20.9585 8.36515 21 8.20384 20.9999H6.72716C6.28855 20.9999 3.86353 18.0853 3.86353 13.2275" stroke="#00A3E0" stroke-width="1.5" stroke-miterlimit="10"/>
</g>
</svg>
