<svg width="27" height="27" viewBox="0 0 27 27" fill="none" xmlns="http://www.w3.org/2000/svg">
<path d="M19.9725 15.75C20.3049 15.75 20.6341 15.8155 20.9412 15.9427C21.2483 16.0699 21.5273 16.2563 21.7624 16.4914C21.9974 16.7264 22.1839 17.0055 22.3111 17.3126C22.4383 17.6197 22.5038 17.9488 22.5038 18.2812V19.2982C22.5039 19.9064 22.3726 20.5073 22.1188 21.06C21.865 21.6126 21.4947 22.1038 21.0334 22.5C19.2728 24.012 16.7516 24.75 13.5004 24.75C10.2491 24.75 7.73138 24.012 5.97413 22.5C5.5134 22.1041 5.14361 21.6134 4.89003 21.0614C4.63645 20.5093 4.50507 19.9091 4.50488 19.3016V18.2801C4.50518 17.609 4.772 16.9654 5.24667 16.491C5.72133 16.0165 6.365 15.75 7.03613 15.75H19.9725ZM19.9725 17.4375H7.03501C6.81123 17.4375 6.59662 17.5264 6.43839 17.6846C6.28015 17.8429 6.19126 18.0575 6.19126 18.2812V19.3016C6.19126 20.0385 6.51413 20.7394 7.07326 21.2209C8.48851 22.4381 10.6215 23.0625 13.5004 23.0625C16.3804 23.0625 18.5156 22.4359 19.9354 21.2175C20.2119 20.9797 20.4337 20.6851 20.5858 20.3536C20.7378 20.0222 20.8164 19.6618 20.8163 19.2971V18.279C20.8163 18.0552 20.7274 17.8406 20.5691 17.6824C20.4109 17.5241 20.1963 17.4353 19.9725 17.4353V17.4375ZM13.3879 2.25675L13.5004 2.25C13.7043 2.25001 13.9013 2.32385 14.0549 2.45786C14.2086 2.59188 14.3085 2.777 14.3363 2.979L14.3441 3.09375L14.343 3.93638H18.2805C18.9518 3.93638 19.5957 4.20306 20.0704 4.67776C20.5451 5.15246 20.8118 5.7963 20.8118 6.46763V11.5357C20.8118 12.2071 20.5451 12.8509 20.0704 13.3256C19.5957 13.8003 18.9518 14.067 18.2805 14.067H8.71801C8.04668 14.067 7.40284 13.8003 6.92814 13.3256C6.45344 12.8509 6.18676 12.2071 6.18676 11.5357V6.46875C6.18676 6.13625 6.25227 5.807 6.37955 5.49982C6.50682 5.19264 6.69337 4.91355 6.92854 4.67849C7.16371 4.44343 7.44288 4.257 7.75012 4.12986C8.05735 4.00272 8.38663 3.93735 8.71913 3.9375L12.6566 3.93638V3.09375C12.6567 2.88969 12.7307 2.69256 12.8649 2.53887C12.9992 2.38518 13.1846 2.28536 13.3868 2.25787L13.5004 2.25L13.3856 2.25787L13.3879 2.25675ZM18.2816 5.625H8.71913C8.49536 5.625 8.28074 5.71389 8.12251 5.87213C7.96428 6.03036 7.87538 6.24497 7.87538 6.46875V11.5357C7.87538 12.0015 8.25338 12.3795 8.71913 12.3795H18.2816C18.5054 12.3795 18.72 12.2906 18.8783 12.1324C19.0365 11.9741 19.1254 11.7595 19.1254 11.5357V6.46875C19.1254 6.24497 19.0365 6.03036 18.8783 5.87213C18.72 5.71389 18.5054 5.625 18.2816 5.625ZM10.9691 7.3125C11.1584 7.30493 11.3472 7.33566 11.5243 7.40286C11.7014 7.47006 11.8631 7.57234 11.9997 7.70357C12.1362 7.83479 12.2449 7.99226 12.3191 8.16651C12.3934 8.34077 12.4316 8.52822 12.4316 8.71763C12.4316 8.90703 12.3934 9.09448 12.3191 9.26874C12.2449 9.44299 12.1362 9.60046 11.9997 9.73168C11.8631 9.86291 11.7014 9.96519 11.5243 10.0324C11.3472 10.0996 11.1584 10.1303 10.9691 10.1228C10.6062 10.1082 10.263 9.95383 10.0113 9.69191C9.75966 9.42998 9.61912 9.08085 9.61912 8.71763C9.61912 8.3544 9.75966 8.00527 10.0113 7.74334C10.263 7.48142 10.6062 7.32703 10.9691 7.3125ZM16.0226 7.3125C16.2119 7.30493 16.4007 7.33566 16.5778 7.40286C16.7549 7.47006 16.9166 7.57234 17.0532 7.70357C17.1897 7.83479 17.2984 7.99226 17.3726 8.16651C17.4469 8.34077 17.4851 8.52822 17.4851 8.71763C17.4851 8.90703 17.4469 9.09448 17.3726 9.26874C17.2984 9.44299 17.1897 9.60046 17.0532 9.73168C16.9166 9.86291 16.7549 9.96519 16.5778 10.0324C16.4007 10.0996 16.2119 10.1303 16.0226 10.1228C15.6597 10.1082 15.3165 9.95383 15.0648 9.69191C14.8132 9.42998 14.6726 9.08085 14.6726 8.71763C14.6726 8.3544 14.8132 8.00527 15.0648 7.74334C15.3165 7.48142 15.6597 7.32703 16.0226 7.3125Z" fill="#323232"/>
</svg>
