<svg width="10" height="16" viewBox="0 0 10 16" fill="none" xmlns="http://www.w3.org/2000/svg">
<path d="M0.957031 15.4844C0.761719 15.2891 0.664062 15.0578 0.664062 14.7906C0.664062 14.5234 0.761719 14.2924 0.957031 14.0977L6.67969 8.375L0.9375 2.63281C0.755208 2.45052 0.664062 2.22266 0.664062 1.94922C0.664062 1.67578 0.761719 1.44141 0.957031 1.24609C1.15234 1.05078 1.38359 0.953125 1.65078 0.953125C1.91797 0.953125 2.14896 1.05078 2.34375 1.24609L8.90625 7.82812C8.98438 7.90625 9.03984 7.99089 9.07266 8.08203C9.10547 8.17318 9.12162 8.27083 9.12109 8.375C9.12109 8.47917 9.10469 8.57682 9.07188 8.66797C9.03906 8.75911 8.98386 8.84375 8.90625 8.92188L2.32422 15.5039C2.14193 15.6862 1.91719 15.7773 1.65 15.7773C1.38281 15.7773 1.15182 15.6797 0.957031 15.4844Z" fill="#C0C0C0"/>
</svg>
