<svg width="31" height="31" viewBox="0 0 31 31" fill="none" xmlns="http://www.w3.org/2000/svg">
<path d="M22.1583 13.2515L16.4675 21.4176C15.3739 22.9869 13.2171 23.3721 11.6478 22.2785C10.0785 21.1849 9.69321 19.028 10.7868 17.4588L16.9725 8.58263C17.3006 8.11181 17.8023 7.79062 18.3672 7.68971C18.9321 7.58879 19.514 7.71643 19.9848 8.04454C20.4556 8.37264 20.7768 8.87434 20.8777 9.43927C20.9786 10.0042 20.851 10.5861 20.5229 11.0569L15.327 18.5128C15.0548 18.9034 14.5126 19.0002 14.122 18.7281C13.7315 18.4559 13.6346 17.9137 13.9068 17.5231L18.6079 10.7773L17.5427 10.035L12.8417 16.7808C12.5136 17.2517 12.3859 17.8335 12.4868 18.3985C12.5877 18.9634 12.9089 19.4651 13.3798 19.7932C13.8506 20.1213 14.4325 20.2489 14.9974 20.148C15.5623 20.0471 16.064 19.7259 16.3921 19.2551L21.588 11.7992C22.6817 10.2299 22.2964 8.07302 20.7271 6.9794C19.1578 5.88578 17.0009 6.27106 15.9073 7.84036L9.72169 16.7165C8.21735 18.8751 8.74683 21.8393 10.9055 23.3436C13.0642 24.848 16.0283 24.3185 17.5327 22.1598L23.2235 13.9938L22.1583 13.2515Z" fill="white"/>
</svg>
