<svg width="18" height="20" viewBox="0 0 18 20" fill="none" xmlns="http://www.w3.org/2000/svg">
<path fill-rule="evenodd" clip-rule="evenodd" d="M13.1942 0.0115208C14.3117 -0.0678409 15.5352 0.254933 16.5168 1.22528L16.5197 1.2281C17.327 2.03393 17.7798 3.12207 17.7798 4.25602C17.7798 5.38998 17.327 6.47812 16.5196 7.28394L16.5167 7.28684L8.64535 15.0656L8.63286 15.077C8.14193 15.5239 7.49887 15.7719 6.83141 15.7719C6.16394 15.7719 5.52088 15.5239 5.02995 15.077L5.00503 15.0543L4.98207 15.0297C4.5297 14.5445 4.27856 13.909 4.27856 13.2493C4.27856 12.5896 4.5297 11.954 4.98207 11.4689L4.99352 11.4566L11.6239 4.90427C11.947 4.58499 12.4708 4.58499 12.7939 4.90427C13.117 5.22355 13.117 5.74121 12.7939 6.06049L6.18917 12.5875C6.02443 12.7693 5.93316 13.0049 5.93316 13.2493C5.93316 13.4872 6.01967 13.7168 6.17628 13.8966C6.35822 14.0513 6.59061 14.1368 6.83141 14.1368C7.07871 14.1368 7.31713 14.0466 7.50116 13.8839L15.3438 6.13352C15.3443 6.13303 15.3448 6.13255 15.3453 6.13206C15.845 5.63255 16.1252 4.95846 16.1252 4.25602C16.1252 3.55358 15.845 2.87949 15.3453 2.37997C14.7483 1.79065 14.018 1.59237 13.3127 1.64245C12.5842 1.69419 11.9294 2.00935 11.5529 2.38143L2.86623 10.9659C2.07616 11.7467 1.65465 12.8871 1.65461 14.0669C1.65456 15.2467 2.07597 16.387 2.86617 17.1677C3.65641 17.9485 4.81051 18.3649 6.00438 18.3649C7.19827 18.3648 8.35214 17.9483 9.14198 17.1678L16.5877 9.80968C16.9108 9.4904 17.4346 9.4904 17.7577 9.80968C18.0808 10.129 18.0808 10.6466 17.7577 10.9659L10.312 18.324C9.16383 19.4586 7.56423 19.9999 6.00444 20C4.44464 20.0001 2.84484 19.4589 1.69631 18.3241C0.547719 17.1893 -5.86262e-05 15.6083 4.70612e-09 14.0668C5.8537e-05 12.5253 0.547947 10.9445 1.69625 9.80968L10.3829 1.22521C11.0617 0.554475 12.0993 0.0892683 13.1942 0.0115208Z" fill="#C0C0C0"/>
</svg>
