<svg width="21" height="23" viewBox="0 0 21 23" fill="none" xmlns="http://www.w3.org/2000/svg">
<path d="M11.4791 19C11.4791 19.7956 11.1697 20.5587 10.6189 21.1213C10.0681 21.6839 9.32108 22 8.54216 22C7.76323 22 7.01621 21.6839 6.46543 21.1213C5.91465 20.5587 5.60522 19.7956 5.60522 19" stroke="#5F6369" stroke-width="2" stroke-miterlimit="10"/>
<path d="M16.3739 7C16.3739 4 13.7438 1 10.5 1C7.25616 1 4.62613 4 4.62613 7C4.62613 12 1 12 1 15.52C1 16.82 1.62899 18 2.90069 18H18.0993C19.372 18 20 16.819 20 15.52C20 12 16.3739 12 16.3739 7Z" stroke="#5F6369" stroke-width="2" stroke-linecap="round" stroke-linejoin="round"/>
</svg>
