<svg width="12" height="16" viewBox="0 0 12 16" fill="none" xmlns="http://www.w3.org/2000/svg">
<g opacity="0.6">
<path fill-rule="evenodd" clip-rule="evenodd" d="M2.23282 0.742188H7.04248C7.37451 0.742188 7.64368 0.990652 7.64368 1.29715C7.64368 1.60364 7.37451 1.85211 7.04248 1.85211H2.23387C2.07436 1.85273 1.92156 1.91149 1.80875 2.01562C1.69595 2.11975 1.63229 2.2608 1.63161 2.40804V13.5054C1.63223 13.6526 1.69587 13.7937 1.80867 13.8978C1.92147 14.0019 2.07427 14.0607 2.23377 14.0612H9.44635C9.60585 14.0607 9.75866 14.0019 9.87146 13.8978C9.98426 13.7937 10.0479 13.6526 10.0485 13.5054V4.62691C10.0485 4.32041 10.3177 4.07195 10.6497 4.07195C10.9818 4.07195 11.2509 4.32041 11.2509 4.62691V13.5063L11.2509 13.5078C11.2496 13.9486 11.0593 14.371 10.7217 14.6826C10.384 14.9943 9.92646 15.1699 9.44895 15.1712L9.4473 15.1712H2.23282L2.23117 15.1712C1.75366 15.1699 1.29608 14.9943 0.958432 14.6826C0.620779 14.371 0.430509 13.9486 0.429201 13.5078L0.429199 13.5063V2.40541C0.430625 1.9647 0.62092 1.54242 0.958519 1.23079C1.29612 0.919161 1.75359 0.743506 2.23102 0.74219L2.23282 0.742188Z" fill="#323232"/>
<path fill-rule="evenodd" clip-rule="evenodd" d="M6.61748 0.904748C6.85225 0.688013 7.23292 0.687999 7.46771 0.904715L11.075 4.2342C11.3098 4.45092 11.3098 4.8023 11.075 5.01903C10.8402 5.23577 10.4596 5.23578 10.2248 5.01906L6.61751 1.68958C6.38272 1.47286 6.3827 1.12148 6.61748 0.904748Z" fill="#323232"/>
<path fill-rule="evenodd" clip-rule="evenodd" d="M6.44141 3.51672V1.29688H7.64382V3.51575C7.64449 3.66299 7.70815 3.80403 7.82096 3.90816C7.93377 4.0123 8.08658 4.07106 8.2461 4.07168H10.6499V5.1816H8.24323C7.7658 5.18028 7.30832 5.00462 6.97073 4.69299C6.63313 4.38136 6.44283 3.95908 6.44141 3.51837L6.44141 3.51672Z" fill="#323232"/>
</g>
</svg>
