<svg width="26" height="25" viewBox="0 0 26 25" fill="none" xmlns="http://www.w3.org/2000/svg">
<path fill-rule="evenodd" clip-rule="evenodd" d="M3.38428 5.37435L12.9999 9.23822L22.6155 5.37435L13.2905 1.62665C13.104 1.55153 12.8958 1.55153 12.7093 1.62665L3.38428 5.37435ZM13.7812 23.0552L23.9375 18.973V6.53516L13.7812 10.6173V23.0552Z" fill="#323232"/>
<path fill-rule="evenodd" clip-rule="evenodd" d="M2.0625 6.53515V18.9746L12.2188 23.0567V10.6157L2.0625 6.53515ZM25.0094 4.64614C25.3057 4.76547 25.4999 5.05389 25.5 5.37464V18.9743C25.4996 19.6162 25.1104 20.1932 24.5172 20.4313L13.2906 24.9436C13.1041 25.0188 12.8959 25.0188 12.7094 24.9436L1.48438 20.4313C0.89055 20.1937 0.50065 19.6166 0.5 18.9743V5.37464C0.5 5.05409 0.6942 4.76559 0.99045 4.64622L12.1297 0.168394C12.6884 -0.0561313 13.3116 -0.0561313 13.8703 0.168394L25.0094 4.64614Z" fill="#323232"/>
</svg>
