<svg width="20" height="26" viewBox="0 0 20 26" fill="none" xmlns="http://www.w3.org/2000/svg">
<g id="bulb">
<path id="Path 98" d="M6.625 22.002C6.65363 22.3318 6.78187 22.6486 6.9962 22.9191C7.21053 23.1896 7.50301 23.4037 7.84281 23.5389C7.9726 23.9588 8.25397 24.3292 8.6437 24.5932C9.03342 24.8572 9.50993 25.0002 10 25.0002C10.4901 25.0002 10.9666 24.8572 11.3563 24.5932C11.746 24.3292 12.0274 23.9588 12.1572 23.5389C12.497 23.4037 12.7895 23.1896 13.0038 22.9191C13.2181 22.6486 13.3464 22.3318 13.375 22.002" stroke="#00A3E0" stroke-width="2" stroke-miterlimit="10" stroke-linecap="round"/>
<path id="Path 99" d="M13.375 21.5024C13.375 21.2524 13.9375 21.2524 13.9375 21.0025C13.9375 20.7526 12.8125 20.7526 12.8125 20.5027C12.8125 20.2528 13.9375 20.2528 13.9375 20.0029" stroke="#00A3E0" stroke-linecap="round" stroke-linejoin="round"/>
<path id="Path 100" d="M6.625 21.5024C6.625 21.2524 6.0625 21.2524 6.0625 21.0025C6.0625 20.7526 7.1875 20.7526 7.1875 20.5027C7.1875 20.2528 6.0625 20.2528 6.0625 20.0029" stroke="#00A3E0" stroke-linecap="round" stroke-linejoin="round"/>
<path id="Path 101" d="M19 9.0069C19.0019 7.64335 18.6114 6.30202 17.8656 5.11034C17.1198 3.91866 16.0434 2.91622 14.7388 2.19828C13.4341 1.48033 11.9445 1.07072 10.4116 1.00837C8.87858 0.946014 7.35312 1.23299 5.98011 1.84202C4.60711 2.45106 3.43217 3.36192 2.56694 4.48807C1.70171 5.61422 1.17492 6.91825 1.03662 8.27625C0.898329 9.63425 1.15313 11.0011 1.77681 12.247C2.40049 13.4928 3.37233 14.5763 4.6 15.3944C4.87534 15.5727 5.10007 15.8055 5.25631 16.0745C5.41255 16.3435 5.49599 16.6412 5.5 16.9438V17.0038C5.5 17.534 5.73705 18.0425 6.15901 18.4175C6.58096 18.7924 7.15326 19.003 7.74999 19.003H12.25C12.8467 19.003 13.419 18.7924 13.841 18.4175C14.2629 18.0425 14.5 17.534 14.5 17.0038V16.9933C14.5047 16.6762 14.5921 16.3645 14.7554 16.0825C14.9187 15.8006 15.1534 15.5561 15.4411 15.3684C16.5474 14.6247 17.4446 13.6632 18.0621 12.5594C18.6797 11.4556 19.0007 10.2396 19 9.0069Z" stroke="#00A3E0" stroke-width="2" stroke-miterlimit="10"/>
</g>
</svg>
