<svg width="23" height="23" viewBox="0 0 23 23" fill="none" xmlns="http://www.w3.org/2000/svg">
<path d="M22 19.5459C21.9983 20.0635 21.7766 20.5595 21.3831 20.9255C20.9896 21.2915 20.4564 21.4978 19.9 21.4994H3.1C2.54356 21.4978 2.01038 21.2915 1.61691 20.9255C1.22344 20.5595 1.00166 20.0635 1 19.5459V5.87146C1.00166 5.35384 1.22344 4.85786 1.61691 4.49184C2.01038 4.12582 2.54356 3.91951 3.1 3.91797H19.9C20.4564 3.91951 20.9896 4.12582 21.3831 4.49184C21.7766 4.85786 21.9983 5.35384 22 5.87146V19.5459Z" stroke="#323232" stroke-width="1.6" stroke-miterlimit="10"/>
<path d="M6.2499 2.94186H4.1499V1.47674C4.1499 1.2177 4.26053 0.969257 4.45744 0.786082C4.65435 0.602907 4.92142 0.5 5.1999 0.5C5.47838 0.5 5.74545 0.602907 5.94236 0.786082C6.13928 0.969257 6.2499 1.2177 6.2499 1.47674V2.94186Z" fill="#323232"/>
<path d="M18.85 2.94186H16.75V1.47674C16.75 1.2177 16.8606 0.969257 17.0575 0.786082C17.2545 0.602907 17.5215 0.5 17.8 0.5C18.0785 0.5 18.3455 0.602907 18.5425 0.786082C18.7394 0.969257 18.85 1.2177 18.85 1.47674V2.94186Z" fill="#323232"/>
<path d="M22 9.7793H1" stroke="#323232" stroke-width="1.6" stroke-miterlimit="10"/>
<mask id="path-5-inside-1_5540_7399" fill="white">
<rect x="14.2222" y="12.9434" width="4.66667" height="4.66667" rx="1"/>
</mask>
<rect x="14.2222" y="12.9434" width="4.66667" height="4.66667" rx="1" stroke="#323232" stroke-width="3.2" mask="url(#path-5-inside-1_5540_7399)"/>
</svg>
