<svg width="27" height="26" viewBox="0 0 27 26" fill="none" xmlns="http://www.w3.org/2000/svg">
<path d="M26 22.675C25.998 23.2912 25.734 23.8816 25.2656 24.3174C24.7972 24.7531 24.1624 24.9987 23.5 25.0005H3.5C2.83757 24.9987 2.20283 24.7531 1.73442 24.3174C1.26601 23.8816 1.00198 23.2912 1 22.675V6.39589C1.00198 5.77968 1.26601 5.18923 1.73442 4.75349C2.20283 4.31776 2.83757 4.07215 3.5 4.07031H23.5C24.1624 4.07215 24.7972 4.31776 25.2656 4.75349C25.734 5.18923 25.998 5.77968 26 6.39589V22.675Z" stroke="#00A3E0" stroke-width="1.6" stroke-miterlimit="10"/>
<path d="M5.54988 2.10698V1.16279C5.54988 1.08601 5.58214 0.999568 5.66088 0.926323C5.74157 0.851262 5.86261 0.8 5.99988 0.8C6.13714 0.8 6.25819 0.851262 6.33888 0.926323C6.41762 0.999568 6.44988 1.08601 6.44988 1.16279V2.10698H5.54988Z" fill="white" stroke="#00A3E0" stroke-width="1.6"/>
<path d="M20.55 2.10698V1.16279C20.55 1.08601 20.5823 0.999566 20.661 0.926323C20.7417 0.851262 20.8627 0.8 21 0.8C21.1373 0.8 21.2583 0.851262 21.339 0.926323C21.4177 0.999566 21.45 1.08601 21.45 1.16279V2.10698H20.55Z" fill="white" stroke="#00A3E0" stroke-width="1.6"/>
<path d="M26 11.0469H1" stroke="#00A3E0" stroke-width="1.6" stroke-miterlimit="10"/>
<mask id="path-5-inside-1_4561_4286" fill="white">
<rect x="16.7407" y="14.8145" width="5.55556" height="5.55556" rx="1"/>
</mask>
<rect x="16.7407" y="14.8145" width="5.55556" height="5.55556" rx="1" stroke="#00A3E0" stroke-width="3.2" mask="url(#path-5-inside-1_4561_4286)"/>
</svg>
