<svg width="25" height="26" viewBox="0 0 25 26" fill="none" xmlns="http://www.w3.org/2000/svg">
<path d="M24 22.675C23.9982 23.2912 23.7553 23.8816 23.3243 24.3174C22.8934 24.7531 22.3094 24.9987 21.7 25.0005H3.3C2.69056 24.9987 2.1066 24.7531 1.67567 24.3174C1.24473 23.8816 1.00182 23.2912 1 22.675V6.39589C1.00182 5.77968 1.24473 5.18923 1.67567 4.75349C2.1066 4.31776 2.69056 4.07215 3.3 4.07031H21.7C22.3094 4.07215 22.8934 4.31776 23.3243 4.75349C23.7553 5.18923 23.9982 5.77968 24 6.39589V22.675Z" stroke="#00A3E0" stroke-width="2" stroke-miterlimit="10"/>
<mask id="path-2-inside-1_5563_5446" fill="white">
<path d="M18.25 19.1863H15.95V16.8607H18.25V19.1863ZM19.4 14.5352H14.8C14.4953 14.5361 14.2033 14.6589 13.9879 14.8767C13.7724 15.0946 13.6509 15.3898 13.65 15.6979V20.3491C13.6509 20.6572 13.7724 20.9524 13.9879 21.1703C14.2033 21.3882 14.4953 21.511 14.8 21.5119H19.4C19.7047 21.511 19.9967 21.3882 20.2122 21.1703C20.4277 20.9524 20.5491 20.6572 20.55 20.3491V15.6979C20.5491 15.3898 20.4277 15.0946 20.2122 14.8767C19.9967 14.6589 19.7047 14.5361 19.4 14.5352Z"/>
</mask>
<path d="M18.25 19.1863H15.95V16.8607H18.25V19.1863ZM19.4 14.5352H14.8C14.4953 14.5361 14.2033 14.6589 13.9879 14.8767C13.7724 15.0946 13.6509 15.3898 13.65 15.6979V20.3491C13.6509 20.6572 13.7724 20.9524 13.9879 21.1703C14.2033 21.3882 14.4953 21.511 14.8 21.5119H19.4C19.7047 21.511 19.9967 21.3882 20.2122 21.1703C20.4277 20.9524 20.5491 20.6572 20.55 20.3491V15.6979C20.5491 15.3898 20.4277 15.0946 20.2122 14.8767C19.9967 14.6589 19.7047 14.5361 19.4 14.5352Z" fill="black"/>
<path d="M18.25 19.1863V21.1863H20.25V19.1863H18.25ZM15.95 19.1863H13.95V21.1863H15.95V19.1863ZM15.95 16.8607V14.8607H13.95V16.8607H15.95ZM18.25 16.8607H20.25V14.8607H18.25V16.8607ZM14.8 14.5352V12.5351L14.794 12.5352L14.8 14.5352ZM13.65 15.6979L11.65 15.692V15.6979H13.65ZM13.65 20.3491H11.65L11.65 20.355L13.65 20.3491ZM14.8 21.5119L14.794 23.5119H14.8V21.5119ZM19.4 21.5119V23.5119L19.4061 23.5119L19.4 21.5119ZM20.55 20.3491L22.55 20.355V20.3491H20.55ZM20.55 15.6979H22.55L22.55 15.692L20.55 15.6979ZM18.25 17.1863H15.95V21.1863H18.25V17.1863ZM17.95 19.1863V16.8607H13.95V19.1863H17.95ZM15.95 18.8607H18.25V14.8607H15.95V18.8607ZM16.25 16.8607V19.1863H20.25V16.8607H16.25ZM19.4 12.5352H14.8V16.5352H19.4V12.5352ZM14.794 12.5352C13.9538 12.5377 13.1532 12.8765 12.5658 13.4704L15.4099 16.2831C15.2535 16.4413 15.0369 16.5345 14.8061 16.5351L14.794 12.5352ZM12.5658 13.4704C11.9792 14.0635 11.6525 14.8626 11.65 15.692L15.65 15.7039C15.6494 15.9171 15.5655 16.1257 15.4099 16.2831L12.5658 13.4704ZM11.65 15.6979V20.3491H15.65V15.6979H11.65ZM11.65 20.355C11.6525 21.1844 11.9792 21.9836 12.5658 22.5767L15.4099 19.7639C15.5655 19.9213 15.6494 20.13 15.65 20.3432L11.65 20.355ZM12.5658 22.5767C13.1532 23.1705 13.9538 23.5094 14.794 23.5119L14.8061 19.5119C15.0369 19.5126 15.2535 19.6058 15.4099 19.7639L12.5658 22.5767ZM14.8 23.5119H19.4V19.5119H14.8V23.5119ZM19.4061 23.5119C20.2463 23.5094 21.0469 23.1705 21.6342 22.5767L18.7902 19.7639C18.9466 19.6058 19.1632 19.5126 19.394 19.5119L19.4061 23.5119ZM21.6342 22.5767C22.2208 21.9836 22.5476 21.1844 22.55 20.355L18.55 20.3432C18.5507 20.13 18.6345 19.9213 18.7902 19.7639L21.6342 22.5767ZM22.55 20.3491V15.6979H18.55V20.3491H22.55ZM22.55 15.692C22.5476 14.8626 22.2208 14.0635 21.6342 13.4704L18.7902 16.2831C18.6345 16.1257 18.5507 15.9171 18.55 15.7039L22.55 15.692ZM21.6342 13.4704C21.0469 12.8765 20.2463 12.5377 19.4061 12.5352L19.394 16.5351C19.1632 16.5345 18.9466 16.4413 18.7902 16.2831L21.6342 13.4704Z" fill="#00A3E0" mask="url(#path-2-inside-1_5563_5446)"/>
<path d="M5.44995 1.90698V1.16279C5.44995 1.11607 5.46841 1.07346 5.49779 1.04376C5.52679 1.01443 5.56376 1 5.59995 1C5.63614 1 5.67311 1.01443 5.70212 1.04376C5.73149 1.07346 5.74995 1.11607 5.74995 1.16279V1.90698H5.44995Z" fill="black" stroke="#00A3E0" stroke-width="2"/>
<path d="M19.25 1.90698V1.16279C19.25 1.11607 19.2685 1.07346 19.2978 1.04376C19.3268 1.01443 19.3638 1 19.4 1C19.4362 1 19.4732 1.01443 19.5022 1.04376C19.5315 1.07346 19.55 1.11607 19.55 1.16279V1.90698H19.25Z" fill="black" stroke="#00A3E0" stroke-width="2"/>
<path d="M24 11.0469H1" stroke="#00A3E0" stroke-width="2" stroke-miterlimit="10"/>
</svg>
