<svg width="28" height="31" viewBox="0 0 28 31" fill="none" xmlns="http://www.w3.org/2000/svg">
<path d="M18.9206 10.3555C18.7395 10.168 18.4939 10.0627 18.2379 10.0627C17.9819 10.0627 17.7363 10.168 17.5552 10.3555L14.3754 13.6485L11.1957 10.3555C11.0136 10.1733 10.7697 10.0725 10.5165 10.0748C10.2633 10.0771 10.0211 10.1823 9.84207 10.3677C9.66304 10.5531 9.56149 10.8039 9.55929 11.0661C9.55709 11.3283 9.65441 11.5809 9.83031 11.7695L13.0101 15.0625L9.83031 18.3555C9.73808 18.4477 9.66452 18.5581 9.61391 18.6801C9.5633 18.8021 9.53667 18.9333 9.53555 19.0661C9.53444 19.1989 9.55887 19.3306 9.60742 19.4534C9.65598 19.5763 9.72767 19.688 9.81834 19.7819C9.909 19.8758 10.0168 19.95 10.1355 20.0003C10.2542 20.0506 10.3813 20.0759 10.5095 20.0747C10.6377 20.0736 10.7644 20.046 10.8823 19.9936C11.0001 19.9412 11.1066 19.865 11.1957 19.7695L14.3754 16.4765L17.5552 19.7695C17.7373 19.9517 17.9812 20.0525 18.2344 20.0502C18.4876 20.0479 18.7298 19.9427 18.9088 19.7573C19.0879 19.5719 19.1894 19.3211 19.1916 19.0589C19.1938 18.7967 19.0965 18.5441 18.9206 18.3555L15.7408 15.0625L18.9206 11.7695C19.1016 11.582 19.2033 11.3277 19.2033 11.0625C19.2033 10.7973 19.1016 10.543 18.9206 10.3555ZM14.3754 3.0625C12.0837 3.0625 9.84339 3.76629 7.93786 5.08486C6.03233 6.40344 4.54715 8.27758 3.67013 10.4703C2.79311 12.663 2.56364 15.0758 3.01074 17.4036C3.45784 19.7314 4.56143 21.8695 6.18195 23.5478C7.80247 25.226 9.86714 26.3689 12.1149 26.8319C14.3626 27.2949 16.6924 27.0573 18.8097 26.149C20.9271 25.2408 22.7367 23.7027 24.01 21.7293C25.2832 19.756 25.9628 17.4359 25.9628 15.0625C25.9595 11.881 24.7376 8.83071 22.5653 6.58102C20.3929 4.33133 17.4476 3.06594 14.3754 3.0625ZM14.3754 25.0625C12.4656 25.0625 10.5987 24.476 9.01079 23.3772C7.42285 22.2784 6.1852 20.7166 5.45435 18.8893C4.7235 17.0621 4.53227 15.0514 4.90486 13.1116C5.27744 11.1718 6.1971 9.38996 7.54753 7.99143C8.89797 6.59291 10.6185 5.6405 12.4916 5.25465C14.3647 4.86879 16.3063 5.06683 18.0707 5.8237C19.8351 6.58058 21.3432 7.86231 22.4042 9.5068C23.4653 11.1513 24.0316 13.0847 24.0316 15.0625C24.0288 17.7138 23.0105 20.2556 21.2003 22.1303C19.39 24.0051 16.9356 25.0596 14.3754 25.0625Z" fill="#F05E41"/>
</svg>
