<svg width="15" height="16" viewBox="0 0 15 16" fill="none" xmlns="http://www.w3.org/2000/svg">
<g id="Circle Checked Large">
<path id="Path 17" d="M14.375 8C14.375 9.35975 13.9718 10.689 13.2164 11.8195C12.4609 12.9501 11.3872 13.8313 10.131 14.3517C8.87471 14.872 7.49238 15.0082 6.15876 14.7429C4.82514 14.4776 3.60013 13.8228 2.63864 12.8614C1.67716 11.8999 1.02238 10.6749 0.757104 9.34125C0.491831 8.00763 0.627979 6.62529 1.14833 5.36905C1.66868 4.11281 2.54987 3.03908 3.68046 2.28365C4.81105 1.52821 6.14026 1.125 7.5 1.125C9.32337 1.125 11.072 1.84933 12.3614 3.13864C13.6507 4.42795 14.375 6.17664 14.375 8Z" fill="#00843D"/>
<path id="Ellipse 4 (Stroke)" fill-rule="evenodd" clip-rule="evenodd" d="M7.5 1.75C4.04822 1.75 1.25 4.54822 1.25 8C1.25 11.4518 4.04822 14.25 7.5 14.25C10.9518 14.25 13.75 11.4518 13.75 8C13.75 4.54822 10.9518 1.75 7.5 1.75ZM0 8C0 3.85786 3.35786 0.5 7.5 0.5C11.6421 0.5 15 3.85786 15 8C15 12.1421 11.6421 15.5 7.5 15.5C3.35786 15.5 0 12.1421 0 8Z" fill="#00843D"/>
<path id="Path 18 (Stroke)" fill-rule="evenodd" clip-rule="evenodd" d="M11.0669 5.68306C11.311 5.92714 11.311 6.32286 11.0669 6.56694L6.25 11.3839L3.93306 9.06694C3.68898 8.82286 3.68898 8.42714 3.93306 8.18306C4.17714 7.93898 4.57286 7.93898 4.81694 8.18306L6.25 9.61612L10.1831 5.68306C10.4271 5.43898 10.8229 5.43898 11.0669 5.68306Z" fill="white"/>
</g>
</svg>
