<svg width="20" height="22" viewBox="0 0 20 22" fill="none" xmlns="http://www.w3.org/2000/svg">
<g id="Group 230">
<g id="Group 229">
<path id="Path 388" d="M19.0392 6.67426C18.5816 5.80148 17.9922 5.00426 17.2916 4.31063C15.472 2.51013 13.0141 1.5 10.4525 1.5C7.89085 1.5 5.43288 2.51013 3.61328 4.31063" stroke="#00A3E0" stroke-width="1.5" stroke-linecap="round" stroke-linejoin="round"/>
<path id="Path 389" d="M10.3902 5.33789C10.1353 5.33789 9.89089 5.439 9.71067 5.61897C9.53045 5.79894 9.4292 6.04303 9.4292 6.29755V11.4936L13.0743 15.1331C13.2555 15.3079 13.4983 15.4046 13.7502 15.4025C14.0022 15.4003 14.2432 15.2993 14.4214 15.1214C14.5996 14.9435 14.7006 14.7028 14.7028 14.4512C14.705 14.1996 14.6082 13.9571 14.4331 13.7761L11.3512 10.6981V6.29755C11.3512 6.04303 11.2499 5.79894 11.0697 5.61897C10.8895 5.439 10.6451 5.33789 10.3902 5.33789Z" fill="#00A3E0"/>
<path id="Path 390" d="M17.1651 19.0144C16.8751 19.01 16.5978 18.895 16.39 18.693C16.2889 18.5923 16.2089 18.4726 16.1545 18.3408C16.1002 18.209 16.0726 18.0678 16.0734 17.9252C16.0721 17.8537 16.0796 17.7824 16.0955 17.7127C16.1074 17.6419 16.1277 17.5728 16.156 17.5068C16.1811 17.4417 16.2133 17.3796 16.2521 17.3216C16.2931 17.2617 16.3387 17.205 16.3886 17.1522C16.5986 16.9577 16.8745 16.8496 17.161 16.8496C17.4474 16.8496 17.7233 16.9577 17.9334 17.1522C18.1371 17.3588 18.2525 17.6363 18.2553 17.9262C18.2492 18.2136 18.1341 18.4879 17.9334 18.6939C17.8818 18.745 17.8251 18.7907 17.7642 18.8302C17.7071 18.8708 17.6445 18.9031 17.5783 18.9261C17.5133 18.9541 17.4459 18.9761 17.377 18.9919C17.3065 19.0045 17.2352 19.0117 17.1636 19.0135" fill="#00A3E0"/>
<path id="Path 391" d="M0.811263 10.191C0.545422 10.1184 0.317161 9.9476 0.172747 9.7132C0.0283333 9.47879 -0.0214291 9.19833 0.0335468 8.92865C0.0885226 8.65896 0.244124 8.42024 0.46881 8.26087C0.693497 8.1015 0.970459 8.03341 1.24356 8.07038C1.51666 8.10736 1.76546 8.24665 1.93953 8.46002C2.11361 8.67338 2.19993 8.94486 2.18101 9.21942C2.16209 9.49398 2.03933 9.75109 1.83763 9.93863C1.63592 10.1262 1.37035 10.2301 1.09476 10.2294C0.998913 10.2301 0.903456 10.2172 0.811263 10.191Z" fill="#00A3E0"/>
<path id="Path 392" d="M0.0367375 13.9063C-0.0188173 13.6978 -0.011223 13.4776 0.0585602 13.2735C0.128343 13.0693 0.257181 12.8904 0.428781 12.7594C0.600381 12.6284 0.807035 12.5511 1.02261 12.5374C1.23819 12.5236 1.453 12.574 1.63989 12.6822C1.82677 12.7904 1.97734 12.9515 2.07255 13.1451C2.16775 13.3387 2.20332 13.5562 2.17475 13.77C2.14619 13.9839 2.05477 14.1844 1.91206 14.3463C1.76935 14.5083 1.58175 14.6243 1.373 14.6798C1.28024 14.7031 1.18515 14.716 1.08951 14.7182C0.849019 14.7174 0.6155 14.6374 0.425158 14.4906C0.234817 14.3439 0.0982869 14.1385 0.0367375 13.9063Z" fill="#00A3E0"/>
<path id="Path 393" d="M2.80901 18.696V18.6908C2.61912 18.4843 2.51638 18.2126 2.52221 17.9324C2.52804 17.6521 2.64199 17.3849 2.8403 17.1865C3.03861 16.9881 3.30596 16.8738 3.5866 16.8675C3.86724 16.8611 4.1395 16.9632 4.3466 17.1524C4.55132 17.3573 4.66629 17.6349 4.66629 17.9242C4.66629 18.2136 4.55132 18.4912 4.3466 18.696C4.14176 18.8979 3.86557 19.0111 3.5778 19.0111C3.29003 19.0111 3.01384 18.8979 2.80901 18.696Z" fill="#00A3E0"/>
<path id="Path 394" d="M7.60326 21.4605C7.33742 21.3879 7.10915 21.2171 6.96474 20.9827C6.82033 20.7483 6.77056 20.4679 6.82554 20.1982C6.88051 19.9285 7.03612 19.6898 7.2608 19.5304C7.48549 19.371 7.76245 19.3029 8.03555 19.3399C8.30865 19.3769 8.55745 19.5162 8.73153 19.7295C8.9056 19.9429 8.99193 20.2144 8.973 20.489C8.95408 20.7635 8.83133 21.0206 8.62962 21.2082C8.42791 21.3957 8.16235 21.4996 7.88675 21.4989C7.79089 21.5 7.69538 21.487 7.60326 21.4605Z" fill="#00A3E0"/>
<path id="Path 395" d="M11.8 20.6937C11.7448 20.4855 11.7526 20.2656 11.8226 20.0619C11.8925 19.8581 12.0214 19.6797 12.1929 19.5491C12.3645 19.4185 12.5709 19.3417 12.7862 19.3283C13.0014 19.3149 13.2158 19.3656 13.4023 19.4739C13.5887 19.5822 13.7387 19.7433 13.8334 19.9368C13.9281 20.1303 13.9633 20.3475 13.9343 20.561C13.9054 20.7744 13.8137 20.9745 13.6709 21.1359C13.5281 21.2972 13.3405 21.4127 13.132 21.4676C13.0408 21.4895 12.9475 21.5006 12.8537 21.5007C12.6134 21.5018 12.3795 21.4231 12.1888 21.277C11.9981 21.1309 11.8613 20.9257 11.8 20.6937Z" fill="#00A3E0"/>
</g>
</g>
</svg>
