<svg width="27" height="27" viewBox="0 0 27 27" fill="none" xmlns="http://www.w3.org/2000/svg">
<path d="M22.6421 7.63309C23.1864 7.09964 22.7783 5.89964 21.8253 4.96636C20.8724 4.03309 19.6475 3.63327 19.1032 4.16618C18.5589 4.69909 17.7421 5.36618 17.3313 5.76655C16.9204 6.16691 16.3788 6.3 16.2426 6.16636C15.9784 5.87222 15.833 5.49277 15.834 5.1C15.834 4.56655 15.6983 3.49964 15.6983 2.83309C15.7005 2.03291 14.5432 1.5 13.1821 1.5H13.2502C11.8892 1.5 10.8011 2.16655 10.8011 2.83309C10.8322 3.59131 10.7866 4.35069 10.6649 5.1C10.6649 5.63291 10.3924 6.16636 10.2562 6.16636C9.98432 6.43309 9.43945 6.16636 9.03134 5.89964C8.40488 5.40619 7.81289 4.8717 7.2594 4.29982C6.71508 3.76636 5.49022 4.16618 4.53725 5.1C3.58427 6.03382 3.17617 7.23327 3.72049 7.76618C4.26481 8.29909 4.9459 9.09982 5.354 9.49964C5.7621 9.89945 5.89832 10.4329 5.76266 10.5665C5.46081 10.8255 5.07373 10.9676 4.67347 10.9664C4.12915 10.9664 3.03995 11.1 2.35941 11.1C1.54432 11.1 1 12.1664 1 13.5C1 14.8336 1.68054 15.9 2.36108 15.9C3.13494 15.8739 3.9096 15.9185 4.67513 16.0331C5.21945 16.1662 5.76432 16.2998 5.76432 16.4329C5.89998 16.5665 5.6281 17.1 5.35566 17.4998C4.94355 18.1846 4.44078 18.8123 3.86059 19.3664C3.31627 19.8998 3.72437 21.0998 4.67734 22.0331C5.63032 22.9664 6.85517 23.3662 7.39949 22.8333C7.94381 22.3004 8.76057 21.6333 9.17144 21.2329C9.58231 20.8325 10.1244 20.7 10.2601 20.8331C10.5244 21.1274 10.6698 21.5071 10.6687 21.9C10.6687 22.4329 10.805 23.4998 10.805 24.1664C10.8011 24.9665 11.8892 25.5 13.2502 25.5C14.6113 25.5 15.7005 24.8329 15.7005 24.1664C15.6695 23.4083 15.7149 22.6492 15.8362 21.9C15.9724 21.3665 16.1086 20.8331 16.2448 20.8331C16.6327 20.8877 17.004 21.024 17.3335 21.2329C17.7421 21.6333 18.5589 22.2998 19.1054 22.8333C19.6519 23.3667 20.8774 22.9664 21.8276 22.0331C22.7778 21.0998 23.1886 19.8998 22.6443 19.3664C22.1 18.8329 21.4195 18.0333 21.0108 17.6329C20.6022 17.2325 20.4665 16.6996 20.6027 16.5665C20.9041 16.3071 21.2911 16.1648 21.6913 16.1662C22.2362 16.1662 23.3249 16.0331 24.0054 16.0331C24.6859 16.0331 25.3643 14.9662 25.3643 13.6331C25.3643 12.3 24.6837 11.2331 24.0032 11.2331C23.2293 11.2635 22.4542 11.2189 21.6891 11.1C21.1448 11.1 20.6005 10.8333 20.6005 10.6996C20.4643 10.5665 20.7367 10.0331 21.0086 9.63327C21.4772 8.90967 22.0249 8.23893 22.6421 7.63309V7.63309Z" stroke="#00A3E0" stroke-width="1.5" stroke-miterlimit="10"/>
<path d="M13.1823 16.772C15.0172 16.772 16.5047 15.3068 16.5047 13.4993C16.5047 11.6918 15.0172 10.2266 13.1823 10.2266C11.3474 10.2266 9.85986 11.6918 9.85986 13.4993C9.85986 15.3068 11.3474 16.772 13.1823 16.772Z" stroke="#00A3E0" stroke-width="1.5" stroke-miterlimit="10"/>
</svg>
