<svg width="24" height="24" viewBox="0 0 24 24" fill="none" xmlns="http://www.w3.org/2000/svg">
<path d="M20.1537 6.86645C20.6229 6.39968 20.2711 5.34968 19.4498 4.53307C18.6284 3.71645 17.5726 3.36661 17.1035 3.83291C16.6343 4.2992 15.9303 4.88291 15.5762 5.23323C15.2221 5.58355 14.7553 5.7 14.6379 5.58307C14.4101 5.3257 14.2848 4.99367 14.2857 4.65C14.2857 4.18323 14.1687 3.24968 14.1687 2.66645C14.1706 1.9663 13.1731 1.5 12 1.5H12.0587C10.8856 1.5 9.94773 2.08323 9.94773 2.66645C9.97455 3.32989 9.93522 3.99436 9.83032 4.65C9.83032 5.1163 9.5955 5.58307 9.47809 5.58307C9.24375 5.81645 8.77411 5.58307 8.42236 5.34968C7.8824 4.91791 7.37215 4.45024 6.89509 3.94984C6.42593 3.48307 5.3702 3.83291 4.54882 4.65C3.72743 5.46709 3.37568 6.51661 3.84484 6.98291C4.314 7.4492 4.90105 8.14984 5.2528 8.49968C5.60455 8.84952 5.72195 9.3163 5.60502 9.43323C5.34486 9.65981 5.01122 9.78413 4.66623 9.78307C4.19707 9.78307 3.25827 9.9 2.6717 9.9C1.96916 9.9 1.5 10.8331 1.5 12C1.5 13.1669 2.08657 14.1 2.67314 14.1C3.34015 14.0772 4.00784 14.1162 4.66766 14.2165C5.13682 14.3329 5.60645 14.4498 5.60645 14.5663C5.72339 14.6832 5.48905 15.15 5.25423 15.4998C4.89902 16.099 4.46567 16.6482 3.96559 17.1331C3.49643 17.5998 3.84818 18.6498 4.66957 19.4665C5.49095 20.2831 6.54668 20.6329 7.01584 20.1666C7.485 19.7003 8.18898 19.1166 8.54311 18.7663C8.89725 18.416 9.3645 18.3 9.48143 18.4165C9.70925 18.674 9.83459 19.0062 9.83366 19.35C9.83366 19.8163 9.95107 20.7498 9.95107 21.3331C9.94773 22.0332 10.8856 22.5 12.0587 22.5C13.2318 22.5 14.1706 21.9163 14.1706 21.3331C14.1439 20.6698 14.1831 20.0055 14.2876 19.35C14.405 18.8832 14.5224 18.4165 14.6398 18.4165C14.9741 18.4642 15.2941 18.5835 15.5781 18.7663C15.9303 19.1166 16.6343 19.6998 17.1054 20.1666C17.5765 20.6334 18.6327 20.2831 19.4517 19.4665C20.2707 18.6498 20.6248 17.5998 20.1556 17.1331C19.6865 16.6663 19.0999 15.9666 18.7477 15.6163C18.3955 15.266 18.2785 14.7997 18.3959 14.6832C18.6557 14.4562 18.9893 14.3317 19.3342 14.3329C19.8039 14.3329 20.7422 14.2165 21.3288 14.2165C21.9153 14.2165 22.5 13.2829 22.5 12.1165C22.5 10.95 21.9134 10.0165 21.3269 10.0165C20.6598 10.043 19.9918 10.004 19.3323 9.9C18.8632 9.9 18.394 9.66661 18.394 9.54968C18.2766 9.43323 18.5114 8.96645 18.7458 8.61661C19.1496 7.98346 19.6218 7.39656 20.1537 6.86645V6.86645Z" stroke="#323232" stroke-width="1.5" stroke-miterlimit="10"/>
<path d="M11.9999 14.864C13.5814 14.864 14.8635 13.5819 14.8635 12.0004C14.8635 10.4188 13.5814 9.13672 11.9999 9.13672C10.4183 9.13672 9.13623 10.4188 9.13623 12.0004C9.13623 13.5819 10.4183 14.864 11.9999 14.864Z" stroke="#323232" stroke-width="1.5" stroke-miterlimit="10"/>
</svg>
