<svg width="27" height="27" viewBox="0 0 27 27" fill="none" xmlns="http://www.w3.org/2000/svg">
<path d="M21.6701 4.97239C21.6803 5.70038 21.5125 6.39017 21.2066 7.04249C21.1209 7.22467 21.1136 7.37893 21.1739 7.56332C21.3526 8.11059 21.5212 8.6608 21.6883 9.21175C21.8205 9.64663 21.6854 9.8435 21.2357 9.83689C21.0402 9.83395 20.8455 9.77004 20.6516 9.72597C20.4402 9.67748 20.2251 9.63414 20.0202 9.56362C19.3904 9.34692 18.8041 9.33516 18.1466 9.59521C17.269 9.94267 16.3267 9.84277 15.4164 9.61137C15.221 9.56142 15.1244 9.6099 15.0219 9.77151C14.679 10.3107 14.3201 10.8389 13.9714 11.3744C13.8552 11.5529 13.72 11.6888 13.4919 11.6771C13.2616 11.6653 13.1853 11.4919 13.1032 11.3098C12.8642 10.7764 12.6143 10.2483 12.368 9.71789C12.2293 9.41964 12.0636 9.34912 11.7636 9.45123C10.4094 9.91549 9.07917 9.89272 7.77438 9.26097C7.66323 9.20734 7.51284 9.19192 7.38934 9.21322C6.75583 9.32267 6.12595 9.45049 5.4939 9.57023C5.04928 9.65471 4.81462 9.38805 4.9621 8.9495C5.15971 8.36035 5.37766 7.77855 5.57018 7.18794C5.60796 7.07187 5.6036 6.91614 5.55929 6.80301C4.85386 5.02529 5.06309 3.35114 6.22694 1.85991C7.3857 0.37676 8.96003 -0.191083 10.8097 0.0557413C11.1373 0.0990825 11.4505 0.246002 11.7752 0.327542C11.8893 0.356191 12.0273 0.366476 12.1356 0.329011C13.1795 -0.0331448 14.2271 -0.0654671 15.2878 0.248206C15.3859 0.277589 15.5058 0.279059 15.6046 0.253348C18.6813 -0.553239 21.7014 1.82759 21.6694 4.97313L21.6701 4.97239ZM13.5827 10.3592C13.8603 9.93973 14.1218 9.56656 14.3586 9.17869C14.5047 8.93921 14.6863 8.80258 14.9609 8.72177C16.5556 8.25677 17.6998 6.82211 17.7957 5.20306C17.8996 3.43929 16.9733 1.87019 15.4368 1.20759C13.8741 0.533229 12.0651 0.903465 10.939 2.1273C8.99708 4.23927 9.84418 7.71611 12.5388 8.68064C12.7771 8.76585 12.9391 8.8944 13.0371 9.13829C13.1962 9.53571 13.3851 9.92137 13.5835 10.3592H13.5827ZM6.03514 8.64023C6.15719 8.6204 6.24437 8.60938 6.32937 8.59175C6.73767 8.50948 7.14305 8.40737 7.55425 8.35154C7.72934 8.32803 7.92622 8.37284 8.09695 8.43381C8.4028 8.5418 8.68832 8.71222 8.99708 8.80919C9.64729 9.01341 10.307 9.00827 11.0102 8.83784C9.73375 7.81528 9.04575 6.52753 9.03704 4.91142C9.02832 3.30192 9.68943 2.00169 10.9267 0.979129C10.32 0.785195 9.53759 0.799887 8.86558 1.00631C6.52771 1.72474 5.36822 4.36268 6.41583 6.60099C6.53788 6.86104 6.5604 7.09317 6.46087 7.36204C6.30976 7.77047 6.1848 8.18846 6.03587 8.64023H6.03514ZM20.6676 8.86502C20.5361 8.43822 20.4351 8.05182 20.2963 7.68085C20.1786 7.36497 20.2106 7.10052 20.3653 6.79713C21.5423 4.48609 20.3116 1.72254 17.8219 1.07316C17.4913 0.987209 17.1433 0.970314 16.8033 0.921096C16.7968 0.946072 16.7902 0.971783 16.7837 0.996759C18.0587 2.02372 18.7089 3.36142 18.6828 5.00398C18.6566 6.66344 17.8931 7.94677 16.5599 8.94803C17.3155 9.01561 17.9679 8.84004 18.6079 8.55722C18.7837 8.47936 19.0148 8.46246 19.2044 8.49919C19.6802 8.59175 20.1467 8.73132 20.6676 8.86429V8.86502Z" fill="#323232"/>
<path d="M5.39289 23.0356C3.58536 23.0319 2.00014 22.8145 0.437441 22.4229C0.107611 22.3399 -0.00572282 22.2047 8.91716e-05 21.8639C0.00590116 21.5348 -0.00499632 21.1998 0.0553031 20.8795C0.19697 20.1266 0.621246 19.5617 1.28163 19.1855C1.80253 18.8888 2.32924 18.603 2.85087 18.3092C3.3863 18.008 3.63621 17.3535 3.4357 16.7731C3.41318 16.7085 3.35361 16.6556 3.30493 16.6027C2.46074 15.6962 2.02993 14.6024 2.21954 13.3866C2.39463 12.2612 3.08553 11.437 4.2116 11.1013C5.30498 10.7752 6.3061 10.9933 7.12704 11.8058C7.99085 12.6609 8.18628 13.7128 7.86952 14.8705C7.68281 15.5537 7.34063 16.1502 6.84588 16.6578C6.76815 16.7379 6.73836 16.8723 6.70494 16.9869C6.68533 17.0545 6.70858 17.1331 6.69986 17.2058C6.62648 17.8295 6.89165 18.2284 7.45687 18.4803C7.91965 18.6868 8.35482 18.9556 8.80671 19.1877C9.70393 19.6491 10.1195 20.4101 10.166 21.4018C10.1747 21.5936 10.1718 21.7868 10.1667 21.9792C10.1587 22.2988 10.0606 22.4259 9.75043 22.4934C8.25021 22.8218 6.73546 23.0326 5.39289 23.0348V23.0356ZM4.30532 17.3806C4.31113 18.2196 3.85707 18.7837 3.09788 19.1576C2.61839 19.3934 2.15852 19.6704 1.69356 19.9348C1.14069 20.2492 0.822486 20.715 0.793426 21.371C0.785434 21.5576 0.828297 21.6553 1.03026 21.6817C2.12364 21.8257 3.21194 22.0328 4.30968 22.1188C5.91597 22.2444 7.51063 22.0541 9.08931 21.7427C9.16124 21.7287 9.2644 21.6119 9.26658 21.5399C9.29055 20.8516 9.02465 20.3109 8.4144 19.9738C7.96978 19.7284 7.52444 19.4823 7.06819 19.2612C6.29593 18.888 5.83751 18.3173 5.85857 17.4174C5.85857 17.3931 5.84404 17.3682 5.84768 17.3799H4.30532V17.3806ZM7.14012 14.2865C7.02533 14.2704 6.93888 14.2535 6.85097 14.2454C5.99806 14.1675 5.16259 14.0309 4.42519 13.5431C4.38669 13.5174 4.32058 13.5042 4.27844 13.5189C3.87451 13.6621 3.47275 13.8127 3.04412 13.9706C3.04412 13.9809 3.03831 14.0353 3.04484 14.0882C3.14946 14.9249 3.45822 15.6441 4.14404 16.1774C4.83058 16.7114 5.37327 16.7445 6.05182 16.2082C6.657 15.73 6.9723 15.0725 7.14012 14.2865ZM3.31946 13.0502C3.56139 12.915 3.81203 12.7931 4.04378 12.6418C4.34455 12.4456 4.47459 12.4449 4.73686 12.6873C5.40379 13.3044 6.24144 13.2889 7.07546 13.3727C6.87712 12.5132 6.09687 11.8682 5.24032 11.819C4.38233 11.7698 3.51925 12.2818 3.31946 13.0495V13.0502Z" fill="#323232"/>
<path d="M22.1387 22.6507C20.462 22.6485 18.8216 22.3877 17.2051 21.9462C16.9951 21.8889 16.8557 21.7736 16.8389 21.5606C16.7757 20.7466 16.8455 19.9562 17.4143 19.3149C17.6221 19.0806 17.8764 18.8734 18.1423 18.7088C18.6356 18.4033 19.1543 18.1403 19.6614 17.8567C20.2084 17.5504 20.4416 17.0222 20.2862 16.4206C20.2658 16.3405 20.1896 16.2707 20.13 16.2053C19.2727 15.279 18.9044 14.172 19.0569 12.9268C19.2008 11.7544 20.3726 10.7142 21.5706 10.6026C23.9143 10.3844 25.4465 12.4795 24.6183 14.7714C24.4134 15.3378 24.1039 15.8373 23.6876 16.2722C23.6099 16.353 23.5678 16.4882 23.5489 16.6042C23.4225 17.3836 23.7261 17.8957 24.4635 18.1902C24.9154 18.3709 25.3383 18.6302 25.7647 18.8712C26.5392 19.309 26.9286 19.9973 26.991 20.8811C27.0056 21.0904 26.9983 21.302 26.9968 21.5128C26.9947 21.8735 26.8922 22.0094 26.5486 22.0924C25.0992 22.4435 23.631 22.6463 22.138 22.6507H22.1387ZM17.6446 21.2476C18.4743 21.3923 19.2894 21.562 20.1118 21.6722C22.0712 21.9345 24.0131 21.803 25.934 21.3336C26.0764 21.299 26.1236 21.2388 26.12 21.0926C26.1033 20.4256 25.8344 19.9092 25.2474 19.586C24.7309 19.3017 24.2071 19.0321 23.6876 18.7537C23.1203 18.4495 22.7824 17.9809 22.7069 17.3307C22.6923 17.2044 22.6909 17.0773 22.6865 16.9958H21.1384C21.1413 17.8435 20.6516 18.382 19.8997 18.7507C19.4282 18.9821 18.9748 19.2517 18.5193 19.5154C17.8873 19.882 17.5843 20.4315 17.6446 21.2476ZM23.9448 13.8972C23.8584 13.884 23.7879 13.8693 23.7167 13.8627C22.8544 13.7856 22.0094 13.6512 21.2633 13.1582C21.2205 13.1296 21.1413 13.1274 21.0897 13.1458C20.693 13.2846 20.2985 13.4315 19.8466 13.5968C19.9062 13.8554 19.9484 14.1742 20.0544 14.4688C20.2469 15.0057 20.555 15.4458 21.0228 15.8138C21.4086 16.1172 21.7697 16.2722 22.2325 16.1635C23.0483 15.9732 23.8969 14.8544 23.9441 13.8972H23.9448ZM20.1365 12.6668C20.3915 12.5265 20.6538 12.3994 20.8993 12.2437C21.1783 12.0666 21.3185 12.06 21.5503 12.2804C22.2201 12.918 23.0679 12.9004 23.91 12.9885C23.7421 12.168 22.98 11.5186 22.1322 11.4371C21.2778 11.3548 20.4046 11.8565 20.1358 12.6668H20.1365Z" fill="#323232"/>
<path d="M13.9896 27.0002C12.3012 27.0002 10.7821 26.8438 9.28114 26.5044C8.72536 26.3788 8.70284 26.3398 8.68541 25.7507C8.66434 25.0359 8.81182 24.3785 9.2993 23.8437C9.5049 23.6189 9.75481 23.4228 10.0142 23.2634C10.5017 22.9651 11.0073 22.6955 11.5115 22.4274C11.9474 22.196 12.1573 21.861 12.1537 21.3468C12.1508 20.989 12.052 20.7275 11.8311 20.441C10.9564 19.3054 10.6063 18.0477 11.2289 16.6718C11.8057 15.3973 13.2827 14.7773 14.6725 15.1732C15.9976 15.5516 16.8767 16.868 16.7336 18.2563C16.6318 19.2407 16.2374 20.0804 15.5486 20.7856C15.4658 20.87 15.4222 21.014 15.4026 21.1374C15.2827 21.8897 15.5915 22.3716 16.2933 22.6544C16.7365 22.8329 17.1484 23.0929 17.5712 23.3221C18.3435 23.7408 18.754 24.4049 18.8375 25.2776C18.8615 25.5325 18.86 25.7904 18.8549 26.0467C18.8484 26.367 18.7365 26.4934 18.4292 26.5499C16.9108 26.8284 15.383 27.0076 13.9896 26.9995V27.0002ZM17.9388 25.7683C18.0391 25.0543 17.7383 24.4203 17.1346 24.0861C16.6188 23.8003 16.0928 23.533 15.5733 23.2538C14.9594 22.9247 14.5962 22.4252 14.557 21.7082C14.5519 21.6201 14.5395 21.5326 14.5337 21.4724H12.9986C13.0168 22.337 12.522 22.9019 11.7367 23.2832C11.2725 23.5087 10.8279 23.7761 10.3789 24.0339C9.83691 24.3454 9.52451 24.8075 9.4831 25.4488C9.4722 25.6155 9.52088 25.6927 9.69015 25.7272C12.4327 26.2972 15.1774 26.2833 17.9388 25.7676V25.7683ZM11.7985 18.3974C11.9808 19.2576 12.3542 19.9356 13.0299 20.419C13.5057 20.7591 14.1124 20.7687 14.5621 20.469C15.3271 19.9577 15.7259 19.2165 15.8792 18.3232C15.893 18.2409 15.8872 18.1307 15.8429 18.0676C15.5697 17.6768 15.1164 17.5269 14.6645 17.6841C14.4698 17.7517 14.2794 17.8457 14.1051 17.9559C13.4069 18.3952 12.6797 18.6699 11.7992 18.3981L11.7985 18.3974ZM15.5072 16.8305C15.4862 16.7747 15.4818 16.7468 15.4665 16.7269C14.9507 16.0768 14.2758 15.8087 13.4716 15.9497C12.6986 16.0849 12.1777 16.5609 11.8871 17.2977C11.829 17.4454 11.8791 17.5129 12.0135 17.5658C12.5402 17.7708 13.035 17.6694 13.4912 17.3807C14.1058 16.9921 14.7255 16.652 15.5072 16.8305Z" fill="#323232"/>
<path d="M13.7927 6.43187C13.1403 6.43187 12.4879 6.43408 11.8355 6.43114C11.5129 6.42967 11.348 6.28349 11.348 6.01095C11.348 5.73842 11.5115 5.59223 11.8355 5.5915C13.1403 5.58929 14.4451 5.58929 15.7491 5.5915C16.0768 5.5915 16.2337 5.73254 16.2337 6.01095C16.2337 6.28936 16.0768 6.42967 15.7499 6.43114C15.0975 6.43408 14.4451 6.43187 13.7927 6.43187Z" fill="#323232"/>
<path d="M13.7875 3.45415C14.1399 3.45415 14.4922 3.45048 14.8453 3.45489C15.149 3.45856 15.3023 3.60328 15.3045 3.87214C15.3066 4.14467 15.1628 4.296 14.8548 4.29967C14.1406 4.30775 13.4265 4.30849 12.713 4.29821C12.4166 4.2938 12.2684 4.12558 12.2801 3.85451C12.291 3.59887 12.4421 3.4593 12.7298 3.45489C13.0821 3.44975 13.4345 3.45342 13.7875 3.45342V3.45415Z" fill="#323232"/>
</svg>
