<svg width="21" height="21" viewBox="0 0 21 21" fill="none" xmlns="http://www.w3.org/2000/svg">
<g id="Delete Button Large">
<path id="Ellipse 38 (Stroke)" fill-rule="evenodd" clip-rule="evenodd" d="M10.5 1.75C5.66751 1.75 1.75 5.66751 1.75 10.5C1.75 15.3325 5.66751 19.25 10.5 19.25C15.3325 19.25 19.25 15.3325 19.25 10.5C19.25 5.66751 15.3325 1.75 10.5 1.75ZM0 10.5C0 4.70101 4.70101 0 10.5 0C16.299 0 21 4.70101 21 10.5C21 16.299 16.299 21 10.5 21C4.70101 21 0 16.299 0 10.5Z" fill="#323232"/>
<path id="Line 99 (Stroke)" fill-rule="evenodd" clip-rule="evenodd" d="M14.6187 6.38128C14.9604 6.72299 14.9604 7.27701 14.6187 7.61872L7.61872 14.6187C7.27701 14.9604 6.72299 14.9604 6.38128 14.6187C6.03957 14.277 6.03957 13.723 6.38128 13.3813L13.3813 6.38128C13.723 6.03957 14.277 6.03957 14.6187 6.38128Z" fill="#323232"/>
<path id="Line 100 (Stroke)" fill-rule="evenodd" clip-rule="evenodd" d="M6.38128 6.38128C6.72299 6.03957 7.27701 6.03957 7.61872 6.38128L14.6187 13.3813C14.9604 13.723 14.9604 14.277 14.6187 14.6187C14.277 14.9604 13.723 14.9604 13.3813 14.6187L6.38128 7.61872C6.03957 7.27701 6.03957 6.72299 6.38128 6.38128Z" fill="#323232"/>
</g>
</svg>
