<svg width="16" height="16" viewBox="0 0 16 16" fill="none" xmlns="http://www.w3.org/2000/svg">
<path fill-rule="evenodd" clip-rule="evenodd" d="M11.7631 0.718862C12.0146 0.614665 12.2842 0.561035 12.5565 0.561035C12.8288 0.561035 13.0984 0.614665 13.35 0.718862C13.6015 0.823059 13.8301 0.975783 14.0226 1.16831L14.8322 1.9779L14.3436 2.46657L14.8326 1.97823C15.0252 2.17111 15.1779 2.40007 15.2819 2.65202C15.386 2.90397 15.4393 3.17396 15.4388 3.44654C15.4384 3.71912 15.3842 3.98894 15.2794 4.24056C15.1747 4.49178 15.0216 4.71994 14.8288 4.91201C14.8285 4.91231 14.8282 4.91261 14.8279 4.91291L5.67208 14.0684C5.44456 14.296 5.16713 14.4675 4.86178 14.5692C4.8617 14.5693 4.86187 14.5692 4.86178 14.5692L1.68503 15.6286C1.68452 15.6287 1.684 15.6289 1.68348 15.6291C1.50081 15.6904 1.30466 15.6996 1.11706 15.6556C0.928911 15.6116 0.75683 15.5158 0.620237 15.3791C0.483645 15.2424 0.387983 15.0702 0.344046 14.8821C0.300265 14.6946 0.309578 14.4986 0.370918 14.3161C0.371138 14.3154 0.371358 14.3148 0.37158 14.3141L1.43017 11.1388C1.43021 11.1387 1.43026 11.1385 1.4303 11.1384C1.53228 10.8316 1.70467 10.5529 1.93369 10.3247C1.93387 10.3245 1.93406 10.3243 1.93424 10.3241L11.0904 1.16831C11.0904 1.16832 11.0904 1.16831 11.0904 1.16831C11.2829 0.975789 11.5115 0.823057 11.7631 0.718862ZM13.8545 2.95491L13.0452 2.14564C12.9811 2.08146 12.9049 2.03054 12.821 1.99581C12.7372 1.96107 12.6473 1.9432 12.5565 1.9432C12.4658 1.9432 12.3759 1.96107 12.292 1.99581C12.2082 2.03054 12.132 2.08145 12.0678 2.14562L2.91061 11.3025L2.90961 11.3035C2.8333 11.3795 2.77587 11.4723 2.74192 11.5745L1.89999 14.0999L4.42452 13.2581C4.52613 13.2242 4.61872 13.1671 4.69443 13.0913L13.8518 3.93435L13.853 3.93313C13.9174 3.86905 13.9685 3.79289 14.0035 3.70901C14.0384 3.62514 14.0565 3.5352 14.0566 3.44434C14.0568 3.35348 14.039 3.26349 14.0043 3.1795C13.9696 3.09552 13.9187 3.0192 13.8545 2.95491Z" fill="#323232"/>
<path fill-rule="evenodd" clip-rule="evenodd" d="M12.0677 6.69674L9.30322 3.93241L10.2806 2.95508L13.045 5.7194L12.0677 6.69674Z" fill="#323232"/>
</svg>
