<svg width="17" height="17" viewBox="0 0 17 17" fill="none" xmlns="http://www.w3.org/2000/svg">
<path fill-rule="evenodd" clip-rule="evenodd" d="M12.8677 0.177428C13.1505 0.0602901 13.4536 0 13.7597 0C14.0658 0 14.3689 0.0602901 14.6517 0.177428C14.9345 0.294565 15.1915 0.466257 15.4079 0.682697L16.3181 1.59283L15.7687 2.14219L16.3184 1.5932C16.535 1.81003 16.7066 2.06743 16.8236 2.35067C16.9405 2.63391 17.0005 2.93743 17 3.24387C16.9995 3.5503 16.9386 3.85363 16.8207 4.13649C16.7031 4.41892 16.531 4.67541 16.3142 4.89134C16.3139 4.89168 16.3135 4.89201 16.3132 4.89235L6.02026 15.1849C5.76449 15.4408 5.4526 15.6336 5.10934 15.7479C5.10924 15.748 5.10943 15.7479 5.10934 15.7479L1.53805 16.9388C1.53747 16.939 1.53689 16.9392 1.53631 16.9394C1.33095 17.0083 1.11044 17.0187 0.899538 16.9693C0.688025 16.9197 0.494573 16.812 0.341016 16.6583C0.187459 16.5047 0.0799173 16.3111 0.0305235 16.0996C-0.0186946 15.8888 -0.00822575 15.6685 0.0607332 15.4633C0.0609802 15.4626 0.061228 15.4619 0.0614766 15.4611L1.25154 11.8915C1.25159 11.8913 1.25163 11.8912 1.25168 11.891C1.36633 11.5461 1.56013 11.2328 1.81759 10.9762C1.8178 10.976 1.818 10.9758 1.81821 10.9756L12.1115 0.682697C12.1115 0.682702 12.1115 0.682692 12.1115 0.682697C12.328 0.466263 12.5849 0.294563 12.8677 0.177428ZM15.2189 2.69118L14.3091 1.7814C14.237 1.70925 14.1513 1.65201 14.057 1.61296C13.9628 1.57392 13.8617 1.55382 13.7597 1.55382C13.6577 1.55382 13.5566 1.57392 13.4624 1.61296C13.3681 1.65201 13.2825 1.70924 13.2103 1.78138L2.91584 12.0754L2.91472 12.0766C2.82893 12.162 2.76437 12.2664 2.7262 12.3812L1.77971 15.2203L4.61776 14.2739C4.73199 14.2359 4.83608 14.1716 4.92119 14.0865L15.2158 3.79226L15.2172 3.79089C15.2896 3.71884 15.3471 3.63323 15.3864 3.53894C15.4257 3.44465 15.446 3.34354 15.4461 3.24139C15.4463 3.13925 15.4263 3.03808 15.3873 2.94366C15.3483 2.84925 15.2911 2.76345 15.2189 2.69118Z" fill="white"/>
<path fill-rule="evenodd" clip-rule="evenodd" d="M13.2103 6.89776L10.1025 3.79012L11.2013 2.69141L14.3091 5.79904L13.2103 6.89776Z" fill="white"/>
</svg>
