<svg width="20" height="20" viewBox="0 0 20 20" fill="none" xmlns="http://www.w3.org/2000/svg">
<path fill-rule="evenodd" clip-rule="evenodd" d="M2.3918 2.67334C1.95148 2.67334 1.59453 3.06121 1.59453 3.53968V17.401C1.59453 17.8795 1.95148 18.2674 2.3918 18.2674H10.3645C10.8048 18.2674 11.1617 17.8795 11.1617 17.401V3.53968C11.1617 3.06121 10.8048 2.67334 10.3645 2.67334H2.3918ZM0 3.53968C0 2.10429 1.07085 0.940674 2.3918 0.940674H10.3645C11.6854 0.940674 12.7563 2.10429 12.7563 3.53968V17.401C12.7563 18.8364 11.6854 20 10.3645 20H2.3918C1.07085 20 0 18.8364 0 17.401V3.53968Z" fill="black"/>
<path fill-rule="evenodd" clip-rule="evenodd" d="M13.2919 1.0146C13.8899 0.36495 14.7009 0 15.5465 0C16.3922 0 17.2032 0.36495 17.8012 1.0146L19.0659 2.38889C19.6638 3.03873 19.9999 3.92027 19.9999 4.83916C19.9999 5.75805 19.664 6.63931 19.0662 7.28915L11.9212 15.0522C11.5116 15.4971 11.018 15.8393 10.4751 16.0556L7.58921 17.3918L7.50153 17.424C7.00866 17.6047 6.47913 17.6321 5.97268 17.5032C5.46625 17.3742 5.00305 17.094 4.63537 16.6942C4.2677 16.2944 4.0102 15.7908 3.89193 15.2404C3.77366 14.69 3.79933 14.1146 3.96605 13.5792L3.99536 13.485L5.22403 10.3508C5.42309 9.75976 5.73854 9.2225 6.14886 8.77685C6.14892 8.77678 6.14879 8.77692 6.14886 8.77685C6.14917 8.77652 6.14968 8.77596 6.14998 8.77563L13.2919 1.0146Z" fill="white"/>
<path fill-rule="evenodd" clip-rule="evenodd" d="M14.4194 2.23997C14.7184 1.91514 15.1239 1.73267 15.5467 1.73267C15.9696 1.73267 16.3751 1.91514 16.6741 2.23997L17.9386 3.61407C18.2376 3.93899 18.4056 4.37971 18.4056 4.83915C18.4056 5.2986 18.2376 5.73923 17.9387 6.06415L10.7943 13.8266C10.5401 14.1028 10.2318 14.3131 9.8928 14.4419L7.02109 15.7715L6.99187 15.7823C6.78064 15.8597 6.55369 15.8715 6.33665 15.8162C6.1196 15.7609 5.92109 15.6409 5.76351 15.4695C5.60594 15.2981 5.49558 15.0823 5.4449 14.8464C5.39421 14.6105 5.40521 14.3639 5.47666 14.1345L5.48643 14.1031L6.70947 10.9832C6.82807 10.6139 7.02198 10.2783 7.27687 10.0017C7.2769 10.0017 7.27684 10.0017 7.27687 10.0017L14.4194 2.23997ZM16.811 4.83915L15.5467 3.46533L8.40375 11.2276C8.31611 11.3227 8.25014 11.4387 8.2111 11.5664L8.20079 11.6002L7.36659 13.7281L9.32442 12.8216L9.35522 12.8105C9.47262 12.768 9.57931 12.6964 9.66684 12.6014C9.66688 12.6013 9.66681 12.6014 9.66684 12.6014L16.811 4.83915Z" fill="black"/>
</svg>
