<svg width="19" height="20" viewBox="0 0 19 20" fill="none" xmlns="http://www.w3.org/2000/svg">
<path fill-rule="evenodd" clip-rule="evenodd" d="M12.6935 8.57129C15.8291 8.57129 18.371 11.1297 18.371 14.2856C18.371 17.4416 15.8291 20 12.6935 20C9.55798 20 7.01611 17.4416 7.01611 14.2856C7.01611 11.1297 9.55798 8.57129 12.6935 8.57129ZM12.6936 18.5716C15.0453 18.5716 16.9516 16.6528 16.9516 14.2859C16.9516 11.9189 15.0453 10.0001 12.6936 10.0001C10.3419 10.0001 8.43552 11.9189 8.43552 14.2859C8.43552 16.6528 10.3419 18.5716 12.6936 18.5716Z" fill="#5F6369"/>
<path fill-rule="evenodd" clip-rule="evenodd" d="M11.9839 14.579V11.429H13.4032V13.9933L14.8226 15.4219L13.822 16.429L11.9839 14.579Z" fill="#5F6369"/>
<path fill-rule="evenodd" clip-rule="evenodd" d="M16.2421 1.42858H13.4033V0H11.984V1.42858H6.30656V0H4.88721V1.42858H2.0485C1.26462 1.42858 0.62915 2.06819 0.62915 2.85717V17.143C0.62915 17.932 1.26462 18.5716 2.0485 18.5716H4.88721V17.143H2.0485V2.85717H4.88721V4.28575H6.30656V2.85717H11.984V4.28575H13.4033V2.85717H16.2421V7.14292H17.6614V2.85717C17.6614 2.06819 17.0259 1.42858 16.2421 1.42858Z" fill="#5F6369"/>
</svg>
