<svg width="20" height="23" viewBox="0 0 20 23" fill="none" xmlns="http://www.w3.org/2000/svg">
<path fill-rule="evenodd" clip-rule="evenodd" d="M13.6 9.6001C17.1347 9.6001 20.0001 12.4655 20.0001 16.0001C20.0001 19.5348 17.1347 22.4002 13.6 22.4002C10.0654 22.4002 7.19995 19.5348 7.19995 16.0001C7.19995 12.4655 10.0654 9.6001 13.6 9.6001ZM13.6 20.8004C16.251 20.8004 18.4001 18.6514 18.4001 16.0004C18.4001 13.3494 16.251 11.2003 13.6 11.2003C10.949 11.2003 8.79999 13.3494 8.79999 16.0004C8.79999 18.6514 10.949 20.8004 13.6 20.8004Z" fill="#00A3E0"/>
<path fill-rule="evenodd" clip-rule="evenodd" d="M12.8 16.3283V12.8003H14.4001V15.6723L16.0001 17.2723L14.8721 18.4003L12.8 16.3283Z" fill="#00A3E0"/>
<path fill-rule="evenodd" clip-rule="evenodd" d="M17.6002 1.60001H14.4001V0H12.8001V1.60001H6.40005V0H4.80004V1.60001H1.60001C0.716358 1.60001 0 2.31637 0 3.20002V19.2002C0 20.0838 0.716358 20.8002 1.60001 20.8002H4.80004V19.2002H1.60001V3.20002H4.80004V4.80003H6.40005V3.20002H12.8001V4.80003H14.4001V3.20002H17.6002V8.00006H19.2002V3.20002C19.2002 2.31637 18.4838 1.60001 17.6002 1.60001Z" fill="#00A3E0"/>
</svg>
