<svg width="21" height="15" viewBox="0 0 21 15" fill="none" xmlns="http://www.w3.org/2000/svg">
<path d="M10.4998 15C4.88819 15 0.314122 8.19375 0.122401 7.90387C0.0424721 7.78327 0 7.64313 0 7.5C0 7.35687 0.0424721 7.21673 0.122401 7.09613C0.314122 6.80625 4.88819 0 10.4998 0C16.1114 0 20.6855 6.80625 20.8776 7.09613C20.9575 7.21673 21 7.35687 21 7.5C21 7.64313 20.9575 7.78327 20.8776 7.90387C20.6855 8.19375 16.1114 15 10.4998 15ZM1.72033 7.5C2.75671 8.907 6.44995 13.5 10.4998 13.5C14.5497 13.5 18.2433 8.907 19.2793 7.5C18.2433 6.093 14.5497 1.5 10.4998 1.5C6.44995 1.5 2.75671 6.093 1.72033 7.5Z" fill="#FFC846"/>
<path d="M14.7776 7.5C14.7776 8.31585 14.5268 9.11337 14.0567 9.79173C13.5867 10.4701 12.9186 10.9988 12.1369 11.311C11.3553 11.6232 10.4952 11.7049 9.66536 11.5457C8.83556 11.3866 8.07334 10.9937 7.47509 10.4168C6.87684 9.83992 6.46942 9.10492 6.30437 8.30475C6.13931 7.50458 6.22402 6.67518 6.54779 5.92143C6.87157 5.16769 7.41985 4.52345 8.12332 4.07019C8.82679 3.61693 9.65385 3.375 10.4999 3.375C11.6344 3.375 12.7225 3.8096 13.5247 4.58318C14.327 5.35677 14.7776 6.40598 14.7776 7.5Z" fill="#FFC846"/>
<path d="M9.44134 6.11059C9.56329 5.76038 9.7902 5.45553 10.0934 5.2346C10.3965 5.01367 10.7624 4.88657 11.1446 4.86939C11.5268 4.85221 11.9082 4.94571 12.2406 5.13807C12.573 5.33043 12.8415 5.61301 13.0121 5.95007C13.1826 6.28713 13.2477 6.66354 13.1989 7.0317C13.1502 7.39986 12.9898 7.74323 12.7382 8.01839C12.4865 8.29355 12.1549 8.48814 11.7851 8.57756C11.4154 8.66697 11.0242 8.6472 10.661 8.52073C10.174 8.35115 9.77191 8.00195 9.54318 7.54996C9.31444 7.09797 9.27781 6.58022 9.44134 6.11059Z" fill="#323232"/>
</svg>
