<svg width="32" height="32" viewBox="0 0 32 32" fill="none" xmlns="http://www.w3.org/2000/svg">
<path d="M10.8587 8.40933C11.4373 8.1 12.06 8.00133 12.6667 8.00133C13.4582 8.00384 14.2254 8.2751 14.8427 8.77067C15.532 9.336 16 10.2027 16 11.3333C16 12.6333 15.0813 13.3387 14.564 13.736L14.4507 13.824C13.8853 14.268 13.6667 14.5053 13.6667 15C13.6667 15.2652 13.5613 15.5196 13.3738 15.7071C13.1862 15.8946 12.9319 16 12.6667 16C12.4015 16 12.1471 15.8946 11.9596 15.7071C11.772 15.5196 11.6667 15.2652 11.6667 15C11.6667 13.488 12.6147 12.7227 13.216 12.2507C13.9 11.7133 14 11.5933 14 11.3333C14 10.804 13.8013 10.504 13.5733 10.3187C13.3147 10.115 12.9958 10.0029 12.6667 10C12.2733 10 12.0027 10.0653 11.8 10.1733C11.6093 10.2747 11.408 10.4533 11.2133 10.8133C11.1507 10.9289 11.066 11.031 10.9639 11.1138C10.8619 11.1966 10.7445 11.2585 10.6185 11.296C10.4926 11.3334 10.3604 11.3457 10.2297 11.3321C10.099 11.3185 9.97223 11.2793 9.85667 11.2167C9.74111 11.1541 9.63901 11.0693 9.55619 10.9673C9.47338 10.8652 9.41148 10.7478 9.37403 10.6219C9.33658 10.4959 9.3243 10.3638 9.33791 10.233C9.35152 10.1023 9.39074 9.97556 9.45334 9.86C9.80534 9.212 10.2693 8.724 10.8587 8.40933ZM12.6667 20C13.0203 20 13.3594 19.8595 13.6095 19.6095C13.8595 19.3594 14 19.0203 14 18.6667C14 18.313 13.8595 17.9739 13.6095 17.7239C13.3594 17.4738 13.0203 17.3333 12.6667 17.3333C12.313 17.3333 11.9739 17.4738 11.7239 17.7239C11.4738 17.9739 11.3333 18.313 11.3333 18.6667C11.3333 19.0203 11.4738 19.3594 11.7239 19.6095C11.9739 19.8595 12.313 20 12.6667 20ZM12.6667 4C10.9847 3.99972 9.32978 4.4237 7.85512 5.23272C6.38047 6.04174 5.1337 7.20965 4.2302 8.62838C3.32669 10.0471 2.79564 11.6708 2.68619 13.3493C2.57673 15.0277 2.89241 16.7066 3.604 18.2307L2.63734 22.02C2.56639 22.2983 2.56858 22.5903 2.6437 22.8676C2.71882 23.1448 2.86432 23.3979 3.06609 23.6024C3.26786 23.8068 3.51904 23.9557 3.79528 24.0344C4.07151 24.1132 4.36341 24.1193 4.64267 24.052C5.64267 23.812 7.18 23.4427 8.54934 23.116C9.90891 23.7291 11.3884 24.0303 12.8795 23.9976C14.3705 23.9649 15.8354 23.5991 17.1667 22.9269C18.4981 22.2548 19.6623 21.2934 20.574 20.1131C21.4857 18.9328 22.1219 17.5636 22.4359 16.1056C22.75 14.6476 22.7339 13.1378 22.3889 11.6869C22.0439 10.2359 21.3788 8.88049 20.4421 7.71987C19.5055 6.55924 18.3211 5.62282 16.9758 4.97918C15.6304 4.33554 14.1581 4.00098 12.6667 4ZM4.66667 14C4.6672 12.2604 5.23474 10.5684 6.28331 9.18031C7.33188 7.79225 8.80432 6.7838 10.4775 6.30777C12.1507 5.83174 13.9335 5.91408 15.5557 6.5423C17.1779 7.17052 18.5511 8.31039 19.4673 9.78919C20.3835 11.268 20.7927 13.0051 20.6328 14.7374C20.473 16.4696 19.7529 18.1026 18.5817 19.3888C17.4104 20.675 15.8518 21.5444 14.142 21.8652C12.4323 22.186 10.6645 21.9408 9.10667 21.1667L8.78267 21.0053L8.42934 21.0893L4.712 21.9787C4.97867 20.9387 5.328 19.5627 5.632 18.368L5.72534 18L5.552 17.6627C4.96806 16.5302 4.66444 15.2741 4.66667 14ZM19.3333 28C16.8109 28.0035 14.381 27.0506 12.5333 25.3333H12.6667C13.624 25.3333 14.5533 25.2147 15.4413 24.9907C16.5933 25.6333 17.9213 26 19.3347 26C20.6147 26 21.8227 25.7 22.8933 25.1667L23.2173 25.0053L23.5707 25.0893C24.7987 25.3827 26.1907 25.6827 27.224 25.9027C26.9488 24.722 26.6635 23.5437 26.368 22.368L26.2747 22L26.448 21.6627C27.032 20.5302 27.3356 19.2741 27.3333 18C27.334 16.6625 26.9991 15.3462 26.3592 14.1717C25.7193 12.9971 24.7949 12.002 23.6707 11.2773C23.4355 10.325 23.077 9.40742 22.604 8.548C23.9276 9.00634 25.1403 9.73753 26.1634 10.6943C27.1865 11.651 27.9973 12.8119 28.5433 14.1019C29.0893 15.3918 29.3584 16.7821 29.333 18.1826C29.3076 19.5831 28.9884 20.9627 28.396 22.232C28.7333 23.576 29.076 25.032 29.292 25.9693C29.3554 26.241 29.3493 26.5243 29.2741 26.793C29.199 27.0617 29.0573 27.3071 28.8622 27.5065C28.667 27.7059 28.4248 27.8528 28.1578 27.9337C27.8908 28.0146 27.6077 28.0269 27.3347 27.9693C26.3653 27.7667 24.8413 27.4413 23.4507 27.116C22.1568 27.7005 20.7531 28.0019 19.3333 28Z" fill="#00A3E0"/>
</svg>
