<svg width="33" height="33" viewBox="0 0 33 33" fill="none" xmlns="http://www.w3.org/2000/svg">
<rect width="32.2" height="32.2" rx="16.1" fill="#00A3E0"/>
<path d="M21.7511 8.80762H10.449C9.54481 8.80762 8.80835 9.54408 8.80835 10.4482V21.7503C8.80835 22.6545 9.54481 23.391 10.449 23.391H21.7511C22.6552 23.391 23.3917 22.6545 23.3917 21.7503V10.4482C23.3917 9.54408 22.6552 8.80762 21.7511 8.80762ZM10.449 9.90137H21.7511C22.0522 9.90137 22.2979 10.1471 22.2979 10.4482V17.5037L19.4848 14.6905C19.3827 14.5885 19.2442 14.5301 19.0983 14.5301H19.0962C18.9503 14.5301 18.8096 14.5885 18.7082 14.6935L15.5604 17.8901L14.2385 16.5732C14.1364 16.4712 13.9978 16.4128 13.852 16.4128C13.7113 16.391 13.564 16.4712 13.4619 16.5783L9.9021 20.2132V10.4482C9.9021 10.1471 10.1478 9.90137 10.449 9.90137ZM9.90647 21.7722L13.8571 17.737L18.4377 22.2972H10.449C10.1558 22.2972 9.91887 22.0624 9.90647 21.7722ZM21.7511 22.2972H19.9865L16.3355 18.6608L19.1005 15.8536L22.2979 19.0502V21.7503C22.2979 22.0515 22.0522 22.2972 21.7511 22.2972Z" fill="white"/>
<path d="M13.8163 14.532C14.4372 14.532 14.9406 14.0286 14.9406 13.4076C14.9406 12.7866 14.4372 12.2832 13.8163 12.2832C13.1953 12.2832 12.6919 12.7866 12.6919 13.4076C12.6919 14.0286 13.1953 14.532 13.8163 14.532Z" fill="white"/>
</svg>
