<svg width="21" height="20" viewBox="0 0 21 20" fill="none" xmlns="http://www.w3.org/2000/svg">
<path d="M18.9042 5.63342L16.0959 16.9084C15.8959 17.7501 15.1459 18.3334 14.2792 18.3334H3.32918C2.07084 18.3334 1.17086 17.1 1.54586 15.8917L5.05418 4.62512C5.29585 3.84179 6.02086 3.30005 6.83753 3.30005H17.0875C17.8792 3.30005 18.5375 3.78339 18.8125 4.45005C18.9709 4.80839 19.0042 5.21676 18.9042 5.63342Z" stroke="#ffffff" stroke-width="1.7" stroke-miterlimit="10"/>
<path d="M13.9624 18.3333H17.9457C19.0207 18.3333 19.8624 17.425 19.7874 16.35L18.9624 5" stroke="#ffffff" stroke-width="1.7" stroke-miterlimit="10" stroke-linecap="round" stroke-linejoin="round"/>
<path d="M8.6958 5.31675L9.56247 1.7168" stroke="#ffffff" stroke-width="1.7" stroke-miterlimit="10" stroke-linecap="round" stroke-linejoin="round"/>
<path d="M14.2791 5.32489L15.0624 1.70825" stroke="#ffffff" stroke-width="1.7" stroke-miterlimit="10" stroke-linecap="round" stroke-linejoin="round"/>
<path d="M7.0459 10H13.7126" stroke="#ffffff" stroke-width="1.7" stroke-miterlimit="10" stroke-linecap="round" stroke-linejoin="round"/>
<path d="M6.2124 13.3333H12.8791" stroke="#ffffff" stroke-width="1.7" stroke-miterlimit="10" stroke-linecap="round" stroke-linejoin="round"/>
</svg>
