<svg width="20" height="20" viewBox="0 0 20 20" fill="none" xmlns="http://www.w3.org/2000/svg">
<path d="M9.88255 12.5004C9.73034 12.5015 9.58269 12.4485 9.46588 12.3509C9.34907 12.2533 9.27067 12.1175 9.24463 11.9675V11.9608C9.20986 11.7441 9.19217 11.5249 9.19171 11.3054C9.18711 10.99 9.25078 10.6773 9.37838 10.3888C9.50226 10.1155 9.65807 9.85788 9.84255 9.62126C10.0302 9.3807 10.231 9.15076 10.4442 8.93251C10.6598 8.71029 10.8602 8.49459 11.0455 8.28543C11.2254 8.08281 11.3813 7.86008 11.51 7.62168C11.6348 7.38676 11.6989 7.12434 11.6963 6.85834C11.7016 6.63358 11.6547 6.41065 11.5592 6.20709C11.4714 6.02557 11.3431 5.86663 11.1842 5.74251C11.0206 5.61617 10.8345 5.52188 10.6359 5.46459C10.422 5.40261 10.2002 5.37187 9.97755 5.37334C9.63655 5.37425 9.29975 5.44857 8.99005 5.59126C8.86674 5.65215 8.73002 5.68081 8.59264 5.67458C8.45526 5.66834 8.3217 5.62741 8.20442 5.5556C8.08714 5.4838 7.98996 5.38345 7.92194 5.26393C7.85393 5.1444 7.81729 5.0096 7.81546 4.87209C7.81442 4.77658 7.83865 4.68249 7.8857 4.59936C7.93276 4.51624 8.00095 4.44703 8.08338 4.39876C8.78792 3.98759 9.58807 3.76863 10.4038 3.76376C10.7994 3.76107 11.1929 3.81982 11.5705 3.93793C11.9201 4.046 12.2456 4.22074 12.5288 4.45251C12.8056 4.68227 13.0269 4.97155 13.1763 5.29876C13.3403 5.66937 13.4208 6.0715 13.4121 6.47668C13.4188 6.86468 13.3516 7.25041 13.2142 7.61334C13.0854 7.93807 12.9175 8.2459 12.7142 8.53001C12.5231 8.79804 12.3062 9.04672 12.0667 9.27251C11.8359 9.48834 11.6202 9.70404 11.4196 9.91959C11.2273 10.1232 11.0595 10.3486 10.9196 10.5913C10.7872 10.8267 10.7189 11.0928 10.7217 11.3629C10.7217 11.3988 10.7217 11.6546 10.7271 11.6963C10.7398 11.8586 10.705 12.0211 10.6267 12.164C10.5485 12.3068 10.4304 12.4237 10.2867 12.5004H9.88255ZM10.0034 16.0421C9.72672 16.0424 9.46124 15.933 9.26505 15.7379C9.16543 15.6439 9.08666 15.53 9.03383 15.4036C8.981 15.2772 8.9553 15.1411 8.95838 15.0042C8.95441 14.8672 8.9797 14.7309 9.03259 14.6044C9.08547 14.478 9.16472 14.3642 9.26505 14.2708C9.36023 14.1721 9.47434 14.0936 9.60055 14.04C9.72676 13.9863 9.86249 13.9587 9.99963 13.9587C10.1368 13.9587 10.2725 13.9863 10.3987 14.04C10.5249 14.0936 10.639 14.1721 10.7342 14.2708C10.8347 14.3641 10.9141 14.4778 10.9672 14.6043C11.0202 14.7308 11.0456 14.8671 11.0417 15.0042C11.0447 15.1412 11.0189 15.2773 10.966 15.4037C10.913 15.5301 10.834 15.644 10.7342 15.7379C10.5405 15.9321 10.2777 16.0415 10.0034 16.0421Z" fill="#323232"/>
<path fill-rule="evenodd" clip-rule="evenodd" d="M10 1.66667C5.39763 1.66667 1.66667 5.39763 1.66667 10C1.66667 14.6024 5.39763 18.3333 10 18.3333C14.6024 18.3333 18.3333 14.6024 18.3333 10C18.3333 5.39763 14.6024 1.66667 10 1.66667ZM0 10C0 4.47715 4.47715 0 10 0C15.5228 0 20 4.47715 20 10C20 15.5228 15.5228 20 10 20C4.47715 20 0 15.5228 0 10Z" fill="#323232"/>
</svg>
