<svg width="25" height="29" viewBox="0 0 25 29" fill="none" xmlns="http://www.w3.org/2000/svg">
<path fill-rule="evenodd" clip-rule="evenodd" d="M22.0164 2.71428H18.0134V0.75H16.0119V2.71428H8.00594V0.75H6.00446V2.71428H2.00148C0.896106 2.71428 0 3.59373 0 4.67857V24.3214C0 25.4063 0.896106 26.2857 2.00148 26.2857H6.00446V24.3214H2.00148V4.67857H6.00446V6.64285H8.00594V4.67857H16.0119V6.64285H18.0134V4.67857H22.0164V10.5714H24.0178V4.67857C24.0178 3.59373 23.1217 2.71428 22.0164 2.71428Z" fill="#00A3E0"/>
<path fill-rule="evenodd" clip-rule="evenodd" d="M19.6463 18.3674L24.9999 19.1443L21.0714 22.9196L22.0535 28.2497L17.1428 25.7335L12.2321 28.2497L13.2142 22.9196L9.28564 19.1443L14.7856 18.3674L17.1428 13.5176L19.6463 18.3674Z" fill="#00A3E0"/>
</svg>
