<svg width="18" height="22" viewBox="0 0 18 22" fill="none" xmlns="http://www.w3.org/2000/svg">
<path fill-rule="evenodd" clip-rule="evenodd" d="M16.5 1.53846H13.5V0H12V1.53846H5.99999V0H4.5V1.53846H1.49999C0.67158 1.53846 0 2.22726 0 3.07692V18.4615C0 19.3112 0.67158 20 1.49999 20H4.5V18.4615H1.49999V3.07692H4.5V4.61538H5.99999V3.07692H12V4.61538H13.5V3.07692H16.5V7.6923H18V3.07692C18 2.22726 17.3284 1.53846 16.5 1.53846Z" fill="#ffffff"/>
<path fill-rule="evenodd" clip-rule="evenodd" d="M13.9118 13.9504L18 14.5832L15 17.6584L15.75 22L12 19.9504L8.25 22L9 17.6584L6 14.5832L10.2 13.9504L12 10L13.9118 13.9504Z" fill="#ffffff"/>
</svg>
