<svg width="16" height="22" viewBox="0 0 16 22" fill="none" xmlns="http://www.w3.org/2000/svg">
<path d="M12.7695 22.0007H2.76953C2.10669 22 1.47119 21.7424 1.0025 21.2843C0.533798 20.8262 0.270193 20.2051 0.269531 19.5572V4.89657C0.270193 4.24873 0.533798 3.6276 1.0025 3.16951C1.47119 2.71141 2.10669 2.45377 2.76953 2.45312H12.7695C13.4324 2.45377 14.0679 2.71141 14.5366 3.16951C15.0053 3.6276 15.2689 4.24873 15.2695 4.89657V19.5572C15.2689 20.2051 15.0053 20.8262 14.5366 21.2843C14.0679 21.7424 13.4324 22 12.7695 22.0007ZM2.76953 4.08209C2.54852 4.08209 2.33656 4.1679 2.18028 4.32064C2.024 4.47339 1.9362 4.68056 1.9362 4.89657V19.5572C1.9362 19.7733 2.024 19.9804 2.18028 20.1332C2.33656 20.2859 2.54852 20.3717 2.76953 20.3717H12.7695C12.9905 20.3717 13.2025 20.2859 13.3588 20.1332C13.5151 19.9804 13.6029 19.7733 13.6029 19.5572V4.89657C13.6029 4.68056 13.5151 4.47339 13.3588 4.32064C13.2025 4.1679 12.9905 4.08209 12.7695 4.08209H2.76953Z" fill="#00A3E0"/>
<path d="M10.2694 3.26689C10.2683 2.85762 10.1627 2.45508 9.96212 2.09579C9.76158 1.7365 9.47245 1.43182 9.12095 1.20937C8.76946 0.986918 8.36671 0.853738 7.94923 0.821903C7.53175 0.790069 7.11274 0.860588 6.7302 1.02706C6.28907 1.21524 5.91487 1.52696 5.65487 1.92285C5.39487 2.31874 5.26072 2.78106 5.26937 3.25141V3.26689L4.43604 4.08137V4.89585H11.1027V4.08137L10.2694 3.26689Z" fill="white"/>
<path fill-rule="evenodd" clip-rule="evenodd" d="M6.39436 0.281821C6.90285 0.0610728 7.45963 -0.0323836 8.01437 0.00991797C8.57014 0.052297 9.10629 0.229591 9.57421 0.525725C10.0421 0.821859 10.427 1.22746 10.694 1.70577C10.9026 2.0795 11.034 2.48839 11.0822 2.90924L11.6923 3.50547C11.8486 3.65822 11.9364 3.86539 11.9364 4.0814V4.89588C11.9364 5.34571 11.5633 5.71036 11.103 5.71036H4.43636C3.97612 5.71036 3.60303 5.34571 3.60303 4.89588V4.0814C3.60303 3.86539 3.69082 3.65822 3.84711 3.50547L4.44966 2.91655C4.49746 2.40775 4.66964 1.91575 4.95391 1.48291C5.30232 0.952403 5.8035 0.534514 6.39436 0.281821ZM7.88474 1.63395C7.60554 1.61266 7.32533 1.65982 7.06949 1.77115L7.06387 1.77358C6.77368 1.89736 6.52752 2.10242 6.35649 2.36285C6.18545 2.62328 6.09721 2.9274 6.10289 3.23681C6.10298 3.24169 6.10303 3.24657 6.10303 3.25144V3.26692C6.10303 3.48293 6.01523 3.6901 5.85895 3.84284L5.61487 4.0814H9.92452L9.68044 3.84284C9.5247 3.69063 9.43694 3.48434 9.43636 3.26907C9.43563 2.99536 9.365 2.72616 9.23088 2.48588C9.09677 2.2456 8.90341 2.04184 8.66834 1.89307C8.43328 1.7443 8.16393 1.65524 7.88474 1.63395Z" fill="#00A3E0"/>
<path fill-rule="evenodd" clip-rule="evenodd" d="M6.93604 9.37599C6.93604 9.15108 7.12258 8.96875 7.3527 8.96875C7.6215 8.96875 7.80655 9.10927 7.92019 9.24254C8.01708 9.35618 8.08814 9.49547 8.13462 9.58656C8.13717 9.59156 8.13964 9.59641 8.14205 9.60111C8.15879 9.63383 8.17325 9.66171 8.18604 9.6856C8.19882 9.66171 8.21328 9.63383 8.23002 9.60111C8.23243 9.59641 8.2349 9.59156 8.23745 9.58656C8.28393 9.49547 8.355 9.35618 8.45188 9.24254C8.56552 9.10927 8.75057 8.96875 9.01937 8.96875C9.28817 8.96875 9.47322 9.10927 9.58686 9.24254C9.68374 9.35618 9.75481 9.49547 9.80129 9.58656C9.80384 9.59156 9.80631 9.59641 9.80871 9.60111C9.82545 9.63383 9.83992 9.66171 9.8527 9.6856C9.86548 9.66171 9.87995 9.63383 9.89669 9.60111C9.89909 9.59641 9.90157 9.59156 9.90412 9.58656C9.95059 9.49547 10.0217 9.35618 10.1185 9.24254C10.2322 9.10927 10.4172 8.96875 10.686 8.96875C10.9548 8.96875 11.1399 9.10927 11.2535 9.24254C11.3504 9.35618 11.4215 9.49547 11.468 9.58656C11.4705 9.59156 11.473 9.59641 11.4754 9.60111C11.5254 9.69883 11.5551 9.75333 11.5803 9.78755C11.7815 9.81636 11.936 9.98578 11.936 10.1905C11.936 10.4154 11.7495 10.5977 11.5194 10.5977C11.2506 10.5977 11.0655 10.4572 10.9519 10.3239C10.855 10.2103 10.7839 10.071 10.7375 9.9799C10.7349 9.9749 10.7324 9.97005 10.73 9.96536C10.7133 9.93263 10.6988 9.90476 10.686 9.88087C10.6733 9.90476 10.6588 9.93263 10.642 9.96536C10.6396 9.97005 10.6372 9.9749 10.6346 9.9799C10.5881 10.071 10.5171 10.2103 10.4202 10.3239C10.3066 10.4572 10.1215 10.5977 9.8527 10.5977C9.5839 10.5977 9.39885 10.4572 9.28521 10.3239C9.18833 10.2103 9.11726 10.071 9.07078 9.9799C9.06823 9.9749 9.06576 9.97005 9.06336 9.96536C9.04662 9.93263 9.03215 9.90476 9.01937 9.88087C9.00659 9.90476 8.99212 9.93263 8.97538 9.96536C8.97298 9.97005 8.9705 9.9749 8.96795 9.9799C8.92148 10.071 8.85041 10.2103 8.75352 10.3239C8.63989 10.4572 8.45484 10.5977 8.18604 10.5977C7.91723 10.5977 7.73218 10.4572 7.61855 10.3239C7.52166 10.2103 7.45059 10.071 7.40412 9.9799C7.40157 9.9749 7.39909 9.97005 7.39669 9.96536C7.3467 9.86763 7.31699 9.81313 7.2918 9.77891C7.09055 9.75011 6.93604 9.58069 6.93604 9.37599Z" fill="#00A3E0"/>
<path fill-rule="evenodd" clip-rule="evenodd" d="M6.93604 12.6338C6.93604 12.4089 7.12258 12.2266 7.3527 12.2266C7.6215 12.2266 7.80655 12.3671 7.92019 12.5004C8.01708 12.614 8.08814 12.7533 8.13462 12.8444C8.13717 12.8494 8.13964 12.8542 8.14205 12.8589C8.15879 12.8916 8.17325 12.9195 8.18604 12.9434C8.19882 12.9195 8.21328 12.8916 8.23002 12.8589C8.23243 12.8542 8.2349 12.8494 8.23745 12.8444C8.28393 12.7533 8.355 12.614 8.45188 12.5004C8.56552 12.3671 8.75057 12.2266 9.01937 12.2266C9.28817 12.2266 9.47322 12.3671 9.58686 12.5004C9.68374 12.614 9.75481 12.7533 9.80129 12.8444C9.80384 12.8494 9.80631 12.8542 9.80871 12.8589C9.82545 12.8916 9.83992 12.9195 9.8527 12.9434C9.86548 12.9195 9.87995 12.8916 9.89669 12.8589C9.89909 12.8542 9.90157 12.8494 9.90412 12.8444C9.95059 12.7533 10.0217 12.614 10.1185 12.5004C10.2322 12.3671 10.4172 12.2266 10.686 12.2266C10.9548 12.2266 11.1399 12.3671 11.2535 12.5004C11.3504 12.614 11.4215 12.7533 11.468 12.8444C11.4705 12.8494 11.473 12.8542 11.4754 12.8589C11.5254 12.9566 11.5551 13.0111 11.5803 13.0454C11.7815 13.0742 11.936 13.2436 11.936 13.4483C11.936 13.6732 11.7495 13.8555 11.5194 13.8555C11.2506 13.8555 11.0655 13.715 10.9519 13.5817C10.855 13.4681 10.7839 13.3288 10.7375 13.2377C10.7349 13.2327 10.7324 13.2279 10.73 13.2232C10.7133 13.1904 10.6988 13.1626 10.686 13.1387C10.6733 13.1626 10.6588 13.1904 10.642 13.2232C10.6396 13.2279 10.6372 13.2327 10.6346 13.2377C10.5881 13.3288 10.5171 13.4681 10.4202 13.5817C10.3066 13.715 10.1215 13.8555 9.8527 13.8555C9.5839 13.8555 9.39885 13.715 9.28521 13.5817C9.18833 13.4681 9.11726 13.3288 9.07078 13.2377C9.06823 13.2327 9.06576 13.2279 9.06336 13.2232C9.04662 13.1904 9.03215 13.1626 9.01937 13.1387C9.00659 13.1626 8.99212 13.1904 8.97538 13.2232C8.97298 13.2279 8.9705 13.2327 8.96795 13.2377C8.92148 13.3288 8.85041 13.4681 8.75352 13.5817C8.63989 13.715 8.45484 13.8555 8.18604 13.8555C7.91723 13.8555 7.73218 13.715 7.61855 13.5817C7.52166 13.4681 7.45059 13.3288 7.40412 13.2377C7.40157 13.2327 7.39909 13.2279 7.39669 13.2232C7.3467 13.1254 7.31699 13.0709 7.2918 13.0367C7.09055 13.0079 6.93604 12.8385 6.93604 12.6338Z" fill="#00A3E0"/>
<path fill-rule="evenodd" clip-rule="evenodd" d="M6.93604 15.8916C6.93604 15.6667 7.12258 15.4844 7.3527 15.4844C7.6215 15.4844 7.80655 15.6249 7.92019 15.7582C8.01708 15.8718 8.08814 16.0111 8.13462 16.1022C8.13717 16.1072 8.13964 16.112 8.14205 16.1167C8.15879 16.1495 8.17325 16.1773 8.18604 16.2012C8.19882 16.1773 8.21328 16.1495 8.23002 16.1167C8.23243 16.112 8.2349 16.1072 8.23745 16.1022C8.28393 16.0111 8.355 15.8718 8.45188 15.7582C8.56552 15.6249 8.75057 15.4844 9.01937 15.4844C9.28817 15.4844 9.47322 15.6249 9.58686 15.7582C9.68374 15.8718 9.75481 16.0111 9.80129 16.1022C9.80384 16.1072 9.80631 16.112 9.80871 16.1167C9.82545 16.1495 9.83992 16.1773 9.8527 16.2012C9.86548 16.1773 9.87995 16.1495 9.89669 16.1167C9.89909 16.112 9.90157 16.1072 9.90412 16.1022C9.95059 16.0111 10.0217 15.8718 10.1185 15.7582C10.2322 15.6249 10.4172 15.4844 10.686 15.4844C10.9548 15.4844 11.1399 15.6249 11.2535 15.7582C11.3504 15.8718 11.4215 16.0111 11.468 16.1022C11.4705 16.1072 11.473 16.112 11.4754 16.1167C11.5254 16.2145 11.5551 16.269 11.5803 16.3032C11.7815 16.332 11.936 16.5014 11.936 16.7061C11.936 16.931 11.7495 17.1133 11.5194 17.1133C11.2506 17.1133 11.0655 16.9728 10.9519 16.8395C10.855 16.7259 10.7839 16.5866 10.7375 16.4955C10.7349 16.4905 10.7324 16.4857 10.73 16.481C10.7133 16.4483 10.6988 16.4204 10.686 16.3965C10.6733 16.4204 10.6588 16.4483 10.642 16.481C10.6396 16.4857 10.6372 16.4905 10.6346 16.4955C10.5881 16.5866 10.5171 16.7259 10.4202 16.8395C10.3066 16.9728 10.1215 17.1133 9.8527 17.1133C9.5839 17.1133 9.39885 16.9728 9.28521 16.8395C9.18833 16.7259 9.11726 16.5866 9.07078 16.4955C9.06823 16.4905 9.06576 16.4857 9.06336 16.481C9.04662 16.4483 9.03215 16.4204 9.01937 16.3965C9.00659 16.4204 8.99212 16.4483 8.97538 16.481C8.97298 16.4857 8.9705 16.4905 8.96795 16.4955C8.92148 16.5866 8.85041 16.7259 8.75352 16.8395C8.63989 16.9728 8.45484 17.1133 8.18604 17.1133C7.91723 17.1133 7.73218 16.9728 7.61855 16.8395C7.52166 16.7259 7.45059 16.5866 7.40412 16.4955C7.40157 16.4905 7.39909 16.4857 7.39669 16.481C7.3467 16.3833 7.31699 16.3288 7.2918 16.2945C7.09055 16.2657 6.93604 16.0963 6.93604 15.8916Z" fill="#00A3E0"/>
<path d="M5.26969 9.78323C5.26969 9.94432 5.22082 10.1018 5.12925 10.2357C5.03768 10.3697 4.90754 10.4741 4.75526 10.5357C4.60299 10.5974 4.43544 10.6135 4.27379 10.5821C4.11214 10.5506 3.96365 10.4731 3.84711 10.3592C3.73056 10.2453 3.65119 10.1001 3.61904 9.94213C3.58689 9.78414 3.60339 9.62037 3.66646 9.47154C3.72953 9.32272 3.83634 9.19551 3.97339 9.10602C4.11043 9.01652 4.27154 8.96875 4.43636 8.96875C4.65738 8.96875 4.86934 9.05456 5.02562 9.20731C5.1819 9.36005 5.26969 9.56722 5.26969 9.78323Z" fill="#00A3E0"/>
<path d="M5.26969 13.041C5.26969 13.2021 5.22082 13.3596 5.12925 13.4935C5.03768 13.6275 4.90754 13.7319 4.75526 13.7935C4.60299 13.8552 4.43544 13.8713 4.27379 13.8399C4.11214 13.8084 3.96365 13.7309 3.84711 13.617C3.73056 13.5031 3.65119 13.3579 3.61904 13.1999C3.58689 13.0419 3.60339 12.8782 3.66646 12.7294C3.72953 12.5805 3.83634 12.4533 3.97339 12.3638C4.11043 12.2743 4.27154 12.2266 4.43636 12.2266C4.65738 12.2266 4.86934 12.3124 5.02562 12.4651C5.1819 12.6179 5.26969 12.825 5.26969 13.041Z" fill="#00A3E0"/>
<path d="M5.26969 16.2989C5.26969 16.4599 5.22082 16.6174 5.12925 16.7514C5.03768 16.8853 4.90754 16.9897 4.75526 17.0513C4.60299 17.113 4.43544 17.1291 4.27379 17.0977C4.11214 17.0663 3.96365 16.9887 3.84711 16.8748C3.73056 16.7609 3.65119 16.6157 3.61904 16.4578C3.58689 16.2998 3.60339 16.136 3.66646 15.9872C3.72953 15.8383 3.83634 15.7111 3.97339 15.6216C4.11043 15.5321 4.27154 15.4844 4.43636 15.4844C4.65738 15.4844 4.86934 15.5702 5.02562 15.7229C5.1819 15.8757 5.26969 16.0828 5.26969 16.2989Z" fill="#00A3E0"/>
</svg>
