<svg width="25" height="25" viewBox="0 0 25 25" fill="none" xmlns="http://www.w3.org/2000/svg">
<g clip-path="url(#clip0_5508_6624)">
<path d="M16.0715 0.892578V11.6069L22.4822 19.7676C22.7944 20.1627 22.989 20.638 23.0434 21.1387C23.0979 21.6394 23.0101 22.1453 22.7901 22.5983C22.5701 23.0514 22.2268 23.4333 21.7996 23.7001C21.3724 23.9669 20.8787 24.1079 20.375 24.1069H4.62503C4.12137 24.1079 3.62762 23.9669 3.20045 23.7001C2.77328 23.4333 2.42999 23.0514 2.20998 22.5983C1.98998 22.1453 1.90216 21.6394 1.95662 21.1387C2.01109 20.638 2.20561 20.1627 2.51788 19.7676L8.9286 11.6069V0.892578M6.25003 0.892578H18.75" stroke="black" stroke-width="2.14286" stroke-linecap="round" stroke-linejoin="round"/>
</g>
<defs>
<clipPath id="clip0_5508_6624">
<rect width="25" height="25" fill="white"/>
</clipPath>
</defs>
</svg>
