<svg width="18" height="18" viewBox="0 0 18 18" fill="none" xmlns="http://www.w3.org/2000/svg">
<path d="M14.8125 1.5H3.1875C2.2575 1.5 1.5 2.2575 1.5 3.1875V14.8125C1.5 15.7425 2.2575 16.5 3.1875 16.5H14.8125C15.7425 16.5 16.5 15.7425 16.5 14.8125V3.1875C16.5 2.2575 15.7425 1.5 14.8125 1.5ZM3.1875 2.625H14.8125C15.1222 2.625 15.375 2.87775 15.375 3.1875V10.4445L12.4815 7.551C12.3765 7.446 12.234 7.386 12.084 7.386H12.0817C11.9317 7.386 11.787 7.446 11.6827 7.554L8.445 10.842L7.08525 9.4875C6.98025 9.3825 6.83775 9.3225 6.68775 9.3225C6.543 9.3 6.3915 9.3825 6.2865 9.49275L2.625 13.2315V3.1875C2.625 2.87775 2.87775 2.625 3.1875 2.625ZM2.6295 14.835L6.693 10.6845L11.4045 15.375H3.1875C2.886 15.375 2.64225 15.1335 2.6295 14.835ZM14.8125 15.375H12.9975L9.24225 11.6347L12.0863 8.74725L15.375 12.0353V14.8125C15.375 15.1222 15.1222 15.375 14.8125 15.375Z" fill="#00A3E0"/>
<path d="M6.65064 7.3882C7.28936 7.3882 7.80714 6.87041 7.80714 6.2317C7.80714 5.59298 7.28936 5.0752 6.65064 5.0752C6.01192 5.0752 5.49414 5.59298 5.49414 6.2317C5.49414 6.87041 6.01192 7.3882 6.65064 7.3882Z" fill="#00A3E0"/>
</svg>
