<svg width="22" height="20" viewBox="0 0 22 20" fill="none" xmlns="http://www.w3.org/2000/svg">
<path d="M19.275 5.63318L16.4667 16.9082C16.2667 17.7499 15.5167 18.3332 14.65 18.3332H3.70003C2.44169 18.3332 1.54171 17.0998 1.91671 15.8915L5.42503 4.62488C5.6667 3.84154 6.39171 3.2998 7.20838 3.2998H17.4584C18.25 3.2998 18.9084 3.78314 19.1834 4.44981C19.3417 4.80814 19.375 5.21651 19.275 5.63318Z" stroke="#00A3E0" stroke-width="1.7" stroke-miterlimit="10"/>
<path d="M14.3333 18.3333H18.3166C19.3916 18.3333 20.2332 17.425 20.1582 16.35L19.3333 5" stroke="#00A3E0" stroke-width="1.7" stroke-miterlimit="10" stroke-linecap="round" stroke-linejoin="round"/>
<path d="M9.06665 5.31675L9.93332 1.7168" stroke="#00A3E0" stroke-width="1.7" stroke-miterlimit="10" stroke-linecap="round" stroke-linejoin="round"/>
<path d="M14.6499 5.32465L15.4332 1.70801" stroke="#00A3E0" stroke-width="1.7" stroke-miterlimit="10" stroke-linecap="round" stroke-linejoin="round"/>
<path d="M7.41675 10H14.0834" stroke="#00A3E0" stroke-width="1.7" stroke-miterlimit="10" stroke-linecap="round" stroke-linejoin="round"/>
<path d="M6.58325 13.333H13.2499" stroke="#00A3E0" stroke-width="1.7" stroke-miterlimit="10" stroke-linecap="round" stroke-linejoin="round"/>
</svg>
