<svg width="5" height="20" viewBox="0 0 5 20" fill="none" xmlns="http://www.w3.org/2000/svg">
<path d="M2.5 4.7619C2.99445 4.7619 3.4778 4.62226 3.88893 4.36064C4.30005 4.09902 4.62048 3.72717 4.8097 3.2921C4.99892 2.85704 5.04843 2.37831 4.95196 1.91645C4.8555 1.45459 4.6174 1.03035 4.26777 0.697365C3.91814 0.364382 3.47268 0.137617 2.98773 0.0457478C2.50277 -0.0461216 2.00011 0.00102997 1.54329 0.18124C1.08648 0.361448 0.69603 0.66662 0.421327 1.05816C0.146623 1.44971 1.35137e-06 1.91004 1.35137e-06 2.38095C1.35137e-06 3.01242 0.263393 3.61802 0.732234 4.06454C1.20107 4.51105 1.83696 4.7619 2.5 4.7619ZM2.5 15.2381C2.00555 15.2381 1.5222 15.3777 1.11108 15.6394C0.699953 15.901 0.379521 16.2728 0.190302 16.7079C0.00108321 17.143 -0.0484251 17.6217 0.0480379 18.0835C0.144501 18.5454 0.382603 18.9697 0.732234 19.3026C1.08187 19.6356 1.52732 19.8624 2.01227 19.9542C2.49723 20.0461 2.99989 19.999 3.45671 19.8188C3.91352 19.6386 4.30397 19.3334 4.57867 18.9418C4.85338 18.5503 5 18.09 5 17.619C5 16.9876 4.73661 16.382 4.26777 15.9355C3.79893 15.4889 3.16304 15.2381 2.5 15.2381ZM2.5 12.381C2.99445 12.381 3.4778 12.2413 3.88893 11.9797C4.30005 11.7181 4.62048 11.3462 4.8097 10.9112C4.99892 10.4761 5.04843 9.99736 4.95196 9.5355C4.8555 9.07364 4.6174 8.64939 4.26777 8.31641C3.91814 7.98343 3.47268 7.75667 2.98773 7.6648C2.50277 7.57293 2.00011 7.62008 1.54329 7.80029C1.08648 7.9805 0.69603 8.28567 0.421327 8.67721C0.146623 9.06876 1.35137e-06 9.52909 1.35137e-06 10C1.35137e-06 10.6315 0.263393 11.2371 0.732234 11.6836C1.20107 12.1301 1.83696 12.381 2.5 12.381Z" fill="white"/>
</svg>
