<svg width="20" height="20" viewBox="0 0 20 20" fill="none" xmlns="http://www.w3.org/2000/svg">
<g id="fluent:speaker-mute-20-regular">
<path id="Vector" d="M11.9971 3.00595C11.9971 2.13295 10.9571 1.67895 10.3171 2.27295L6.44507 5.86595C6.35271 5.95191 6.23125 5.99978 6.10507 5.99995H3.49707C3.09925 5.99995 2.71771 6.15798 2.43641 6.43929C2.15511 6.72059 1.99707 7.10212 1.99707 7.49995V12.4999C1.99707 12.8978 2.15511 13.2793 2.43641 13.5606C2.71771 13.8419 3.09925 13.9999 3.49707 13.9999H6.10507C6.23112 13.9998 6.35255 14.0473 6.44507 14.1329L10.3171 17.7269C10.9571 18.3199 11.9971 17.8669 11.9971 16.9939V3.00595ZM7.12507 6.59895L10.9971 3.00595V16.9939L7.12507 13.3999C6.84767 13.1428 6.48334 12.9999 6.10507 12.9999H3.49707C3.36446 12.9999 3.23729 12.9473 3.14352 12.8535C3.04975 12.7597 2.99707 12.6326 2.99707 12.4999V7.49995C2.99707 7.36734 3.04975 7.24016 3.14352 7.14639C3.23729 7.05262 3.36446 6.99995 3.49707 6.99995H6.10507C6.48334 7 6.84767 6.85612 7.12507 6.59895ZM13.1431 7.64595C13.1895 7.59938 13.2447 7.56244 13.3054 7.53723C13.3662 7.51203 13.4313 7.49905 13.4971 7.49905C13.5628 7.49905 13.628 7.51203 13.6887 7.53723C13.7494 7.56244 13.8046 7.59938 13.8511 7.64595L15.4971 9.29295L17.1431 7.64595C17.2368 7.55206 17.364 7.49926 17.4967 7.49917C17.5624 7.49912 17.6275 7.51202 17.6882 7.53711C17.7489 7.56221 17.8041 7.59902 17.8506 7.64545C17.8971 7.69187 17.9339 7.74699 17.9591 7.80767C17.9843 7.86835 17.9973 7.93339 17.9973 7.99909C17.9974 8.06479 17.9845 8.12985 17.9594 8.19057C17.9343 8.25128 17.8975 8.30646 17.8511 8.35295L16.2041 9.99995L17.8511 11.6459C17.8988 11.6921 17.9369 11.7472 17.9631 11.8082C17.9893 11.8692 18.0031 11.9349 18.0037 12.0012C18.0043 12.0676 17.9916 12.1335 17.9665 12.1949C17.9413 12.2564 17.9042 12.3122 17.8573 12.3591C17.8103 12.4061 17.7545 12.4432 17.693 12.4684C17.6316 12.4935 17.5658 12.5061 17.4994 12.5056C17.433 12.505 17.3674 12.4912 17.3064 12.465C17.2454 12.4388 17.1902 12.4007 17.1441 12.3529L15.4971 10.7069L13.8511 12.3529C13.8046 12.3994 13.7495 12.4363 13.6888 12.4615C13.6282 12.4867 13.5631 12.4997 13.4974 12.4997C13.4317 12.4998 13.3667 12.4869 13.3059 12.4618C13.2452 12.4367 13.1901 12.3999 13.1436 12.3534C13.0971 12.307 13.0602 12.2519 13.035 12.1912C13.0098 12.1305 12.9968 12.0655 12.9968 11.9998C12.9967 11.9341 13.0096 11.869 13.0347 11.8083C13.0598 11.7476 13.0966 11.6924 13.1431 11.6459L14.7901 9.99995L13.1441 8.35295C13.0503 8.25918 12.9977 8.13203 12.9977 7.99945C12.9977 7.86686 13.0503 7.73971 13.1441 7.64595H13.1431Z" fill="#00A3E0"/>
</g>
</svg>
