<svg width="24" height="24" viewBox="0 0 24 24" fill="none" xmlns="http://www.w3.org/2000/svg">
<path fill-rule="evenodd" clip-rule="evenodd" d="M11.8172 1.49103C11.8954 1.40062 11.9549 1.29552 11.9922 1.18191C12.0294 1.06827 12.0436 0.948364 12.034 0.82918C12.0245 0.709996 11.9913 0.593908 11.9364 0.48766C11.8815 0.381436 11.806 0.287164 11.7144 0.210388C11.6227 0.133612 11.5167 0.0758203 11.4024 0.0404203C11.2883 0.00502034 11.1681 -0.00731566 11.0491 0.00415634C4.866 0.496852 0 5.67144 0 11.9829C0 18.6199 5.38034 24 12.0178 24C18.3259 24 23.4983 19.1403 23.9959 12.9611C24.0073 12.8421 23.995 12.7219 23.9596 12.6078C23.9242 12.4935 23.8664 12.3875 23.7896 12.2958C23.7128 12.2042 23.6186 12.1287 23.5124 12.0738C23.4061 12.0189 23.2899 11.9857 23.1708 11.9761C23.0516 11.9666 22.9317 11.9808 22.8181 12.0181C22.7044 12.0553 22.5994 12.1148 22.5089 12.193C22.4185 12.2713 22.3445 12.3667 22.2914 12.4738C22.2382 12.5809 22.2069 12.6975 22.1992 12.8168C22.0398 14.7599 21.3278 16.6167 20.1471 18.1681C18.9663 19.7194 17.3663 20.9005 15.5358 21.5718C13.7054 22.2431 11.721 22.3766 9.81718 21.9566C7.91338 21.5365 6.16951 20.5804 4.79158 19.2012C3.41364 17.822 2.45921 16.0772 2.04098 14.1731C1.62276 12.2689 1.75822 10.2848 2.43137 8.4552C3.10452 6.62554 4.28724 5.02671 5.83982 3.84756C7.39243 2.6684 9.25008 1.95816 11.1933 1.80072C11.3127 1.79307 11.4293 1.76175 11.5364 1.70856C11.6435 1.6554 11.739 1.58144 11.8172 1.49103ZM19.4898 2.88713C19.6081 2.882 19.7262 2.90024 19.8375 2.94078C19.9488 2.98131 20.0509 3.04338 20.1382 3.12343C20.3954 3.35896 20.6429 3.60652 20.8785 3.86489C21.0301 4.04249 21.1069 4.27201 21.0926 4.5051C21.0783 4.7382 20.9743 4.95666 20.802 5.11445C20.6299 5.27226 20.4033 5.35709 20.1698 5.35108C19.9363 5.34507 19.7143 5.24869 19.5505 5.08222C19.3495 4.8629 19.1389 4.65239 18.9196 4.45132C18.8323 4.37134 18.7615 4.27492 18.7116 4.16761C18.6616 4.0603 18.6331 3.94416 18.628 3.82587C18.6229 3.70758 18.6411 3.58943 18.6816 3.47818C18.7221 3.36693 18.7843 3.26596 18.8643 3.17871C18.9443 3.0914 19.0407 3.02072 19.148 2.97069C19.2554 2.92066 19.3714 2.89227 19.4898 2.88713Z" fill="#00A3E0"/>
<path fill-rule="evenodd" clip-rule="evenodd" d="M11.9002 5.77758L11.9091 5.89998V12.1999H16.0456C16.2874 12.2 16.5202 12.2865 16.697 12.4423C16.8737 12.5979 16.9812 12.811 16.9976 13.0385C17.0142 13.2661 16.9385 13.4909 16.7859 13.6678C16.6332 13.8447 16.4151 13.9604 16.1754 13.9914L16.0456 13.9998H10.9546C10.7237 13.9998 10.5007 13.9209 10.3268 13.7776C10.153 13.6345 10.04 13.4367 10.0089 13.2211L10 13.0999V5.89998C10 5.66129 10.1005 5.43239 10.2796 5.2636C10.4586 5.09482 10.7014 5 10.9546 5C11.1852 5.00001 11.4081 5.07878 11.5819 5.22172C11.7558 5.36466 11.8689 5.56213 11.9002 5.77758Z" fill="#00A3E0"/>
<path fill-rule="evenodd" clip-rule="evenodd" d="M14.4566 0.156057C14.5591 0.07773 14.672 0.027639 14.7888 0.008631C14.9055 -0.010374 15.0239 0.002079 15.1371 0.045282C15.5724 0.21186 16.0004 0.412203 16.4187 0.645303C16.5309 0.702369 16.6335 0.789438 16.7204 0.901368C16.8074 1.0133 16.8769 1.1478 16.9249 1.29689C16.9729 1.44601 16.9983 1.60668 16.9999 1.76942C17.0013 1.93216 16.9788 2.09364 16.9334 2.2443C16.8882 2.39497 16.8211 2.53174 16.7362 2.64654C16.6513 2.76132 16.5504 2.85179 16.4393 2.91259C16.3282 2.97337 16.2092 3.00324 16.0895 3.00044C15.9697 2.99762 15.8516 2.96218 15.7421 2.8962C15.3869 2.6985 15.0235 2.52902 14.6538 2.38861C14.5406 2.34556 14.4347 2.27258 14.3422 2.17388C14.2496 2.07517 14.1724 1.95266 14.1148 1.81335C14.0572 1.67403 14.0203 1.52065 14.0063 1.36197C13.9924 1.20329 14.0016 1.04242 14.0333 0.888555C14.065 0.734658 14.1186 0.590751 14.1913 0.465054C14.264 0.339372 14.3541 0.234369 14.4566 0.156057Z" fill="#00A3E0"/>
<path fill-rule="evenodd" clip-rule="evenodd" d="M22.6904 7.0698C22.5428 7.02425 22.3844 7.00053 22.2244 7.00001C22.0644 6.99947 21.9057 7.02214 21.7575 7.06669C21.6094 7.11125 21.4745 7.17684 21.3608 7.25971C21.2473 7.34258 21.1568 7.4411 21.0949 7.54967C21.033 7.65824 21.0007 7.77471 21 7.89243C20.9992 8.01015 21.0301 8.12684 21.0907 8.2358C21.2897 8.59269 21.4606 8.95771 21.6024 9.32905C21.6431 9.44436 21.7146 9.55253 21.8129 9.64726C21.9112 9.74198 22.0341 9.82131 22.1745 9.88069C22.315 9.94007 22.47 9.97819 22.6308 9.99301C22.7915 10.0077 22.9546 9.99874 23.1105 9.9666C23.2666 9.93434 23.4122 9.87962 23.539 9.80566C23.6659 9.73158 23.7715 9.6396 23.8495 9.53518C23.9275 9.43076 23.9763 9.31596 23.9932 9.19747C24.0101 9.079 23.9949 8.95922 23.9481 8.84515C23.7814 8.4077 23.5808 7.97765 23.347 7.55716C23.2864 7.44819 23.1973 7.34907 23.0847 7.26544C22.9719 7.18182 22.8379 7.11534 22.6904 7.0698Z" fill="#00A3E0"/>
</svg>
