<svg width="34" height="34" viewBox="0 0 34 34" fill="none" xmlns="http://www.w3.org/2000/svg">
<rect width="34" height="34" rx="17" fill="#FFC846"/>
<path d="M15.5455 18.6711H12.6364C11.8648 18.6711 11.1249 18.364 10.5793 17.8174C10.0338 17.2708 9.72729 16.5294 9.72729 15.7564C9.72729 14.9834 10.0338 14.2421 10.5793 13.6955C11.1249 13.1489 11.8648 12.8418 12.6364 12.8418H15.5455V18.6711Z" stroke="#323232" stroke-width="1.5" stroke-miterlimit="10"/>
<path d="M9.72727 15.0273C9.53439 15.0273 9.3494 15.1041 9.21301 15.2408C9.07662 15.3774 9 15.5627 9 15.756C9 15.9493 9.07662 16.1346 9.21301 16.2712C9.3494 16.4079 9.53439 16.4847 9.72727 16.4847" stroke="#323232" stroke-width="1.5" stroke-miterlimit="10"/>
<path d="M20.5116 20.7317L21.5767 21.7989C21.6784 21.9007 21.808 21.9701 21.949 21.9982C22.0901 22.0263 22.2363 22.0119 22.3692 21.9567C22.502 21.9016 22.6156 21.8082 22.6955 21.6884C22.7754 21.5686 22.8181 21.4278 22.8181 21.2837V10.2289C22.8182 10.0847 22.7756 9.94385 22.6957 9.82399C22.6158 9.70414 22.5022 9.61071 22.3693 9.55553C22.2364 9.50034 22.0902 9.48588 21.9491 9.51398C21.808 9.54207 21.6784 9.61145 21.5767 9.71334L20.5116 10.7805C19.1945 12.1001 17.4081 12.8414 15.5454 12.8415V18.6707C17.4081 18.6708 19.1945 19.4121 20.5116 20.7317V20.7317Z" stroke="#323232" stroke-width="1.5" stroke-miterlimit="10"/>
<path d="M22.8182 13.5703C23.3969 13.5703 23.9518 13.8006 24.361 14.2106C24.7702 14.6205 25.0001 15.1765 25.0001 15.7563C25.0001 16.336 24.7702 16.8921 24.361 17.302C23.9518 17.712 23.3969 17.9423 22.8182 17.9423" stroke="#323232" stroke-width="1.5" stroke-miterlimit="10"/>
<path d="M14.091 18.6699C14.0853 20.3239 14.4454 21.9586 15.1455 23.4565C15.1985 23.5676 15.2225 23.6903 15.2153 23.8132C15.2081 23.9362 15.1699 24.0553 15.1043 24.1594C15.0387 24.2635 14.9479 24.3493 14.8402 24.4087C14.7326 24.4681 14.6117 24.4993 14.4888 24.4992H13.3637C13.0295 24.4992 11.1819 22.3132 11.1819 18.6699" stroke="#323232" stroke-width="1.5" stroke-miterlimit="10"/>
</svg>
