<svg width="23" height="25" viewBox="0 0 23 25" fill="none" xmlns="http://www.w3.org/2000/svg">
<path d="M11.4998 3V1" stroke="#00A3E0" stroke-width="2" stroke-linecap="round" stroke-linejoin="round"/>
<path d="M12.582 21C12.582 21.7956 12.24 22.5587 11.6313 23.1213C11.0225 23.6839 10.1968 24 9.33593 24C8.47501 24 7.64936 23.6839 7.0406 23.1213C6.43184 22.5587 6.08984 21.7956 6.08984 21" stroke="#00A3E0" stroke-width="2" stroke-miterlimit="10"/>
<path d="M17.9922 9C17.9922 6 15.0853 3 11.5 3C7.9147 3 5.00783 6 5.00783 9C5.00783 14 1 14 1 17.52C1 18.82 1.6952 20 3.10076 20H19.8992C21.3059 20 22 18.819 22 17.52C22 14 17.9922 14 17.9922 9Z" stroke="#00A3E0" stroke-width="2" stroke-linecap="round" stroke-linejoin="round"/>
</svg>
