<svg width="18" height="18" viewBox="0 0 18 18" fill="none" xmlns="http://www.w3.org/2000/svg">
<path d="M12.9076 10.4964C11.8531 11.068 11.4578 12.0847 11.0422 12.5007C10.2629 12.5007 9.21236 12.1371 7.53564 10.4644C5.85891 8.79164 5.49927 7.73709 5.49927 6.95891C6.176 6.28182 6.93127 6.14655 7.50436 5.09345C7.50364 3.38255 4.99091 1 3.37418 1C2.44073 1.32255 1 3.04509 1 4.07964C1.06831 7.47945 2.47697 10.7146 4.91927 13.0807C7.28501 15.5229 10.5198 16.9316 13.9193 17C14.9535 17 16.6764 15.5593 17 14.6255C17 13.0084 14.6164 10.4964 12.9076 10.4964Z" stroke="#C0C0C0" stroke-width="1.2" stroke-linejoin="round"/>
</svg>
