<svg width="362" height="198" viewBox="0 0 362 198" fill="none" xmlns="http://www.w3.org/2000/svg">
<rect x="8" y="9" width="346" height="180" rx="8" fill="#F2F2F7"/>
<path d="M208.458 97.5H152.542L170.969 72.9221L176.052 79.7083L185.583 67L208.458 97.5ZM179.229 83.9529L185.583 92.4167H198.292L185.583 75.4637L179.229 83.9529ZM162.708 92.4167H179.229L170.969 81.4113L162.708 92.4167Z" fill="black"/>
<path d="M137.8 123.222V116.55H139.08V123.078C139.08 126.182 137.528 127.91 134.776 127.91C132.04 127.91 130.488 126.182 130.488 123.078V116.55H131.768V123.222C131.768 125.494 132.856 126.774 134.776 126.774C136.696 126.774 137.8 125.494 137.8 123.222ZM145.907 119.59C147.971 119.59 149.395 121.206 149.395 123.718C149.395 126.262 147.971 127.91 145.891 127.91C144.691 127.91 143.731 127.35 143.139 126.39V130.95H141.971V119.75H143.187V121.014C143.795 120.102 144.739 119.59 145.907 119.59ZM145.603 126.87C147.155 126.87 148.131 125.638 148.131 123.718C148.131 121.83 147.155 120.63 145.619 120.63C144.083 120.63 143.075 121.83 143.075 123.718C143.075 125.638 144.083 126.87 145.603 126.87ZM153.723 127.83C152.539 127.83 151.819 127.158 151.819 125.478V115.75H153.035V125.558C153.035 126.47 153.275 126.71 153.835 126.758C154.043 126.774 154.235 126.758 154.411 126.742V127.734C154.123 127.814 153.867 127.83 153.723 127.83ZM159.563 127.91C157.243 127.91 155.659 126.214 155.659 123.75C155.659 121.286 157.243 119.59 159.563 119.59C161.883 119.59 163.467 121.286 163.467 123.75C163.467 126.214 161.883 127.91 159.563 127.91ZM159.563 126.886C161.147 126.886 162.171 125.638 162.171 123.75C162.171 121.862 161.147 120.614 159.563 120.614C157.979 120.614 156.939 121.862 156.939 123.75C156.939 125.638 157.979 126.886 159.563 126.886ZM168.442 119.59C170.89 119.59 171.722 120.87 171.722 123.046V127.75H170.634V126.63H170.602C170.17 127.254 169.466 127.91 167.962 127.91C166.378 127.91 165.018 127.206 165.018 125.43C165.018 123.366 166.906 122.886 168.65 122.854C169.242 122.838 169.866 122.854 170.522 122.886C170.522 121.286 169.93 120.614 168.266 120.614C167.21 120.614 166.506 120.918 165.866 121.286V120.262C166.554 119.878 167.29 119.59 168.442 119.59ZM168.058 126.918C169.466 126.918 170.49 126.118 170.538 124.742L170.522 123.814C170.058 123.782 169.546 123.766 169.018 123.766C167.274 123.782 166.298 124.31 166.298 125.43C166.298 126.454 166.986 126.918 168.058 126.918ZM179.945 121.03V115.75H181.161V127.75H179.993V126.374C179.401 127.35 178.441 127.91 177.225 127.91C175.161 127.91 173.737 126.262 173.737 123.718C173.737 121.206 175.161 119.59 177.225 119.59C178.393 119.59 179.353 120.118 179.945 121.03ZM177.513 126.87C179.049 126.87 180.057 125.638 180.057 123.718C180.057 121.83 179.049 120.63 177.513 120.63C175.961 120.63 174.985 121.83 174.985 123.718C174.985 125.638 175.977 126.87 177.513 126.87ZM188.553 127.75V116.55H189.833V127.75H188.553ZM201.55 119.59C203.326 119.59 204.334 120.854 204.334 123.158V127.75H203.118V123.142C203.118 121.51 202.51 120.614 201.326 120.614C199.95 120.614 199.134 121.782 199.134 123.91V127.75H197.998V123.142C197.998 121.51 197.342 120.614 196.158 120.614C194.83 120.614 194.094 121.686 194.03 123.654V127.75H192.814V119.75H193.982V121.206C194.414 120.15 195.198 119.59 196.382 119.59C197.614 119.59 198.462 120.198 198.878 121.366C199.374 120.198 200.318 119.59 201.55 119.59ZM209.817 119.59C212.265 119.59 213.097 120.87 213.097 123.046V127.75H212.009V126.63H211.977C211.545 127.254 210.841 127.91 209.337 127.91C207.753 127.91 206.393 127.206 206.393 125.43C206.393 123.366 208.281 122.886 210.025 122.854C210.617 122.838 211.241 122.854 211.897 122.886C211.897 121.286 211.305 120.614 209.641 120.614C208.585 120.614 207.881 120.918 207.241 121.286V120.262C207.929 119.878 208.665 119.59 209.817 119.59ZM209.433 126.918C210.841 126.918 211.865 126.118 211.913 124.742L211.897 123.814C211.433 123.782 210.921 123.766 210.393 123.766C208.649 123.782 207.673 124.31 207.673 125.43C207.673 126.454 208.361 126.918 209.433 126.918ZM221.32 121.03V119.75H222.52V127.11C222.52 129.638 221.192 131.302 218.504 131.302C217.56 131.302 216.552 131.094 215.688 130.71V129.574C216.408 129.878 217.368 130.15 218.344 130.15C219.896 130.15 221.32 129.43 221.32 127.366V126.454C220.728 127.382 219.784 127.91 218.6 127.91C216.536 127.91 215.112 126.262 215.112 123.718C215.112 121.206 216.536 119.59 218.6 119.59C219.768 119.59 220.728 120.118 221.32 121.03ZM218.888 126.87C220.424 126.87 221.432 125.638 221.432 123.718C221.432 121.83 220.424 120.63 218.888 120.63C217.336 120.63 216.36 121.83 216.36 123.718C216.36 125.638 217.352 126.87 218.888 126.87ZM228.754 127.91C226.049 127.91 224.706 126.022 224.706 123.622C224.706 121.238 225.986 119.606 228.354 119.606C230.818 119.606 231.858 121.398 231.842 123.974H225.986C225.986 125.718 227.074 126.87 228.802 126.87C229.554 126.87 230.466 126.646 231.41 126.182V127.27C230.578 127.702 229.65 127.91 228.754 127.91ZM225.986 122.998H230.562C230.514 121.574 229.698 120.63 228.322 120.63C226.962 120.63 226.146 121.542 225.986 122.998Z" fill="#808080"/>
<rect x="0.5" y="0.5" width="361" height="197" rx="7.5" stroke="#C0C0C0" stroke-dasharray="8 8"/>
</svg>
