<svg width="20" height="20" viewBox="0 0 20 20" fill="none" xmlns="http://www.w3.org/2000/svg">
<path d="M19 1.91113V6.4695H14.4353" stroke="#5F6369" stroke-width="1.5" stroke-miterlimit="10" stroke-linecap="round"/>
<path d="M18.087 5.91555C17.6523 5.0864 17.0923 4.32905 16.4268 3.6701C14.6982 1.95962 12.3631 1 9.92959 1C7.49607 1 5.16099 1.95962 3.43237 3.6701" stroke="#5F6369" stroke-width="1.5" stroke-linecap="round" stroke-linejoin="round"/>
<path d="M9.87047 4.64648C9.62834 4.64648 9.39613 4.74254 9.22492 4.91351C9.0537 5.08448 8.95752 5.31637 8.95752 5.55816V10.4944L12.4203 13.9519C12.5925 14.118 12.8231 14.2099 13.0625 14.2078C13.3019 14.2057 13.5308 14.1099 13.7001 13.9408C13.8694 13.7718 13.9654 13.5431 13.9675 13.3041C13.9696 13.0651 13.8775 12.8348 13.7112 12.6628L10.7834 9.73864V5.55816C10.7834 5.31637 10.6872 5.08448 10.516 4.91351C10.3448 4.74254 10.1126 4.64648 9.87047 4.64648Z" fill="#5F6369"/>
<path d="M16.3068 17.6376C16.0313 17.6334 15.7679 17.5242 15.5705 17.3322C15.4744 17.2366 15.3984 17.1229 15.3468 16.9977C15.2951 16.8725 15.2689 16.7383 15.2697 16.6029C15.2685 16.535 15.2755 16.4672 15.2907 16.401C15.302 16.3337 15.3213 16.2681 15.3482 16.2054C15.372 16.1436 15.4026 16.0845 15.4395 16.0294C15.4784 15.9725 15.5218 15.9187 15.5691 15.8685C15.7686 15.6837 16.0307 15.5811 16.3029 15.5811C16.575 15.5811 16.8371 15.6837 17.0367 15.8685C17.2302 16.0648 17.3398 16.3284 17.3425 16.6038C17.3367 16.8768 17.2274 17.1375 17.0367 17.3331C16.9877 17.3817 16.9338 17.425 16.876 17.4626C16.8217 17.5012 16.7622 17.5319 16.6993 17.5538C16.6376 17.5803 16.5736 17.6012 16.5081 17.6162C16.4411 17.6282 16.3734 17.6351 16.3054 17.6367" fill="#5F6369"/>
<path d="M0.770798 9.25731C0.518249 9.18836 0.301401 9.0261 0.164208 8.80342C0.0270143 8.58073 -0.02026 8.31429 0.0319671 8.05809C0.0841941 7.80189 0.232015 7.57511 0.445468 7.42371C0.65892 7.27231 0.922033 7.20761 1.18148 7.24274C1.44092 7.27787 1.67728 7.4102 1.84265 7.61289C2.00803 7.81559 2.09004 8.07349 2.07206 8.33433C2.05408 8.59516 1.93746 8.83942 1.74584 9.01758C1.55422 9.19574 1.30193 9.29448 1.04012 9.29378C0.949065 9.29446 0.858381 9.28218 0.770798 9.25731Z" fill="#5F6369"/>
<path d="M0.0349006 12.785C-0.0178765 12.587 -0.0106619 12.3778 0.0556322 12.1838C0.121926 11.9899 0.244322 11.8199 0.407342 11.6955C0.570362 11.571 0.766683 11.4976 0.97148 11.4845C1.17628 11.4715 1.38035 11.5194 1.55789 11.6221C1.73543 11.7249 1.87847 11.8779 1.96892 12.0619C2.05936 12.2458 2.09315 12.4524 2.06602 12.6556C2.03888 12.8587 1.95203 13.0492 1.81645 13.2031C1.68088 13.3569 1.50267 13.4671 1.30435 13.5198C1.21623 13.542 1.12589 13.5542 1.03503 13.5563C0.806568 13.5556 0.584725 13.4796 0.4039 13.3401C0.223076 13.2007 0.0933726 13.0056 0.0349006 12.785Z" fill="#5F6369"/>
<path d="M2.66868 17.337V17.332C2.48829 17.1359 2.39068 16.8778 2.39622 16.6115C2.40176 16.3453 2.51001 16.0914 2.6984 15.903C2.8868 15.7145 3.14078 15.6059 3.40739 15.5999C3.674 15.5938 3.93265 15.6908 4.12939 15.8706C4.32387 16.0652 4.4331 16.3289 4.4331 16.6038C4.4331 16.8787 4.32387 17.1424 4.12939 17.337C3.9348 17.5288 3.67241 17.6363 3.39903 17.6363C3.12566 17.6363 2.86327 17.5288 2.66868 17.337Z" fill="#5F6369"/>
<path d="M7.22295 19.9624C6.9704 19.8934 6.75355 19.7312 6.61636 19.5085C6.47916 19.2858 6.43189 19.0194 6.48412 18.7632C6.53634 18.507 6.68416 18.2802 6.89762 18.1288C7.11107 17.9774 7.37418 17.9127 7.63363 17.9478C7.89307 17.983 8.12943 18.1153 8.2948 18.318C8.46018 18.5207 8.54218 18.7786 8.52421 19.0394C8.50623 19.3002 8.38961 19.5445 8.19799 19.7227C8.00637 19.9008 7.75408 19.9996 7.49227 19.9989C7.40119 19.9999 7.31046 19.9876 7.22295 19.9624Z" fill="#5F6369"/>
<path d="M11.2098 19.2337C11.1574 19.0359 11.1648 18.827 11.2313 18.6335C11.2977 18.4399 11.4201 18.2704 11.5831 18.1463C11.746 18.0223 11.9422 17.9493 12.1467 17.9366C12.3512 17.9239 12.5548 17.972 12.7319 18.0749C12.909 18.1778 13.0516 18.3309 13.1416 18.5147C13.2315 18.6985 13.2649 18.9049 13.2374 19.1076C13.2099 19.3104 13.1228 19.5004 12.9871 19.6538C12.8515 19.8071 12.6733 19.9168 12.4752 19.969C12.3886 19.9897 12.2999 20.0003 12.2109 20.0004C11.9825 20.0014 11.7603 19.9266 11.5792 19.7879C11.398 19.6491 11.2681 19.4542 11.2098 19.2337Z" fill="#5F6369"/>
</svg>
