<svg width="24" height="24" viewBox="0 0 24 24" fill="none" xmlns="http://www.w3.org/2000/svg">
<path fill-rule="evenodd" clip-rule="evenodd" d="M9.52509 6.83995C9.89455 7.15409 10.1211 7.60354 10.1534 8.08641C10.1857 8.56929 10.021 9.04473 9.69669 9.40495C9.3352 9.72813 8.85811 9.89224 8.37353 9.86006C7.88892 9.82787 7.43791 9.60211 7.12267 9.23395L1.45984 3.76201C0.480791 5.19764 -0.0287031 6.89993 0.00124877 8.63544C0.0200647 13.3969 3.8889 17.2521 8.66709 17.2708C9.41834 17.2749 10.1673 17.1888 10.8979 17.0143L16.6465 22.7428C18.3287 24.4191 21.0561 24.4191 22.7383 22.7428C24.4205 21.0665 24.4205 18.3487 22.7383 16.6723L16.9897 10.9439C17.1648 10.2159 17.2512 9.46955 17.2471 8.72095C17.2932 6.42389 16.4097 4.205 14.7956 2.56442C13.1815 0.923805 10.9727 -0.000407666 8.66709 4.83321e-05C7.02164 -0.00551965 5.41069 0.470111 4.03386 1.36802L9.52509 6.83995ZM15.0165 11.3703L15.7029 12.0543L21.4515 17.7828C21.9464 18.2496 22.2258 18.8992 22.2238 19.5783C22.2433 20.2607 21.9609 20.9172 21.4515 21.3737C20.9819 21.8651 20.3307 22.1432 19.6497 22.1432C18.9688 22.1432 18.3176 21.8651 17.8479 21.3737L12.0993 15.6453L11.4129 14.9613L10.4691 15.2178C9.88347 15.3867 9.27696 15.473 8.66729 15.4743C6.84409 15.4692 5.09282 14.7651 3.77666 13.5078C2.43073 12.2458 1.68278 10.4757 1.71746 8.63438C1.71865 7.99875 1.80521 7.36614 1.97486 6.7534L5.75008 10.5154C6.39447 11.2141 7.29345 11.6258 8.24523 11.6579C9.19702 11.6901 10.1219 11.34 10.8123 10.6863C11.4683 9.99837 11.8196 9.07674 11.7873 8.12829C11.755 7.17984 11.3419 6.28403 10.6407 5.64192L6.86548 1.87996C7.42039 1.70507 7.9995 1.61852 8.58149 1.62346C10.4047 1.62851 12.156 2.33267 13.4721 3.58993C14.7895 4.94139 15.5279 6.75032 15.5313 8.63438C15.5301 9.24191 15.4434 9.84628 15.2739 10.4298L15.0165 11.3703Z" fill="#00A3E0"/>
</svg>
