<svg width="20" height="20" viewBox="0 0 20 20" fill="none" xmlns="http://www.w3.org/2000/svg">
<path fill-rule="evenodd" clip-rule="evenodd" d="M1.57373 18.4254V12.1295H9.44368V18.4254H1.57373ZM0 12.1301V18.4261C0 19.2954 0.704701 20.0001 1.57399 20.0001H9.44395C10.3132 20.0001 11.0179 19.2954 11.0179 18.4261V12.1301C11.0179 11.2609 10.3132 10.5562 9.44395 10.5562H1.57399C0.704701 10.5562 0 11.2609 0 12.1301Z" fill="#ffffff"/>
<path fill-rule="evenodd" clip-rule="evenodd" d="M10.5557 5.50915V1.5742H18.4256V5.50915H10.5557ZM8.98193 1.57398V5.50894C8.98193 6.37823 9.68663 7.08293 10.5559 7.08293H18.4259C19.2952 7.08293 19.9999 6.37823 19.9999 5.50894V1.57398C19.9999 0.704694 19.2952 0 18.4259 0H10.5559C9.68663 0 8.98193 0.704694 8.98193 1.57398Z" fill="#ffffff"/>
<path fill-rule="evenodd" clip-rule="evenodd" d="M14.4912 16.0653V12.1304H18.4262V16.0653H14.4912ZM12.917 12.1301V16.0651C12.917 16.9344 13.6217 17.6391 14.491 17.6391H18.426C19.2953 17.6391 19.9999 16.9344 19.9999 16.0651V12.1301C19.9999 11.2608 19.2952 10.5562 18.426 10.5562H14.491C13.6217 10.5562 12.917 11.2608 12.917 12.1301Z" fill="#ffffff"/>
<path fill-rule="evenodd" clip-rule="evenodd" d="M1.57422 5.50918V1.57422H5.5092V5.50918H1.57422ZM0 1.57398V5.50894C0 6.37823 0.704702 7.08293 1.57399 7.08293H5.50897C6.37826 7.08293 7.08296 6.37823 7.08296 5.50894V1.57398C7.08296 0.704694 6.37826 0 5.50897 0H1.57399C0.704702 0 0 0.704694 0 1.57398Z" fill="#ffffff"/>
</svg>
