<svg width="20" height="20" viewBox="0 0 20 20" fill="none" xmlns="http://www.w3.org/2000/svg">
<path fill-rule="evenodd" clip-rule="evenodd" d="M2.30762 4.29957L10.0001 7.39067L17.6926 4.29957L10.2326 1.30142C10.0834 1.24132 9.91685 1.24132 9.76762 1.30142L2.30762 4.29957ZM10.625 18.444L18.75 15.1783V5.22803L10.625 8.49371V18.444Z" fill="#00A3E0"/>
<path fill-rule="evenodd" clip-rule="evenodd" d="M1.25 5.22812V15.1797L9.375 18.4454V8.49255L1.25 5.22812ZM19.6075 3.71692C19.8445 3.81238 19.9999 4.04312 20 4.29972V15.1795C19.9997 15.693 19.6883 16.1546 19.2137 16.3451L10.2325 19.9549C10.0833 20.015 9.91674 20.015 9.7675 19.9549L0.7875 16.3451C0.31244 16.155 0.00052 15.6933 0 15.1795V4.29972C0 4.04327 0.15536 3.81247 0.39236 3.71697L9.30374 0.134715C9.7507 -0.044905 10.2493 -0.044905 10.6962 0.134715L19.6075 3.71692Z" fill="#00A3E0"/>
</svg>
