<svg width="25" height="25" viewBox="0 0 25 25" fill="none" xmlns="http://www.w3.org/2000/svg">
<g id="resource-pool-line">
<path id="Exclude" fill-rule="evenodd" clip-rule="evenodd" d="M12.5 25C19.4035 25 25 19.4035 25 12.5C25 5.59645 19.4035 0 12.5 0C5.59645 0 0 5.59645 0 12.5C0 19.4035 5.59645 25 12.5 25ZM23.3984 11.719H12.1016L4.92187 20.3674C2.78049 18.3098 1.56783 15.4699 1.5625 12.5002C1.63334 6.6636 6.27483 1.91112 12.1081 1.70243C17.9414 1.49373 22.9107 5.90235 23.3984 11.719Z" fill="#00A3E0"/>
<path id="Path 91" fill-rule="evenodd" clip-rule="evenodd" d="M12.8359 13.2812H23.3984C22.9889 18.9998 18.2332 23.4317 12.5 23.4375C10.2099 23.4363 7.97879 22.7118 6.125 21.3672L12.8359 13.2812V13.2812Z" fill="#00A3E0"/>
</g>
</svg>
