<svg width="16" height="16" viewBox="0 0 16 16" fill="none" xmlns="http://www.w3.org/2000/svg">
<g id="Circle Minus Large">
<path id="Ellipse 42 (Stroke)" fill-rule="evenodd" clip-rule="evenodd" d="M8 1.33333C4.3181 1.33333 1.33333 4.3181 1.33333 8C1.33333 11.6819 4.3181 14.6667 8 14.6667C11.6819 14.6667 14.6667 11.6819 14.6667 8C14.6667 4.3181 11.6819 1.33333 8 1.33333ZM0 8C0 3.58172 3.58172 0 8 0C12.4183 0 16 3.58172 16 8C16 12.4183 12.4183 16 8 16C3.58172 16 0 12.4183 0 8Z" fill="#5F6369"/>
<path id="Line 110 (Stroke)" fill-rule="evenodd" clip-rule="evenodd" d="M4.3335 7.99967C4.3335 7.63148 4.63197 7.33301 5.00016 7.33301H11.0002C11.3684 7.33301 11.6668 7.63148 11.6668 7.99967C11.6668 8.36786 11.3684 8.66634 11.0002 8.66634H5.00016C4.63197 8.66634 4.3335 8.36786 4.3335 7.99967Z" fill="#5F6369"/>
</g>
</svg>
