<svg width="17" height="19" viewBox="0 0 17 19" fill="none" xmlns="http://www.w3.org/2000/svg">
<path fill-rule="evenodd" clip-rule="evenodd" d="M11.2086 7.91211C14.1217 7.91211 16.4832 10.2736 16.4832 13.1867C16.4832 16.0997 14.1217 18.4612 11.2086 18.4612C8.29559 18.4612 5.93408 16.0997 5.93408 13.1867C5.93408 10.2736 8.29559 7.91211 11.2086 7.91211V7.91211ZM11.2086 17.1423C13.3934 17.1423 15.1645 15.3712 15.1645 13.1864C15.1645 11.0016 13.3934 9.23047 11.2086 9.23047C9.0238 9.23047 7.25269 11.0016 7.25269 13.1864C7.25269 15.3712 9.0238 17.1423 11.2086 17.1423V17.1423Z" fill="white"/>
<path fill-rule="evenodd" clip-rule="evenodd" d="M10.5488 13.4564V10.5488H11.8675V12.9158L13.1861 14.2344L12.2565 15.1641L10.5488 13.4564V13.4564Z" fill="white"/>
<path fill-rule="evenodd" clip-rule="evenodd" d="M14.505 1.31864H11.8677V0H10.5491V1.31864H5.27455V0H3.95592V1.31864H1.31863C0.590381 1.31864 0 1.90902 0 2.63727V15.8237C0 16.5519 0.590381 17.1423 1.31863 17.1423H3.95592V15.8237H1.31863V2.63727H3.95592V3.95591H5.27455V2.63727H10.5491V3.95591H11.8677V2.63727H14.505V6.59319H15.8237V2.63727C15.8237 1.90902 15.2333 1.31864 14.505 1.31864Z" fill="white"/>
</svg>
