<svg width="41" height="23" viewBox="0 0 41 23" fill="none" xmlns="http://www.w3.org/2000/svg">
<path fill-rule="evenodd" clip-rule="evenodd" d="M9.76255 8.91998C9.94727 9.07704 10.0606 9.30177 10.0767 9.54321C10.0929 9.78465 10.0105 10.0224 9.84834 10.2025C9.6676 10.3641 9.42905 10.4461 9.18676 10.43C8.94446 10.4139 8.71896 10.3011 8.56134 10.117L5.72992 7.38101C5.2404 8.09882 4.98565 8.94997 5.00062 9.81772C5.01003 12.1984 6.94445 14.1261 9.33355 14.1354C9.70917 14.1375 10.0837 14.0944 10.4489 14.0072L13.3233 16.8714C14.1644 17.7095 15.5281 17.7095 16.3692 16.8714C17.2103 16.0332 17.2103 14.6743 16.3692 13.8362L13.4949 10.972C13.5824 10.608 13.6256 10.2348 13.6236 9.86047C13.6466 8.71195 13.2048 7.6025 12.3978 6.78221C11.5907 5.9619 10.4863 5.4998 9.33355 5.50002C8.51082 5.49724 7.70534 5.73506 7.01693 6.18401L9.76255 8.91998ZM12.5081 11.186L12.8513 11.528L15.7256 14.3923C15.973 14.6257 16.1127 14.9505 16.1117 15.29C16.1215 15.6312 15.9803 15.9595 15.7256 16.1877C15.4908 16.4334 15.1652 16.5725 14.8247 16.5725C14.4842 16.5725 14.1586 16.4334 13.9238 16.1877L11.0495 13.3235L10.7063 12.9815L10.2344 13.1098C9.94159 13.1942 9.63833 13.2374 9.3335 13.238C8.4219 13.2355 7.54626 12.8834 6.88819 12.2548C6.21522 11.6238 5.84124 10.7387 5.85858 9.81806C5.85918 9.50025 5.90246 9.18394 5.98728 8.87757L7.8749 10.7585C8.19709 11.1079 8.64658 11.3138 9.12247 11.3298C9.59836 11.3459 10.0608 11.1709 10.406 10.844C10.734 10.5001 10.9096 10.0392 10.8935 9.56502C10.8774 9.09079 10.6708 8.64288 10.3202 8.32183L8.4326 6.44085C8.71005 6.35341 8.99961 6.31013 9.2906 6.3126C10.2022 6.31513 11.0778 6.66721 11.7359 7.29583C12.3946 7.97157 12.7638 8.87603 12.7655 9.81806C12.7649 10.1218 12.7216 10.424 12.6368 10.7158L12.5081 11.186Z" fill="#323232"/>
<path fill-rule="evenodd" clip-rule="evenodd" d="M28.9086 5.74551C28.9477 5.70031 28.9775 5.64776 28.9961 5.59095C29.0147 5.53413 29.0218 5.47418 29.017 5.41459C29.0122 5.355 28.9957 5.29695 28.9682 5.24383C28.9407 5.19072 28.903 5.14358 28.8572 5.10519C28.8114 5.06681 28.7584 5.03791 28.7012 5.02021C28.6441 5.00251 28.5841 4.99634 28.5246 5.00208C25.433 5.24843 23 7.83572 23 10.9914C23 14.31 25.6902 17 29.0089 17C32.1629 17 34.7492 14.5701 34.9979 11.4805C35.0036 11.421 34.9975 11.361 34.9798 11.3039C34.9621 11.2467 34.9332 11.1937 34.8948 11.1479C34.8564 11.1021 34.8093 11.0644 34.7562 11.0369C34.7031 11.0095 34.645 10.9929 34.5854 10.9881C34.5258 10.9833 34.4658 10.9904 34.4091 11.009C34.3522 11.0277 34.2997 11.0574 34.2545 11.0965C34.2093 11.1356 34.1723 11.1833 34.1457 11.2369C34.1191 11.2905 34.1035 11.3488 34.0996 11.4084C34.0199 12.38 33.6639 13.3083 33.0735 14.084C32.4832 14.8597 31.6831 15.4503 30.7679 15.7859C29.8527 16.1216 28.8605 16.1883 27.9086 15.9783C26.9567 15.7682 26.0848 15.2902 25.3958 14.6006C24.7068 13.911 24.2296 13.0386 24.0205 12.0866C23.8114 11.1344 23.8791 10.1424 24.2157 9.2276C24.5523 8.31277 25.1436 7.51335 25.9199 6.92378C26.6962 6.3342 27.625 5.97908 28.5967 5.90036C28.6563 5.89653 28.7146 5.88087 28.7682 5.85428C28.8218 5.8277 28.8695 5.79072 28.9086 5.74551ZM32.745 6.44417C32.8041 6.44161 32.8632 6.45072 32.9188 6.471C32.9745 6.49126 33.0256 6.5223 33.0692 6.56232C33.1978 6.68009 33.3215 6.80386 33.4393 6.93305C33.5152 7.02185 33.5536 7.13661 33.5464 7.25315C33.5393 7.3697 33.4872 7.47893 33.4011 7.55783C33.3151 7.63674 33.2017 7.67915 33.085 7.67615C32.9682 7.67314 32.8572 7.62495 32.7753 7.54172C32.6748 7.43206 32.5695 7.3268 32.4599 7.22627C32.4163 7.18627 32.3809 7.13807 32.3559 7.08441C32.3309 7.03075 32.3166 6.97269 32.3141 6.91354C32.3115 6.8544 32.3206 6.79532 32.3409 6.73969C32.3611 6.68407 32.3922 6.63359 32.4322 6.58996C32.4723 6.54631 32.5204 6.51096 32.5741 6.48595C32.6278 6.46094 32.6858 6.44674 32.745 6.44417Z" fill="#323232"/>
<path fill-rule="evenodd" clip-rule="evenodd" d="M29.0859 7.432L29.091 7.5V11H31.4547C31.5929 11.0001 31.7259 11.0481 31.8269 11.1347C31.9279 11.2211 31.9893 11.3395 31.9987 11.4659C32.0082 11.5923 31.9649 11.7173 31.8777 11.8155C31.7905 11.9138 31.6658 11.9781 31.5289 11.9953L31.4547 12H28.5455C28.4135 12 28.2861 11.9561 28.1868 11.8765C28.0874 11.797 28.0228 11.6871 28.0051 11.5673L28 11.5V7.5C28 7.36739 28.0575 7.24022 28.1598 7.14645C28.262 7.05268 28.4008 7 28.5455 7C28.6773 7.00001 28.8046 7.04377 28.904 7.12318C29.0033 7.20259 29.068 7.3123 29.0859 7.432Z" fill="#323232"/>
<path fill-rule="evenodd" clip-rule="evenodd" d="M30.3044 5.10404C30.3727 5.05182 30.448 5.01843 30.5259 5.00575C30.6037 4.99308 30.6826 5.00139 30.7581 5.03019C31.0483 5.14124 31.3336 5.2748 31.6125 5.4302C31.6873 5.46825 31.7557 5.52629 31.8136 5.60091C31.8716 5.67553 31.9179 5.7652 31.95 5.8646C31.9819 5.96401 31.9989 6.07112 31.9999 6.17961C32.0009 6.2881 31.9858 6.39576 31.9556 6.4962C31.9255 6.59664 31.8808 6.68783 31.8241 6.76436C31.7675 6.84088 31.7002 6.9012 31.6262 6.94173C31.5521 6.98225 31.4728 7.00216 31.393 7.00029C31.3131 6.99841 31.2344 6.97479 31.1614 6.9308C30.9246 6.799 30.6823 6.68601 30.4359 6.59241C30.3604 6.5637 30.2898 6.51505 30.2282 6.44926C30.1664 6.38345 30.115 6.30177 30.0765 6.2089C30.0381 6.11602 30.0135 6.01377 30.0042 5.90798C29.9949 5.80219 30.001 5.69495 30.0222 5.59237C30.0434 5.48977 30.0791 5.39383 30.1275 5.31004C30.176 5.22625 30.236 5.15625 30.3044 5.10404Z" fill="#323232"/>
<path fill-rule="evenodd" clip-rule="evenodd" d="M34.127 8.04653C34.0285 8.01617 33.9229 8.00036 33.8162 8.00001C33.7096 7.99965 33.6038 8.01476 33.505 8.04446C33.4062 8.07417 33.3163 8.11789 33.2405 8.17314C33.1648 8.22839 33.1045 8.29407 33.0633 8.36645C33.022 8.43882 33.0004 8.51647 33 8.59495C32.9995 8.67343 33.02 8.75122 33.0604 8.82387C33.1931 9.06179 33.307 9.30514 33.4016 9.5527C33.4288 9.62957 33.4764 9.70169 33.5419 9.76484C33.6075 9.82799 33.6894 9.88088 33.783 9.92046C33.8767 9.96005 33.98 9.98546 34.0872 9.99534C34.1943 10.0051 34.303 9.99916 34.407 9.97773C34.5111 9.95623 34.6081 9.91975 34.6927 9.87044C34.7773 9.82106 34.8477 9.75973 34.8997 9.69012C34.9516 9.62051 34.9842 9.54397 34.9955 9.46498C35.0068 9.386 34.9966 9.30615 34.9654 9.2301C34.8543 8.93846 34.7205 8.65177 34.5647 8.37144C34.5243 8.29879 34.4648 8.23271 34.3898 8.17696C34.3146 8.12121 34.2253 8.07689 34.127 8.04653Z" fill="#323232"/>
<rect x="0.5" y="0.5" width="40" height="22" rx="11" stroke="#323232"/>
</svg>
