<svg width="24" height="18" viewBox="0 0 24 18" fill="none" xmlns="http://www.w3.org/2000/svg">
<g id="Show">
<g id="Group 179">
<path id="Path 331" d="M11.9998 18C5.5865 18 0.358996 9.8325 0.139887 9.48465C0.0485396 9.33992 0 9.17176 0 9C0 8.82824 0.0485396 8.66008 0.139887 8.51535C0.358996 8.1675 5.5865 0 11.9998 0C18.4131 0 23.6406 8.1675 23.8601 8.51535C23.9515 8.66008 24 8.82824 24 9C24 9.17176 23.9515 9.33992 23.8601 9.48465C23.6406 9.8325 18.4131 18 11.9998 18ZM1.96609 9C3.15053 10.6884 7.37138 16.2 11.9998 16.2C16.6282 16.2 20.8495 10.6884 22.0335 9C20.8495 7.3116 16.6282 1.8 11.9998 1.8C7.37138 1.8 3.15053 7.3116 1.96609 9Z" fill="#323232"/>
<path id="Path 332" d="M16.8885 8.9998C16.8885 9.97882 16.6018 10.9359 16.0646 11.7499C15.5274 12.5639 14.7639 13.1984 13.8706 13.573C12.9772 13.9477 11.9943 14.0457 11.0459 13.8547C10.0976 13.6637 9.22647 13.1923 8.54275 12.5C7.85903 11.8077 7.39342 10.9257 7.20478 9.9655C7.01614 9.0053 7.11296 8.01002 7.48298 7.10552C7.85301 6.20103 8.47962 5.42794 9.28359 4.88403C10.0876 4.34012 11.0328 4.0498 11.9997 4.0498C13.2963 4.0498 14.5398 4.57132 15.4566 5.49963C16.3735 6.42793 16.8885 7.68698 16.8885 8.9998" fill="#323232"/>
<path id="Path 333" d="M15.1109 8.09961C15.1109 8.54462 14.9806 8.97963 14.7364 9.34964C14.4922 9.71965 14.1452 10.008 13.7391 10.1783C13.3331 10.3486 12.8862 10.3932 12.4552 10.3064C12.0241 10.2196 11.6282 10.0053 11.3174 9.6906C11.0066 9.37593 10.7949 8.97502 10.7092 8.53856C10.6235 8.10211 10.6675 7.6497 10.8357 7.23857C11.0039 6.82744 11.2887 6.47604 11.6541 6.2288C12.0196 5.98157 12.4492 5.84961 12.8887 5.84961C13.4781 5.84961 14.0433 6.08666 14.46 6.50862C14.8768 6.93058 15.1109 7.50287 15.1109 8.09961" fill="white"/>
</g>
</g>
</svg>
