<svg width="17" height="17" viewBox="0 0 17 17" fill="none" xmlns="http://www.w3.org/2000/svg">
<path d="M2.47917 2.125H0.708333C0.520472 2.125 0.340304 2.19963 0.207466 2.33247C0.0746277 2.4653 0 2.64547 0 2.83333C0 3.02119 0.0746277 3.20136 0.207466 3.3342C0.340304 3.46704 0.520472 3.54167 0.708333 3.54167H2.47917V2.125Z" fill="white"/>
<path d="M4.25033 1.41667C4.53052 1.41667 4.80441 1.49975 5.03738 1.65542C5.27035 1.81108 5.45193 2.03234 5.55916 2.2912C5.66638 2.55006 5.69444 2.8349 5.63977 3.10971C5.58511 3.38452 5.45019 3.63694 5.25206 3.83507C5.05394 4.03319 4.80151 4.16812 4.52671 4.22278C4.2519 4.27744 3.96705 4.24939 3.70819 4.14216C3.44933 4.03494 3.22808 3.85336 3.07241 3.62039C2.91675 3.38742 2.83366 3.11352 2.83366 2.83333C2.83366 2.45761 2.98292 2.09728 3.24859 1.8316C3.51427 1.56592 3.8746 1.41667 4.25033 1.41667ZM4.25033 0C3.68995 0 3.14215 0.166172 2.67621 0.477503C2.21027 0.788833 1.84712 1.23134 1.63267 1.74906C1.41822 2.26679 1.36211 2.83648 1.47144 3.38609C1.58076 3.9357 1.85061 4.44055 2.24686 4.8368C2.64311 5.23305 3.14796 5.5029 3.69757 5.61222C4.24718 5.72155 4.81687 5.66544 5.3346 5.45099C5.85232 5.23654 6.29483 4.87339 6.60616 4.40745C6.91749 3.94151 7.08366 3.39371 7.08366 2.83333C7.08366 2.08189 6.78515 1.36122 6.2538 0.829864C5.72244 0.298511 5.00177 0 4.25033 0Z" fill="white"/>
<path d="M2.47917 13.4583H0.708333C0.520472 13.4583 0.340304 13.5329 0.207466 13.6657C0.0746277 13.7986 0 13.9787 0 14.1666C0 14.3544 0.0746277 14.5346 0.207466 14.6675C0.340304 14.8003 0.520472 14.8749 0.708333 14.8749H2.47917V13.4583Z" fill="white"/>
<path d="M4.25033 12.7499C4.53052 12.7499 4.80441 12.833 5.03738 12.9887C5.27035 13.1443 5.45193 13.3656 5.55916 13.6244C5.66638 13.8833 5.69444 14.1682 5.63977 14.443C5.58511 14.7178 5.45019 14.9702 5.25206 15.1683C5.05394 15.3664 4.80151 15.5014 4.52671 15.556C4.2519 15.6107 3.96705 15.5826 3.70819 15.4754C3.44933 15.3682 3.22808 15.1866 3.07241 14.9536C2.91675 14.7207 2.83366 14.4468 2.83366 14.1666C2.83366 13.7909 2.98292 13.4305 3.24859 13.1649C3.51427 12.8992 3.8746 12.7499 4.25033 12.7499ZM4.25033 11.3333C3.68995 11.3333 3.14215 11.4994 2.67621 11.8108C2.21027 12.1221 1.84712 12.5646 1.63267 13.0823C1.41822 13.6 1.36211 14.1697 1.47144 14.7193C1.58076 15.269 1.85061 15.7738 2.24686 16.1701C2.64311 16.5663 3.14796 16.8362 3.69757 16.9455C4.24718 17.0548 4.81687 16.9987 5.3346 16.7842C5.85232 16.5698 6.29483 16.2066 6.60616 15.7407C6.91749 15.2748 7.08366 14.727 7.08366 14.1666C7.08366 13.4151 6.78515 12.6945 6.2538 12.1631C5.72244 11.6318 5.00177 11.3333 4.25033 11.3333Z" fill="white"/>
<path d="M14.5205 7.79175H16.2913C16.4792 7.79175 16.6594 7.86638 16.7922 7.99921C16.925 8.13205 16.9997 8.31222 16.9997 8.50008C16.9997 8.68794 16.925 8.86811 16.7922 9.00095C16.6594 9.13379 16.4792 9.20842 16.2913 9.20842H14.5205V7.79175Z" fill="white"/>
<path d="M12.7503 7.08341C13.0305 7.08341 13.3044 7.1665 13.5374 7.32217C13.7704 7.47783 13.9519 7.69908 14.0592 7.95795C14.1664 8.21681 14.1944 8.50165 14.1398 8.77646C14.0851 9.05127 13.9502 9.30369 13.7521 9.50182C13.5539 9.69994 13.3015 9.83486 13.0267 9.88953C12.7519 9.94419 12.4671 9.91613 12.2082 9.80891C11.9493 9.70169 11.7281 9.52011 11.5724 9.28714C11.4167 9.05417 11.3337 8.78027 11.3337 8.50008C11.3337 8.12436 11.4829 7.76402 11.7486 7.49835C12.0143 7.23267 12.3746 7.08341 12.7503 7.08341ZM12.7503 5.66675C12.1899 5.66675 11.6422 5.83292 11.1762 6.14425C10.7103 6.45558 10.3471 6.89809 10.1327 7.41581C9.91822 7.93354 9.86211 8.50322 9.97144 9.05284C10.0808 9.60245 10.3506 10.1073 10.7469 10.5036C11.1431 10.8998 11.648 11.1696 12.1976 11.279C12.7472 11.3883 13.3169 11.3322 13.8346 11.1177C14.3523 10.9033 14.7948 10.5401 15.1062 10.0742C15.4175 9.60826 15.5837 9.06046 15.5837 8.50008C15.5837 7.74863 15.2851 7.02797 14.7538 6.49661C14.2224 5.96526 13.5018 5.66675 12.7503 5.66675Z" fill="white"/>
<path d="M16.2913 2.125H9.20801V3.54167H16.2913V2.125Z" fill="white"/>
<path d="M16.2913 13.4583H9.20801V14.8749H16.2913V13.4583Z" fill="white"/>
<path d="M16.9997 2.83333C16.9997 2.97343 16.9581 3.11038 16.8803 3.22686C16.8025 3.34335 16.6918 3.43414 16.5624 3.48775C16.433 3.54136 16.2906 3.55539 16.1532 3.52806C16.0157 3.50073 15.8895 3.43326 15.7905 3.3342C15.6914 3.23514 15.6239 3.10893 15.5966 2.97152C15.5693 2.83412 15.5833 2.6917 15.6369 2.56227C15.6905 2.43284 15.7813 2.32221 15.8978 2.24438C16.0143 2.16654 16.1512 2.125 16.2913 2.125C16.4792 2.125 16.6594 2.19963 16.7922 2.33247C16.925 2.4653 16.9997 2.64547 16.9997 2.83333Z" fill="white"/>
<path d="M16.9997 14.1666C16.9997 14.3067 16.9581 14.4436 16.8803 14.5601C16.8025 14.6766 16.6918 14.7674 16.5624 14.821C16.433 14.8746 16.2906 14.8886 16.1532 14.8613C16.0157 14.834 15.8895 14.7665 15.7905 14.6675C15.6914 14.5684 15.6239 14.4422 15.5966 14.3048C15.5693 14.1674 15.5833 14.0249 15.6369 13.8955C15.6905 13.7661 15.7813 13.6555 15.8978 13.5776C16.0143 13.4998 16.1512 13.4583 16.2913 13.4583C16.4792 13.4583 16.6594 13.5329 16.7922 13.6657C16.925 13.7986 16.9997 13.9787 16.9997 14.1666Z" fill="white"/>
<path d="M7.79134 7.79175H0.708008V9.20842H7.79134V7.79175Z" fill="white"/>
<path d="M0 8.50008C0 8.35999 0.0415431 8.22304 0.119376 8.10655C0.197208 7.99007 0.307835 7.89928 0.437266 7.84567C0.566697 7.79205 0.709119 7.77803 0.846522 7.80536C0.983925 7.83269 1.11014 7.90015 1.2092 7.99921C1.30826 8.09828 1.37573 8.22449 1.40306 8.36189C1.43039 8.4993 1.41636 8.64172 1.36275 8.77115C1.30914 8.90058 1.21835 9.01121 1.10186 9.08904C0.985377 9.16687 0.848428 9.20842 0.708333 9.20842C0.520472 9.20842 0.340304 9.13379 0.207466 9.00095C0.0746277 8.86811 0 8.68794 0 8.50008Z" fill="white"/>
</svg>
