<svg width="26" height="26" viewBox="0 0 26 26" fill="none" xmlns="http://www.w3.org/2000/svg">
<path d="M3.625 21.75V15.7083C3.625 15.5426 3.69085 15.3836 3.80806 15.2664C3.92527 15.1492 4.08424 15.0833 4.25 15.0833H21.75C21.9158 15.0833 22.0747 15.1492 22.1919 15.2664C22.3092 15.3836 22.375 15.5426 22.375 15.7083V21.75C22.375 21.9158 22.3092 22.0747 22.1919 22.1919C22.0747 22.3092 21.9158 22.375 21.75 22.375H4.25C4.08424 22.375 3.92527 22.3092 3.80806 22.1919C3.69085 22.0747 3.625 21.9158 3.625 21.75ZM15.0833 10.2917V4.25C15.0833 4.08424 15.1492 3.92527 15.2664 3.80806C15.3836 3.69085 15.5426 3.625 15.7083 3.625H21.75C21.9158 3.625 22.0747 3.69085 22.1919 3.80806C22.3092 3.92527 22.375 4.08424 22.375 4.25V10.2917C22.375 10.4574 22.3092 10.6164 22.1919 10.7336C22.0747 10.8508 21.9158 10.9167 21.75 10.9167H15.7083C15.5426 10.9167 15.3836 10.8508 15.2664 10.7336C15.1492 10.6164 15.0833 10.4574 15.0833 10.2917ZM3.625 10.2917V4.25C3.625 4.08424 3.69085 3.92527 3.80806 3.80806C3.92527 3.69085 4.08424 3.625 4.25 3.625H10.2917C10.4574 3.625 10.6164 3.69085 10.7336 3.80806C10.8508 3.92527 10.9167 4.08424 10.9167 4.25V10.2917C10.9167 10.4574 10.8508 10.6164 10.7336 10.7336C10.6164 10.8508 10.4574 10.9167 10.2917 10.9167H4.25C4.08424 10.9167 3.92527 10.8508 3.80806 10.7336C3.69085 10.6164 3.625 10.4574 3.625 10.2917Z" stroke="black" stroke-width="1.5"/>
</svg>
