<svg width="26" height="25" viewBox="0 0 26 25" fill="none" xmlns="http://www.w3.org/2000/svg">
<path fill-rule="evenodd" clip-rule="evenodd" d="M3.10934 3.70811C2.53693 3.70811 2.07289 4.17355 2.07289 4.74771V21.3813C2.07289 21.9555 2.53693 22.4209 3.10934 22.4209H13.4738C14.0462 22.4209 14.5103 21.9555 14.5103 21.3813V4.74771C14.5103 4.17355 14.0462 3.70811 13.4738 3.70811H3.10934ZM0 4.74771C0 3.02524 1.3921 1.62891 3.10934 1.62891H13.4738C15.1911 1.62891 16.5832 3.02524 16.5832 4.74771V21.3813C16.5832 23.1038 15.1911 24.5001 13.4738 24.5001H3.10934C1.3921 24.5001 0 23.1038 0 21.3813V4.74771Z" fill="#00A3E0"/>
<path fill-rule="evenodd" clip-rule="evenodd" d="M17.2795 1.71752C18.057 0.93794 19.1113 0.5 20.2106 0.5C21.3099 0.5 22.3642 0.93794 23.1417 1.71752L24.7858 3.36667C25.563 4.14647 26 5.20432 26 6.30699C26 7.40966 25.5634 8.46717 24.7861 9.24698L15.4977 18.5627C14.9651 19.0966 14.3235 19.5072 13.6178 19.7667L9.86607 21.3702L9.75208 21.4088C9.11136 21.6256 8.42296 21.6586 7.76459 21.5038C7.10622 21.3491 6.50406 21.0129 6.02608 20.533C5.54811 20.0532 5.21336 19.449 5.05961 18.7885C4.90586 18.128 4.93923 17.4375 5.15596 16.795L5.19406 16.682L6.79133 12.9209C7.05012 12.2117 7.46021 11.567 7.99361 11.0322C7.99352 11.0323 7.9937 11.0321 7.99361 11.0322C7.99401 11.0318 7.99468 11.0312 7.99508 11.0308L17.2795 1.71752Z" fill="white"/>
<path fill-rule="evenodd" clip-rule="evenodd" d="M18.7452 3.18786C19.1339 2.79807 19.6611 2.5791 20.2107 2.5791C20.7604 2.5791 21.2875 2.79807 21.6762 3.18786L23.3202 4.83678C23.7088 5.22669 23.9272 5.75556 23.9272 6.30689C23.9272 6.85822 23.7089 7.38698 23.3203 7.77688L14.0325 17.0919C13.702 17.4232 13.3013 17.6756 12.8606 17.8301L9.12737 19.4257L9.08938 19.4386C8.81478 19.5316 8.51975 19.5457 8.23759 19.4794C7.95543 19.413 7.69736 19.2689 7.49252 19.0633C7.28767 18.8577 7.14421 18.5987 7.07832 18.3156C7.01242 18.0326 7.02673 17.7366 7.11961 17.4613L7.13231 17.4236L8.72226 13.6798C8.87644 13.2366 9.12852 12.8339 9.45988 12.5019C9.45985 12.502 9.45992 12.5019 9.45988 12.5019L18.7452 3.18786ZM21.8543 6.30689L20.2107 4.6583L10.9248 13.973C10.8109 14.0871 10.7251 14.2263 10.6744 14.3796L10.661 14.4201L9.57652 16.9737L12.1217 15.8859L12.1617 15.8725C12.3144 15.8215 12.4531 15.7356 12.5668 15.6216C12.5668 15.6216 12.5669 15.6215 12.5668 15.6216L21.8543 6.30689Z" fill="#00A3E0"/>
</svg>
