<svg width="26" height="24" viewBox="0 0 26 24" fill="none" xmlns="http://www.w3.org/2000/svg">
<path fill-rule="evenodd" clip-rule="evenodd" d="M3.10934 3.20811C2.53693 3.20811 2.07289 3.67355 2.07289 4.24771V20.8813C2.07289 21.4555 2.53693 21.9209 3.10934 21.9209H13.4738C14.0462 21.9209 14.5103 21.4555 14.5103 20.8813V4.24771C14.5103 3.67355 14.0462 3.20811 13.4738 3.20811H3.10934ZM0 4.24771C0 2.52524 1.3921 1.12891 3.10934 1.12891H13.4738C15.1911 1.12891 16.5832 2.52524 16.5832 4.24771V20.8813C16.5832 22.6038 15.1911 24.0001 13.4738 24.0001H3.10934C1.3921 24.0001 0 22.6038 0 20.8813V4.24771Z" fill="#323232"/>
<path fill-rule="evenodd" clip-rule="evenodd" d="M17.2798 1.21752C18.0572 0.43794 19.1115 0 20.2108 0C21.3102 0 22.3645 0.43794 23.1419 1.21752L24.7861 2.86667C25.5633 3.64647 26.0002 4.70432 26.0002 5.80699C26.0002 6.90966 25.5636 7.96717 24.7864 8.74698L15.4979 18.0627C14.9654 18.5966 14.3237 19.0072 13.618 19.2667L9.86632 20.8702L9.75233 20.9088C9.1116 21.1256 8.42321 21.1586 7.76483 21.0038C7.10646 20.8491 6.5043 20.5129 6.02632 20.033C5.54835 19.5532 5.2136 18.949 5.05985 18.2885C4.9061 17.628 4.93948 16.9375 5.1562 16.295L5.19431 16.182L6.79158 12.4209C7.05036 11.7117 7.46045 11.067 7.99386 10.5322C7.99377 10.5323 7.99394 10.5321 7.99386 10.5322C7.99426 10.5318 7.99492 10.5312 7.99532 10.5308L17.2798 1.21752Z" fill="white"/>
<path fill-rule="evenodd" clip-rule="evenodd" d="M18.7452 2.68786C19.1339 2.29807 19.6611 2.0791 20.2107 2.0791C20.7604 2.0791 21.2875 2.29807 21.6762 2.68786L23.3202 4.33678C23.7088 4.72669 23.9272 5.25556 23.9272 5.80689C23.9272 6.35822 23.7089 6.88698 23.3203 7.27688L14.0325 16.5919C13.702 16.9232 13.3013 17.1756 12.8606 17.3301L9.12737 18.9257L9.08938 18.9386C8.81478 19.0316 8.51975 19.0457 8.23759 18.9794C7.95543 18.913 7.69736 18.7689 7.49252 18.5633C7.28767 18.3577 7.14421 18.0987 7.07832 17.8156C7.01242 17.5326 7.02673 17.2366 7.11961 16.9613L7.13231 16.9236L8.72226 13.1798C8.87644 12.7366 9.12852 12.3339 9.45988 12.0019C9.45985 12.002 9.45992 12.0019 9.45988 12.0019L18.7452 2.68786ZM21.8543 5.80689L20.2107 4.1583L10.9248 13.473C10.8109 13.5871 10.7251 13.7263 10.6744 13.8796L10.661 13.9201L9.57652 16.4737L12.1217 15.3859L12.1617 15.3725C12.3144 15.3215 12.4531 15.2356 12.5668 15.1216C12.5668 15.1216 12.5669 15.1215 12.5668 15.1216L21.8543 5.80689Z" fill="#323232"/>
</svg>
