<svg width="16" height="22" viewBox="0 0 16 22" fill="none" xmlns="http://www.w3.org/2000/svg">
<path d="M5.69165 18.5015C5.71233 18.7763 5.80494 19.0404 5.95974 19.2658C6.11453 19.4912 6.32577 19.6696 6.57118 19.7822C6.66492 20.1321 6.86813 20.4408 7.1496 20.6608C7.43107 20.8808 7.77521 21 8.12915 21C8.48309 21 8.82723 20.8808 9.1087 20.6608C9.39017 20.4408 9.59338 20.1321 9.68712 19.7822C9.93253 19.6696 10.1438 19.4912 10.2986 19.2658C10.4534 19.0404 10.546 18.7763 10.5667 18.5015" stroke="#ffffff" stroke-width="1.5" stroke-miterlimit="10" stroke-linecap="round"/>
<path d="M10.5667 18.085C10.5667 17.8767 10.9729 17.8767 10.9729 17.6685C10.9729 17.4602 10.1604 17.4602 10.1604 17.252C10.1604 17.0437 10.9729 17.0437 10.9729 16.8354" stroke="#ffffff" stroke-width="1.5" stroke-linecap="round" stroke-linejoin="round"/>
<path d="M5.69165 18.085C5.69165 17.8767 5.2854 17.8767 5.2854 17.6685C5.2854 17.4602 6.0979 17.4602 6.0979 17.252C6.0979 17.0437 5.2854 17.0437 5.2854 16.8354" stroke="#ffffff" stroke-width="1.5" stroke-linecap="round" stroke-linejoin="round"/>
<path d="M14.6291 7.67239C14.6305 6.5361 14.3485 5.41833 13.8098 4.42527C13.2712 3.4322 12.4938 2.59685 11.5516 1.99856C10.6093 1.40027 9.53354 1.05893 8.42639 1.00697C7.31924 0.955011 6.21751 1.19416 5.2259 1.70168C4.23429 2.20921 3.38572 2.96826 2.76083 3.90671C2.13594 4.84517 1.75548 5.93185 1.6556 7.06351C1.55572 8.19517 1.73974 9.33422 2.19018 10.3724C2.64061 11.4106 3.3425 12.3135 4.22915 12.9953C4.428 13.1438 4.59031 13.3379 4.70315 13.562C4.81599 13.7862 4.87626 14.0342 4.87915 14.2865V14.3364C4.87915 14.7783 5.05035 15.2021 5.3551 15.5145C5.65985 15.8269 6.07317 16.0025 6.50415 16.0025H9.75415C10.1851 16.0025 10.5984 15.8269 10.9032 15.5145C11.2079 15.2021 11.3791 14.7783 11.3791 14.3364V14.3277C11.3825 14.0635 11.4457 13.8037 11.5636 13.5687C11.6815 13.3337 11.8511 13.13 12.0588 12.9736C12.8578 12.3539 13.5058 11.5526 13.9518 10.6328C14.3978 9.71295 14.6296 8.6996 14.6291 7.67239Z" stroke="#ffffff" stroke-width="1.5" stroke-miterlimit="10"/>
</svg>
