<svg width="18" height="17" viewBox="0 0 18 17" fill="none" xmlns="http://www.w3.org/2000/svg">
<path fill-rule="evenodd" clip-rule="evenodd" d="M8.8623 1.41667C4.95029 1.41667 1.77897 4.58798 1.77897 8.5C1.77897 12.412 4.95029 15.5833 8.8623 15.5833C12.7743 15.5833 15.9456 12.412 15.9456 8.5C15.9456 4.58798 12.7743 1.41667 8.8623 1.41667ZM0.362305 8.5C0.362305 3.80558 4.16788 0 8.8623 0C13.5567 0 17.3623 3.80558 17.3623 8.5C17.3623 13.1944 13.5567 17 8.8623 17C4.16788 17 0.362305 13.1944 0.362305 8.5Z" fill="#323232"/>
<path fill-rule="evenodd" clip-rule="evenodd" d="M7.29926 4.81171C7.57588 4.53509 8.02438 4.53509 8.301 4.81171L11.9894 8.50008L8.301 12.1884C8.02438 12.4651 7.57588 12.4651 7.29926 12.1884C7.02264 11.9118 7.02264 11.4633 7.29926 11.1867L9.9859 8.50008L7.29926 5.81345C7.02264 5.53683 7.02264 5.08834 7.29926 4.81171Z" fill="#323232"/>
</svg>
