<?xml version="1.0" encoding="utf-8"?>
<!-- Generator: Adobe Illustrator 24.0.1, SVG Export Plug-In . SVG Version: 6.00 Build 0)  -->
<svg version="1.1" id="Layer_1" xmlns="http://www.w3.org/2000/svg" xmlns:xlink="http://www.w3.org/1999/xlink" x="0px" y="0px"
	 viewBox="0 0 20 20" style="enable-background:new 0 0 20 20;" xml:space="preserve">
<style type="text/css">
	.st0{fill:#A09D9D;}
</style>
<g>
	<path class="st0" d="M19,3h-4V2.5c0-0.7-0.4-1.4-1-1.9C13.5,0.2,12.8,0,12,0H8C7.3,0,6.5,0.2,6,0.6C5.4,1.1,5,1.8,5,2.5V3H1
		C0.4,3,0,3.4,0,4s0.4,1,1,1h1l0.9,12.6c0,0.7,0.4,1.3,1,1.8c0.5,0.4,1.2,0.6,2,0.6h8.2c0.7,0,1.4-0.2,2-0.6c0.6-0.4,1-1.1,1-1.8
		L18,5h1c0.6,0,1-0.4,1-1S19.6,3,19,3z M7,2.5c0-0.1,0.1-0.2,0.2-0.3C7.4,2.1,7.7,2,8,2h4c0.3,0,0.6,0.1,0.8,0.2
		C12.9,2.3,13,2.4,13,2.5V3H7V2.5z M15.1,17.5c0,0.1-0.1,0.2-0.2,0.3c-0.2,0.1-0.5,0.2-0.8,0.2H5.9c-0.3,0-0.6-0.1-0.8-0.2
		c-0.1-0.1-0.2-0.2-0.2-0.3L4,5H16L15.1,17.5z"/>
	<path class="st0" d="M8,17c0.6,0,1-0.4,1-1V7c0-0.6-0.4-1-1-1S7,6.4,7,7v9C7,16.6,7.4,17,8,17z"/>
	<path class="st0" d="M12,17c0.6,0,1-0.4,1-1V7c0-0.6-0.4-1-1-1s-1,0.4-1,1v9C11,16.6,11.4,17,12,17z"/>
</g>
</svg>
