<svg width="346" height="180" viewBox="0 0 346 180" fill="none" xmlns="http://www.w3.org/2000/svg">
<rect width="346" height="180" rx="8" fill="#F2F2F7"/>
<path d="M200.458 88.5H144.542L162.969 63.9221L168.052 70.7083L177.583 58L200.458 88.5ZM171.229 74.9529L177.583 83.4167H190.292L177.583 66.4637L171.229 74.9529ZM154.708 83.4167H171.229L162.969 72.4113L154.708 83.4167Z" fill="black"/>
<path d="M129.8 114.222V107.55H131.08V114.078C131.08 117.182 129.528 118.91 126.776 118.91C124.04 118.91 122.488 117.182 122.488 114.078V107.55H123.768V114.222C123.768 116.494 124.856 117.774 126.776 117.774C128.696 117.774 129.8 116.494 129.8 114.222ZM137.907 110.59C139.971 110.59 141.395 112.206 141.395 114.718C141.395 117.262 139.971 118.91 137.891 118.91C136.691 118.91 135.731 118.35 135.139 117.39V121.95H133.971V110.75H135.187V112.014C135.795 111.102 136.739 110.59 137.907 110.59ZM137.603 117.87C139.155 117.87 140.131 116.638 140.131 114.718C140.131 112.83 139.155 111.63 137.619 111.63C136.083 111.63 135.075 112.83 135.075 114.718C135.075 116.638 136.083 117.87 137.603 117.87ZM145.723 118.83C144.539 118.83 143.819 118.158 143.819 116.478V106.75H145.035V116.558C145.035 117.47 145.275 117.71 145.835 117.758C146.043 117.774 146.235 117.758 146.411 117.742V118.734C146.123 118.814 145.867 118.83 145.723 118.83ZM151.563 118.91C149.243 118.91 147.659 117.214 147.659 114.75C147.659 112.286 149.243 110.59 151.563 110.59C153.883 110.59 155.467 112.286 155.467 114.75C155.467 117.214 153.883 118.91 151.563 118.91ZM151.563 117.886C153.147 117.886 154.171 116.638 154.171 114.75C154.171 112.862 153.147 111.614 151.563 111.614C149.979 111.614 148.939 112.862 148.939 114.75C148.939 116.638 149.979 117.886 151.563 117.886ZM160.442 110.59C162.89 110.59 163.722 111.87 163.722 114.046V118.75H162.634V117.63H162.602C162.17 118.254 161.466 118.91 159.962 118.91C158.378 118.91 157.018 118.206 157.018 116.43C157.018 114.366 158.906 113.886 160.65 113.854C161.242 113.838 161.866 113.854 162.522 113.886C162.522 112.286 161.93 111.614 160.266 111.614C159.21 111.614 158.506 111.918 157.866 112.286V111.262C158.554 110.878 159.29 110.59 160.442 110.59ZM160.058 117.918C161.466 117.918 162.49 117.118 162.538 115.742L162.522 114.814C162.058 114.782 161.546 114.766 161.018 114.766C159.274 114.782 158.298 115.31 158.298 116.43C158.298 117.454 158.986 117.918 160.058 117.918ZM171.945 112.03V106.75H173.161V118.75H171.993V117.374C171.401 118.35 170.441 118.91 169.225 118.91C167.161 118.91 165.737 117.262 165.737 114.718C165.737 112.206 167.161 110.59 169.225 110.59C170.393 110.59 171.353 111.118 171.945 112.03ZM169.513 117.87C171.049 117.87 172.057 116.638 172.057 114.718C172.057 112.83 171.049 111.63 169.513 111.63C167.961 111.63 166.985 112.83 166.985 114.718C166.985 116.638 167.977 117.87 169.513 117.87ZM180.553 118.75V107.55H181.833V118.75H180.553ZM193.55 110.59C195.326 110.59 196.334 111.854 196.334 114.158V118.75H195.118V114.142C195.118 112.51 194.51 111.614 193.326 111.614C191.95 111.614 191.134 112.782 191.134 114.91V118.75H189.998V114.142C189.998 112.51 189.342 111.614 188.158 111.614C186.83 111.614 186.094 112.686 186.03 114.654V118.75H184.814V110.75H185.982V112.206C186.414 111.15 187.198 110.59 188.382 110.59C189.614 110.59 190.462 111.198 190.878 112.366C191.374 111.198 192.318 110.59 193.55 110.59ZM201.817 110.59C204.265 110.59 205.097 111.87 205.097 114.046V118.75H204.009V117.63H203.977C203.545 118.254 202.841 118.91 201.337 118.91C199.753 118.91 198.393 118.206 198.393 116.43C198.393 114.366 200.281 113.886 202.025 113.854C202.617 113.838 203.241 113.854 203.897 113.886C203.897 112.286 203.305 111.614 201.641 111.614C200.585 111.614 199.881 111.918 199.241 112.286V111.262C199.929 110.878 200.665 110.59 201.817 110.59ZM201.433 117.918C202.841 117.918 203.865 117.118 203.913 115.742L203.897 114.814C203.433 114.782 202.921 114.766 202.393 114.766C200.649 114.782 199.673 115.31 199.673 116.43C199.673 117.454 200.361 117.918 201.433 117.918ZM213.32 112.03V110.75H214.52V118.11C214.52 120.638 213.192 122.302 210.504 122.302C209.56 122.302 208.552 122.094 207.688 121.71V120.574C208.408 120.878 209.368 121.15 210.344 121.15C211.896 121.15 213.32 120.43 213.32 118.366V117.454C212.728 118.382 211.784 118.91 210.6 118.91C208.536 118.91 207.112 117.262 207.112 114.718C207.112 112.206 208.536 110.59 210.6 110.59C211.768 110.59 212.728 111.118 213.32 112.03ZM210.888 117.87C212.424 117.87 213.432 116.638 213.432 114.718C213.432 112.83 212.424 111.63 210.888 111.63C209.336 111.63 208.36 112.83 208.36 114.718C208.36 116.638 209.352 117.87 210.888 117.87ZM220.754 118.91C218.049 118.91 216.706 117.022 216.706 114.622C216.706 112.238 217.986 110.606 220.354 110.606C222.818 110.606 223.858 112.398 223.842 114.974H217.986C217.986 116.718 219.074 117.87 220.802 117.87C221.554 117.87 222.466 117.646 223.41 117.182V118.27C222.578 118.702 221.65 118.91 220.754 118.91ZM217.986 113.998H222.562C222.514 112.574 221.698 111.63 220.322 111.63C218.962 111.63 218.146 112.542 217.986 113.998Z" fill="#808080"/>
</svg>
