<svg width="32" height="32" viewBox="0 0 32 32" fill="none" xmlns="http://www.w3.org/2000/svg">
<rect width="32" height="32" rx="16" fill="#00A3E0"/>
<path d="M22.5115 25H9.4885C8.82881 24.9992 8.19635 24.7369 7.72985 24.2704C7.26334 23.804 7.00087 23.1716 7 22.5119V9.4885C7.00076 8.82874 7.26318 8.19622 7.7297 7.7297C8.19622 7.26318 8.82874 7.00076 9.4885 7H22.5115C23.1713 7.00076 23.8038 7.26318 24.2703 7.7297C24.7368 8.19622 24.9992 8.82874 25 9.4885V22.5119C24.9991 23.1716 24.7367 23.804 24.2702 24.2704C23.8036 24.7369 23.1712 24.9992 22.5115 25ZM9.4885 8.63636C9.26257 8.63658 9.04595 8.72643 8.88619 8.88619C8.72643 9.04595 8.63658 9.26257 8.63636 9.4885V22.5119C8.63669 22.7378 8.72658 22.9543 8.88633 23.114C9.04608 23.2736 9.26264 23.3634 9.4885 23.3636H22.5115C22.7374 23.3635 22.954 23.2738 23.1138 23.1141C23.2736 22.9544 23.3634 22.7378 23.3636 22.5119V9.4885C23.3635 9.26253 23.2737 9.04585 23.1139 8.88607C22.9541 8.72628 22.7375 8.63647 22.5115 8.63636H9.4885Z" fill="white"/>
<path d="M15.9999 15.0799C15.6965 15.0799 15.3999 14.9899 15.1476 14.8214C14.8953 14.6528 14.6987 14.4132 14.5826 14.1329C14.4665 13.8526 14.4361 13.5441 14.4953 13.2465C14.5545 12.9489 14.7006 12.6756 14.9151 12.461C15.1297 12.2465 15.403 12.1004 15.7006 12.0412C15.9982 11.982 16.3067 12.0124 16.587 12.1285C16.8673 12.2446 17.1069 12.4412 17.2755 12.6935C17.444 12.9458 17.534 13.2424 17.534 13.5458C17.5336 13.9525 17.3718 14.3425 17.0842 14.6301C16.7966 14.9177 16.4066 15.0795 15.9999 15.0799Z" fill="white"/>
<path d="M16 12.5227C16.2023 12.5227 16.4001 12.5827 16.5682 12.6951C16.7364 12.8075 16.8675 12.9672 16.9449 13.1541C17.0223 13.341 17.0426 13.5466 17.0031 13.745C16.9637 13.9434 16.8663 14.1256 16.7232 14.2686C16.5802 14.4117 16.398 14.5091 16.1996 14.5485C16.0012 14.588 15.7955 14.5677 15.6087 14.4903C15.4218 14.4129 15.2621 14.2818 15.1497 14.1137C15.0373 13.9455 14.9773 13.7477 14.9773 13.5455C14.9773 13.2742 15.0851 13.0141 15.2769 12.8223C15.4687 12.6305 15.7288 12.5227 16 12.5227ZM16 11.5C15.5955 11.5 15.2 11.62 14.8637 11.8447C14.5273 12.0695 14.2651 12.3889 14.1103 12.7627C13.9555 13.1365 13.915 13.5477 13.9939 13.9445C14.0728 14.3413 14.2676 14.7057 14.5537 14.9918C14.8398 15.2779 15.2042 15.4727 15.601 15.5516C15.9978 15.6305 16.409 15.59 16.7828 15.4352C17.1566 15.2804 17.476 15.0182 17.7008 14.6818C17.9255 14.3455 18.0455 13.95 18.0455 13.5455C18.0455 13.003 17.83 12.4827 17.4464 12.0991C17.0628 11.7155 16.5425 11.5 16 11.5Z" fill="white"/>
<path d="M12.3181 19.6811V18.4538C12.3181 18.1283 12.4474 17.8162 12.6776 17.586C12.9077 17.3559 13.2199 17.2266 13.5454 17.2266H18.4545C18.78 17.2266 19.0921 17.3559 19.3223 17.586C19.5524 17.8162 19.6818 18.1283 19.6818 18.4538V19.6811H12.3181Z" fill="white"/>
<path d="M18.4546 17.6365C18.6716 17.6365 18.8797 17.7227 19.0332 17.8762C19.1866 18.0296 19.2728 18.2377 19.2728 18.4547V19.2729H12.7274V18.4547C12.7274 18.2377 12.8136 18.0296 12.967 17.8762C13.1204 17.7227 13.3285 17.6365 13.5455 17.6365H18.4546ZM18.4546 16.8184H13.5455C13.112 16.8197 12.6965 16.9925 12.3899 17.2991C12.0833 17.6057 11.9105 18.0211 11.9092 18.4547V20.0911H20.091V18.4547C20.0897 18.0211 19.9169 17.6057 19.6103 17.2991C19.3037 16.9925 18.8882 16.8197 18.4546 16.8184Z" fill="white"/>
</svg>
