<svg width="25" height="25" viewBox="0 0 25 25" fill="none" xmlns="http://www.w3.org/2000/svg">
<g clip-path="url(#clip0_5508_6617)">
<path d="M24.1067 14.2852L16.7496 24.1066L11.8389 20.428" stroke="black" stroke-width="2.14286" stroke-linecap="round" stroke-linejoin="round"/>
<path d="M8.9285 8.92829C11.1475 8.92829 12.9464 7.12944 12.9464 4.91044C12.9464 2.69143 11.1475 0.892578 8.9285 0.892578C6.7095 0.892578 4.91064 2.69143 4.91064 4.91044C4.91064 7.12944 6.7095 8.92829 8.9285 8.92829Z" stroke="black" stroke-width="2.14286" stroke-linecap="round" stroke-linejoin="round"/>
<path d="M5.35686 22.3205H0.892578V19.6419C0.893975 18.0536 1.36602 16.5014 2.24909 15.1812C3.13216 13.8611 4.38665 12.8322 5.85411 12.2246C7.32158 11.6169 8.93619 11.4578 10.494 11.7673C12.0519 12.0768 13.4831 12.841 14.6069 13.9634" stroke="black" stroke-width="2.14286" stroke-linecap="round" stroke-linejoin="round"/>
</g>
<defs>
<clipPath id="clip0_5508_6617">
<rect width="25" height="25" fill="white"/>
</clipPath>
</defs>
</svg>
