<svg width="24" height="25" viewBox="0 0 24 25" fill="none" xmlns="http://www.w3.org/2000/svg">
<path d="M20.682 24.5H3.318C2.43842 24.499 1.59514 24.1492 0.973128 23.5273C0.351117 22.9053 0.00115487 22.0621 0 21.1825V3.818C0.00101054 2.93832 0.350909 2.09496 0.972936 1.47294C1.59496 0.850909 2.43832 0.501011 3.318 0.5H20.682C21.5617 0.501011 22.405 0.850909 23.0271 1.47294C23.6491 2.09496 23.999 2.93832 24 3.818V21.1825C23.9988 22.0621 23.6489 22.9053 23.0269 23.5273C22.4049 24.1492 21.5616 24.499 20.682 24.5ZM3.318 2.68182C3.01675 2.68211 2.72793 2.8019 2.51492 3.01492C2.3019 3.22793 2.18211 3.51675 2.18182 3.818V21.1825C2.18225 21.4837 2.30211 21.7724 2.51511 21.9853C2.72811 22.1982 3.01685 22.3179 3.318 22.3182H20.682C20.9832 22.318 21.272 22.1984 21.4851 21.9854C21.6981 21.7725 21.8179 21.4837 21.8182 21.1825V3.818C21.818 3.51671 21.6983 3.2278 21.4852 3.01476C21.2722 2.80171 20.9833 2.68196 20.682 2.68182H3.318Z" fill="#00A3E0"/>
<path d="M11.9996 11.2728C11.595 11.2728 11.1995 11.1528 10.8632 10.9281C10.5268 10.7033 10.2646 10.3839 10.1098 10.0101C9.95499 9.63634 9.91448 9.22507 9.99341 8.82829C10.0723 8.43151 10.2671 8.06705 10.5532 7.78098C10.8393 7.49492 11.2037 7.30011 11.6005 7.22119C11.9973 7.14226 12.4086 7.18277 12.7823 7.33759C13.1561 7.4924 13.4755 7.75457 13.7003 8.09095C13.925 8.42732 14.045 8.82279 14.045 9.22734C14.0444 9.76965 13.8287 10.2896 13.4453 10.6731C13.0618 11.0565 12.5419 11.2722 11.9996 11.2728Z" fill="#00A3E0"/>
<path d="M11.9997 7.86364C12.2694 7.86364 12.5331 7.94361 12.7573 8.09345C12.9816 8.24329 13.1564 8.45626 13.2596 8.70543C13.3628 8.9546 13.3898 9.22879 13.3372 9.49331C13.2846 9.75782 13.1547 10.0008 12.964 10.1915C12.7733 10.3822 12.5303 10.5121 12.2658 10.5647C12.0012 10.6173 11.7271 10.5903 11.4779 10.4871C11.2287 10.3839 11.0158 10.2091 10.8659 9.98487C10.7161 9.76062 10.6361 9.49697 10.6361 9.22727C10.6361 8.86561 10.7798 8.51877 11.0355 8.26304C11.2912 8.0073 11.6381 7.86364 11.9997 7.86364ZM11.9997 6.5C11.4603 6.5 10.933 6.65995 10.4845 6.95963C10.036 7.2593 9.68648 7.68525 9.48006 8.18359C9.27364 8.68193 9.21963 9.2303 9.32487 9.75934C9.4301 10.2884 9.68985 10.7743 10.0713 11.1557C10.4527 11.5372 10.9386 11.7969 11.4677 11.9021C11.9967 12.0074 12.5451 11.9534 13.0434 11.7469C13.5418 11.5405 13.9677 11.191 14.2674 10.7425C14.5671 10.294 14.727 9.76668 14.727 9.22727C14.727 8.50396 14.4397 7.81026 13.9282 7.2988C13.4167 6.78734 12.7231 6.5 11.9997 6.5Z" fill="#00A3E0"/>
<path d="M7.09082 17.4092V15.7728C7.09082 15.3388 7.26322 14.9226 7.5701 14.6158C7.87698 14.3089 8.29319 14.1365 8.72718 14.1365H15.2726C15.7066 14.1365 16.1228 14.3089 16.4297 14.6158C16.7366 14.9226 16.909 15.3388 16.909 15.7728V17.4092H7.09082Z" fill="#00A3E0"/>
<path d="M15.2732 14.6817C15.5625 14.6817 15.84 14.7967 16.0446 15.0012C16.2491 15.2058 16.3641 15.4833 16.3641 15.7726V16.8635H7.63681V15.7726C7.63681 15.4833 7.75174 15.2058 7.95633 15.0012C8.16091 14.7967 8.43839 14.6817 8.72772 14.6817H15.2732ZM15.2732 13.5908H8.72772C8.14959 13.5925 7.59564 13.823 7.18685 14.2318C6.77805 14.6406 6.54763 15.1945 6.5459 15.7726V17.9545H17.455V15.7726C17.4533 15.1945 17.2228 14.6406 16.814 14.2318C16.4052 13.823 15.8513 13.5925 15.2732 13.5908Z" fill="#00A3E0"/>
</svg>
