<svg width="32" height="27" viewBox="0 0 32 27" fill="none" xmlns="http://www.w3.org/2000/svg">
<path d="M22.0957 5.73539L24.1671 7.85304L29.0005 2.91187" stroke="#00A3E0" stroke-width="2" stroke-miterlimit="10" stroke-linecap="round"/>
<path d="M12.6664 12.7941C15.7171 12.7941 18.1902 10.2658 18.1902 7.14706C18.1902 4.02827 15.7171 1.5 12.6664 1.5C9.61567 1.5 7.14258 4.02827 7.14258 7.14706C7.14258 10.2658 9.61567 12.7941 12.6664 12.7941Z" stroke="#00A3E0" stroke-width="2" stroke-linejoin="round"/>
<path d="M22.3333 25.4999V21.9705C22.3333 20.66 21.8241 19.4032 20.9177 18.4765C20.0113 17.5499 18.7819 17.0293 17.5 17.0293H7.90998C6.60777 17.0293 5.3589 17.5581 4.4381 18.4995C3.5173 19.4408 3 20.7176 3 22.0488V25.4999" stroke="#00A3E0" stroke-width="2" stroke-linecap="round" stroke-linejoin="round"/>
</svg>
