<svg width="17" height="18" viewBox="0 0 17 18" fill="none" xmlns="http://www.w3.org/2000/svg">
<path fill-rule="evenodd" clip-rule="evenodd" d="M8.5 17.7452C13.1944 17.7452 17 13.8297 17 8.99956C17 4.16948 13.1944 0.253906 8.5 0.253906C3.80559 0.253906 0 4.16948 0 8.99956C0 13.8297 3.80559 17.7452 8.5 17.7452ZM8.5 1.50298C12.5238 1.50298 15.7857 4.85917 15.7857 8.99925C15.7857 13.1393 12.5238 16.4955 8.5 16.4955C4.47621 16.4955 1.21429 13.1393 1.21429 8.99925C1.21429 4.85917 4.47621 1.50298 8.5 1.50298Z" fill="#F48F7A"/>
<path fill-rule="evenodd" clip-rule="evenodd" d="M9.10686 4.00098V10.8726H7.89258V4.00098H9.10686Z" fill="#F48F7A"/>
<path fill-rule="evenodd" clip-rule="evenodd" d="M7.58887 13.6851C7.58887 14.2026 7.99661 14.6221 8.49958 14.6221C9.00256 14.6221 9.4103 14.2026 9.4103 13.6851C9.4103 13.1676 9.00256 12.748 8.49958 12.748C7.99661 12.748 7.58887 13.1676 7.58887 13.6851Z" fill="#F48F7A"/>
</svg>
