<svg width="19" height="18" viewBox="0 0 19 18" fill="none" xmlns="http://www.w3.org/2000/svg">
<path d="M10.2279 2.02167C9.82761 1.32611 9.17057 1.32611 8.7722 2.02167L1.16531 15.2355C0.765044 15.9311 1.11697 16.5 1.94771 16.5H17.052C17.8827 16.5 18.235 15.9311 17.8348 15.2355L10.2279 2.02167Z" stroke="#FFC846" stroke-width="1.5" stroke-linejoin="round"/>
<path d="M9.49984 6.39844C9.70014 6.39844 9.89223 6.47446 10.0339 6.60977C10.1755 6.74508 10.2551 6.92861 10.2551 7.11997V10.7276C10.2551 10.919 10.1755 11.1025 10.0339 11.2379C9.89223 11.3732 9.70014 11.4492 9.49984 11.4492C9.29955 11.4492 9.10746 11.3732 8.96583 11.2379C8.8242 11.1025 8.74463 10.919 8.74463 10.7276V7.11997C8.74463 6.92861 8.8242 6.74508 8.96583 6.60977C9.10746 6.47446 9.29955 6.39844 9.49984 6.39844Z" fill="#FFC846"/>
<path d="M9.49992 12.7129C9.624 12.7126 9.74688 12.7361 9.86124 12.7821C9.97561 12.8281 10.0791 12.8956 10.1656 12.9806C10.2539 13.0646 10.3238 13.1644 10.3716 13.2743C10.4194 13.3842 10.4439 13.502 10.4439 13.6209C10.4439 13.7399 10.4194 13.8577 10.3716 13.9676C10.3238 14.0775 10.2539 14.1773 10.1656 14.2613C9.98648 14.4252 9.74799 14.5167 9.49992 14.5167C9.25185 14.5167 9.01336 14.4252 8.8342 14.2613C8.74599 14.1773 8.676 14.0775 8.62825 13.9676C8.58049 13.8577 8.55591 13.7399 8.55591 13.6209C8.55591 13.502 8.58049 13.3842 8.62825 13.2743C8.676 13.1644 8.74599 13.0646 8.8342 12.9806C8.92074 12.8956 9.02427 12.8282 9.13862 12.7822C9.25298 12.7362 9.37585 12.7126 9.49992 12.7129Z" fill="#FFC846"/>
</svg>
