<svg width="20" height="20" viewBox="0 0 20 20" fill="none" xmlns="http://www.w3.org/2000/svg">
<g id="workspace">
<path id="Exclude" fill-rule="evenodd" clip-rule="evenodd" d="M1.57373 18.4254V12.1295H9.44368V18.4254H1.57373ZM0 12.1301V18.4261C0 19.2954 0.704701 20.0001 1.57399 20.0001H9.44395C10.3132 20.0001 11.0179 19.2954 11.0179 18.4261V12.1301C11.0179 11.2609 10.3132 10.5562 9.44395 10.5562H1.57399C0.704701 10.5562 0 11.2609 0 12.1301Z" fill="#00A3E0"/>
<path id="Exclude_2" fill-rule="evenodd" clip-rule="evenodd" d="M10.5552 5.50915V1.5742H18.4251V5.50915H10.5552ZM8.98145 1.57398V5.50894C8.98145 6.37823 9.68615 7.08293 10.5554 7.08293H18.4254C19.2947 7.08293 19.9994 6.37823 19.9994 5.50894V1.57398C19.9994 0.704694 19.2947 0 18.4254 0H10.5554C9.68615 0 8.98145 0.704694 8.98145 1.57398Z" fill="#00A3E0"/>
<path id="Exclude_3" fill-rule="evenodd" clip-rule="evenodd" d="M14.4912 16.0652V12.1303H18.4262V16.0652H14.4912ZM12.5 12.5739V16.5088C12.5 17.378 13.2047 18.0827 14.074 18.0827H18.0089C18.8782 18.0827 19.5829 17.378 19.5829 16.5088V12.5739C19.5829 11.7047 18.8782 11 18.0089 11H14.074C13.2047 11 12.5 11.7047 12.5 12.5739Z" fill="#00A3E0"/>
<path id="Exclude_4" fill-rule="evenodd" clip-rule="evenodd" d="M1.57422 5.50915V1.5742H5.5092V5.50915H1.57422ZM0 1.57398V5.50894C0 6.37823 0.704702 7.08293 1.57399 7.08293H5.50897C6.37826 7.08293 7.08296 6.37823 7.08296 5.50894V1.57398C7.08296 0.704694 6.37826 0 5.50897 0H1.57399C0.704702 0 0 0.704694 0 1.57398Z" fill="#00A3E0"/>
</g>
</svg>
