<svg width="31" height="32" viewBox="0 0 31 32" fill="none" xmlns="http://www.w3.org/2000/svg">
<rect width="31" height="32" rx="15.5" fill="white"/>
<g clip-path="url(#clip0_4545_2984)">
<path d="M25.9898 16.2058C25.9898 15.3045 25.9183 14.6467 25.7637 13.9647H15.709V18.0328H21.6109C21.4919 19.0438 20.8494 20.5663 19.4215 21.5894L19.4015 21.7256L22.5806 24.2466L22.8008 24.2691C24.8236 22.3568 25.9898 19.5432 25.9898 16.2058Z" fill="#4285F4"/>
<path d="M15.709 26.9244C18.6004 26.9244 21.0278 25.95 22.8008 24.2691L19.4215 21.5894C18.5172 22.235 17.3034 22.6856 15.709 22.6856C12.877 22.6856 10.4734 20.7734 9.61661 18.1303L9.49102 18.1412L6.18532 20.76L6.14209 20.883C7.90314 24.464 11.5205 26.9244 15.709 26.9244Z" fill="#34A853"/>
<path d="M9.6168 18.1303C9.39072 17.4482 9.25988 16.7174 9.25988 15.9622C9.25988 15.207 9.39072 14.4762 9.60491 13.7941L9.59892 13.6489L6.2518 10.988L6.14229 11.0414C5.41647 12.5274 5 14.1961 5 15.9622C5 17.7283 5.41647 19.397 6.14229 20.883L9.6168 18.1303Z" fill="#FBBC05"/>
<path d="M15.709 9.23869C17.7199 9.23869 19.0764 10.1278 19.8498 10.8709L22.8722 7.85018C21.016 6.08405 18.6004 5 15.709 5C11.5205 5 7.90314 7.46039 6.14209 11.0414L9.60471 13.7941C10.4734 11.151 12.877 9.23869 15.709 9.23869Z" fill="#EB4335"/>
</g>
<defs>
<clipPath id="clip0_4545_2984">
<rect width="21" height="22" fill="white" transform="translate(5 5)"/>
</clipPath>
</defs>
</svg>
