<svg width="19" height="18" viewBox="0 0 19 18" fill="none" xmlns="http://www.w3.org/2000/svg">
<path d="M10.2279 2.02167C9.82761 1.32611 9.17057 1.32611 8.7722 2.02167L1.16531 15.2355C0.765044 15.9311 1.11697 16.5 1.94771 16.5H17.052C17.8827 16.5 18.235 15.9311 17.8348 15.2355L10.2279 2.02167Z" stroke="#F05F41" stroke-width="1.5" stroke-linejoin="round"/>
<path d="M9.49984 6.3985C9.70014 6.3985 9.89223 6.47452 10.0339 6.60984C10.1755 6.74515 10.2551 6.92868 10.2551 7.12004V10.7277C10.2551 10.9191 10.1755 11.1026 10.0339 11.2379C9.89223 11.3732 9.70014 11.4493 9.49984 11.4493C9.29955 11.4493 9.10746 11.3732 8.96583 11.2379C8.8242 11.1026 8.74463 10.9191 8.74463 10.7277V7.12004C8.74463 6.92868 8.8242 6.74515 8.96583 6.60984C9.10746 6.47452 9.29955 6.3985 9.49984 6.3985Z" fill="#F05F41"/>
<path d="M9.49968 12.7119C9.62376 12.7116 9.74663 12.7352 9.861 12.7812C9.97536 12.8272 10.0789 12.8947 10.1654 12.9796C10.2536 13.0636 10.3236 13.1634 10.3714 13.2733C10.4191 13.3832 10.4437 13.501 10.4437 13.62C10.4437 13.739 10.4191 13.8568 10.3714 13.9667C10.3236 14.0766 10.2536 14.1764 10.1654 14.2604C9.98623 14.4243 9.74774 14.5158 9.49968 14.5158C9.25161 14.5158 9.01312 14.4243 8.83396 14.2604C8.74575 14.1764 8.67576 14.0766 8.628 13.9667C8.58025 13.8568 8.55566 13.739 8.55566 13.62C8.55566 13.501 8.58025 13.3832 8.628 13.2733C8.67576 13.1634 8.74575 13.0636 8.83396 12.9796C8.9205 12.8947 9.02402 12.8272 9.13838 12.7812C9.25274 12.7353 9.3756 12.7117 9.49968 12.7119Z" fill="#F05F41"/>
</svg>
