<svg width="177" height="186" viewBox="0 0 177 186" fill="none" xmlns="http://www.w3.org/2000/svg">
<path d="M80.7987 185.995C79.3867 185.195 78.9112 184.001 78.9549 182.38C79.0471 178.751 79.0568 175.112 78.9355 171.487C78.9015 170.502 78.5182 169.343 77.8971 168.59C70.8808 160.094 63.7723 151.68 56.722 143.208C53.7865 139.681 53.7622 134.795 56.5474 131.335C59.2598 127.973 64.1702 126.89 68.0374 129.006C69.3232 129.71 70.449 130.821 71.4291 131.937C73.6563 134.47 75.7524 137.119 78.1349 140.001C78.198 139.157 78.2707 138.652 78.2707 138.148C78.2756 130.214 78.2513 122.286 78.2998 114.352C78.3095 113.115 77.9942 112.475 76.7908 111.902C64.5584 106.118 58.9347 90.7463 64.5293 78.6206C65.1795 77.2183 65.9655 76.015 67.7851 76.408C69.8327 76.8544 70.5023 78.5382 69.5464 80.8235C67.2805 86.2338 67.2271 91.6585 69.561 97.0396C71.3175 101.077 74.1124 104.216 78.2707 106.511C78.2707 101.902 78.2853 97.5685 78.2659 93.2355C78.2562 90.7754 78.9597 88.5871 80.5755 86.719C83.055 83.8465 86.961 82.7596 90.4595 83.9484C94.0744 85.1711 96.7188 88.5968 96.7868 92.4349C96.8741 97.1512 96.8062 101.872 96.8062 106.958C97.6311 106.511 98.2522 106.22 98.8296 105.856C107.699 100.179 110.664 88.6599 105.661 79.3485C100.693 70.105 89.3095 66.2426 79.7215 70.5466C76.9412 71.7936 75.6214 71.5849 74.8354 69.7653C74.0542 67.9603 74.816 66.7764 77.5769 65.5148C90.1441 59.7892 105.521 65.6895 111.353 78.4751C117.108 91.0811 111.402 106.312 98.6355 112.13C97.1458 112.809 96.6461 113.561 96.7965 115.09C96.9226 116.342 96.8207 117.618 96.8207 119.098C97.5437 119.137 98.1794 119.195 98.8102 119.195C105.288 119.219 111.77 119.224 118.248 119.243C126.754 119.268 132.208 124.668 132.324 133.179C132.349 134.994 132.397 136.813 132.363 138.628C132.329 140.472 131.257 141.539 129.578 141.505C127.982 141.471 126.992 140.452 126.938 138.672C126.875 136.556 126.938 134.431 126.846 132.315C126.667 128.249 123.945 125.255 119.917 124.93C119.917 126.784 119.966 128.623 119.903 130.457C119.835 132.446 118.738 133.489 116.962 133.329C115.414 133.189 114.517 132.33 114.493 130.738C114.459 128.817 114.483 126.89 114.483 124.819H108.379C108.379 126.638 108.398 128.433 108.374 130.229C108.345 132.301 107.413 133.349 105.666 133.344C103.9 133.339 102.959 132.291 102.935 130.248C102.915 128.453 102.935 126.653 102.935 124.755H96.8207C96.8207 126.507 96.8305 128.293 96.8207 130.074C96.8013 132.34 95.9473 133.363 94.1181 133.339C92.3179 133.315 91.3814 132.228 91.3814 130.035C91.3717 118.166 91.3766 106.303 91.3717 94.434C91.3717 93.7693 91.396 93.0996 91.328 92.4397C91.1194 90.5037 89.591 89.048 87.7471 88.9704C85.782 88.8879 84.1128 90.2368 83.7925 92.236C83.6858 92.8862 83.7246 93.5655 83.7246 94.2302C83.7246 111.727 83.7343 129.224 83.6907 146.721C83.6907 147.687 83.4723 148.827 82.9289 149.57C81.8856 150.987 79.935 150.734 78.6007 149.133C74.7626 144.528 70.9536 139.904 67.1592 135.265C66.0868 133.955 64.8349 133.106 63.093 133.426C60.0361 133.984 58.9783 137.357 61.089 139.928C64.1217 143.626 67.2174 147.27 70.2888 150.938C74.6025 156.091 78.9597 161.205 83.1909 166.426C83.8847 167.28 84.3457 168.571 84.3797 169.677C84.5155 173.972 84.3845 178.275 84.4622 182.57C84.4913 184.137 84.0109 185.267 82.6183 185.995H80.8036H80.7987Z" fill="white"/>
<path d="M120.403 185.995C119.015 185.296 118.462 184.214 118.501 182.627C118.588 179.124 118.438 175.616 118.588 172.117C118.627 171.157 119.146 169.963 119.85 169.323C124.396 165.218 126.886 160.215 127.055 154.057C127.123 151.583 128.875 150.229 130.792 151.025C132.174 151.597 132.529 152.723 132.5 154.111C132.378 160.885 129.972 166.727 125.27 171.569C124.294 172.574 123.906 173.549 123.955 174.907C124.042 177.382 123.921 179.862 124.003 182.341C124.057 183.928 123.63 185.175 122.223 186H120.408L120.403 185.995Z" fill="white"/>
<path d="M45.7223 49.8857C45.7223 44.8782 45.7611 40.1085 45.6592 35.3436C45.6495 34.8681 44.8683 34.2567 44.3103 33.9704C39.5406 31.5394 37.5754 26.2893 39.6425 21.3449C41.5494 16.7887 46.6879 14.5324 51.5838 16.1094C55.3685 17.3322 57.7509 20.5395 58.0809 24.8628C58.3575 28.4583 56.2371 32.1799 52.7289 33.8151C51.4528 34.4071 51.1374 35.1252 51.1568 36.4353C51.2344 40.9139 51.118 45.3974 51.2393 49.8711C51.2635 50.827 51.7682 51.9624 52.4232 52.6708C54.8008 55.2425 57.3385 57.6686 59.8762 60.216C66.9896 53.5248 75.3014 49.7207 85.1077 48.8667C85.1465 48.2553 85.2193 47.6779 85.2242 47.1005C85.2339 39.4728 85.2096 31.8451 85.2533 24.2174C85.2581 23.116 85.0204 22.5483 83.885 22.1067C78.4165 19.9815 75.6362 14.7023 76.8056 8.95238C77.8973 3.6295 82.4633 -0.0145132 88.0482 4.34539e-05C93.6719 0.0146001 98.1553 3.72169 99.2374 9.25322C100.324 14.8042 97.3693 20.064 91.9736 22.1941C91.5806 22.3493 91.1924 22.5143 90.6829 22.723C90.6829 26.2117 90.6829 29.715 90.6829 33.2232C90.6829 37.9444 90.6829 42.6656 90.6829 47.3868C90.6829 48.202 90.615 48.9104 91.8038 49.0171C100.999 49.8566 108.893 53.5782 115.638 59.8327C115.72 59.9103 115.847 59.9443 116.133 60.085C118.903 57.329 121.737 54.5438 124.503 51.6955C124.804 51.385 124.77 50.6766 124.77 50.1525C124.789 45.4313 124.75 40.7101 124.804 35.9889C124.813 34.9408 124.503 34.4314 123.513 33.9753C119.175 31.9567 117.118 27.6237 118.171 23.0287C119.214 18.4967 122.955 15.5757 127.657 15.629C132.305 15.6824 135.91 18.6665 136.929 23.3052C137.895 27.7013 135.682 32.0344 131.437 34.0577C131.058 34.2373 130.68 34.4168 130.316 34.5866V49.876C134.256 49.876 138.108 49.9245 141.961 49.808C142.388 49.7935 142.922 48.8958 143.169 48.3038C145.057 43.8932 149.511 40.9139 154.004 41.1274C159.235 41.3749 163.335 44.4463 164.737 49.1578C166.528 55.1843 163.558 61.3126 157.857 63.3506C151.772 65.5292 145.484 62.7489 143.126 56.7176C142.684 55.5822 142.136 55.291 141.025 55.3104C137.39 55.3687 133.761 55.3056 130.127 55.359C129.452 55.3687 128.593 55.5045 128.147 55.9267C125.308 58.6391 122.557 61.4485 119.99 64.0153C121.878 67.6642 123.979 71.0122 125.376 74.632C126.754 78.208 127.424 82.0559 128.501 86.1608H129.792C138.327 86.1608 146.867 86.1366 155.402 86.1899C156.659 86.1996 157.275 85.8357 157.833 84.6518C159.793 80.508 164.281 78.4943 168.76 79.557C173.054 80.5759 176.096 84.5256 176.043 89.0042C175.99 93.5993 173.074 97.2336 168.59 98.2914C164.131 99.3443 159.745 97.2433 157.741 93.0364C157.328 92.163 157.003 91.571 155.814 91.5759C146.915 91.639 138.011 91.6099 129.112 91.6147C128.816 91.6147 128.521 91.6584 128.554 91.6535C127.366 95.9429 126.439 100.126 125.017 104.133C124.1 106.72 122.533 109.092 121.121 111.48C120.087 113.222 118.573 113.552 117.161 112.586C115.749 111.62 115.521 110.16 116.637 108.471C120.801 102.173 122.805 95.283 122.61 87.7232C122.184 70.8278 108.064 55.8393 91.1973 54.437C70.522 52.7194 52.9715 69.0471 53.3112 89.7951C53.4859 100.572 58.1294 109.223 66.3636 116.041C66.8294 116.429 67.3341 116.769 67.7756 117.181C68.9935 118.312 69.1051 119.636 68.1201 120.883C67.1351 122.13 65.6892 122.494 64.4616 121.402C61.7103 118.962 58.8524 116.56 56.5185 113.746C51.5741 107.782 48.8083 100.795 48.0902 93.0607C47.9786 91.8428 47.5031 91.5905 46.3919 91.5953C37.7356 91.6341 29.0744 91.6438 20.418 91.5856C19.2244 91.5759 18.778 92.0708 18.3073 93.0461C15.9831 97.9032 10.5049 99.8635 5.55567 97.6848C0.941211 95.6518 -1.22773 90.159 0.708305 85.2826C2.27072 81.3523 5.39069 79.4454 9.452 79.3095C13.426 79.1736 16.4586 81.1 18.2199 84.6664C18.8022 85.8406 19.4039 86.2045 20.6509 86.1948C29.1277 86.1463 37.6045 86.1705 46.0814 86.1705C46.62 86.1705 47.1586 86.1705 47.8912 86.1705C48.5706 78.0819 51.2926 70.8278 56.2565 64.3162C53.3694 61.4291 50.5745 58.5905 47.7117 55.8248C47.3478 55.4706 46.6151 55.3735 46.0523 55.3687C42.2966 55.3299 38.5459 55.3929 34.7903 55.3201C33.684 55.3007 33.2521 55.7229 32.8591 56.7127C30.6125 62.385 24.9839 65.2187 19.1855 63.6805C13.5861 62.1957 10.0246 56.9602 10.7864 51.3365C11.6112 45.247 16.216 41.1662 22.3007 41.1323C26.7356 41.108 31.0977 43.9902 32.7426 48.2941C33.257 49.6382 33.912 49.9633 35.2318 49.9293C38.6138 49.842 42.0007 49.9002 45.7077 49.9002L45.7223 49.8857ZM153.815 58.5905C157.304 58.5954 159.919 55.9655 159.871 52.4913C159.827 49.3277 157.119 46.6347 153.922 46.5668C150.681 46.4988 147.832 49.2355 147.774 52.4767C147.711 55.9412 150.322 58.5857 153.815 58.5905ZM28.1767 52.7727C28.2107 49.2597 25.639 46.6201 22.1794 46.6104C18.8362 46.6056 16.2063 49.2064 16.1383 52.5786C16.0753 55.8296 18.7828 58.6002 22.0775 58.6633C25.3867 58.7215 28.1379 56.0625 28.1718 52.7727H28.1767ZM87.8444 17.4535C91.2797 17.4923 93.8708 15.0079 93.9436 11.6162C94.0213 8.08869 91.5127 5.46849 88.0191 5.42967C84.7196 5.39085 81.9829 8.04502 81.9295 11.3494C81.8762 14.6246 84.5788 17.4195 87.8395 17.4583L87.8444 17.4535ZM127.555 21.0587C125.27 21.0247 123.367 22.8588 123.319 25.1442C123.27 27.4199 125.119 29.3608 127.38 29.4142C129.801 29.4724 131.674 27.6431 131.674 25.2267C131.674 22.8782 129.908 21.0926 127.55 21.0587H127.555ZM170.594 88.8975C170.57 86.549 168.784 84.7391 166.465 84.7246C164.121 84.7052 162.19 86.6752 162.239 89.0236C162.282 91.2993 164.179 93.0946 166.499 93.0704C168.833 93.0461 170.618 91.2265 170.594 88.8975ZM9.71887 93.0704C12.0237 93.0364 13.8966 91.1392 13.8481 88.8878C13.7996 86.5927 11.9363 84.7391 9.66064 84.7246C7.26365 84.71 5.45377 86.5781 5.49259 89.0333C5.53141 91.3478 7.3704 93.1092 9.71887 93.0704ZM52.6173 25.251C52.627 22.9025 50.8754 21.1072 48.522 21.0587C46.2463 21.0101 44.3394 22.8346 44.2763 25.1248C44.2133 27.4636 46.159 29.4481 48.4881 29.419C50.822 29.3851 52.6076 27.5849 52.6173 25.251Z" fill="white"/>
</svg>
