<svg width="159" height="159" viewBox="0 0 159 159" fill="none" xmlns="http://www.w3.org/2000/svg">
<g clip-path="url(#clip0_4687_3813)">
<path d="M81.4999 0C82.3819 0.269141 83.2721 0.496875 84.1375 0.811562C89.3464 2.69969 92.8245 7.62703 92.8784 13.1506C92.9281 18.492 89.6073 23.5187 84.5474 25.4359C83.2266 25.9369 82.9284 26.5828 82.9409 27.8912C83.0071 34.7026 82.974 41.5139 82.9657 48.3294C82.9657 48.9463 82.9616 49.5757 82.8456 50.1761C82.5309 51.8158 81.1438 52.9379 79.5621 52.8965C78.0259 52.8551 76.7341 51.7661 76.4277 50.1802C76.3117 49.5798 76.3117 48.9505 76.3117 48.3335C76.3034 41.3648 76.291 34.4003 76.3241 27.4316C76.3283 26.5041 76.1502 25.9907 75.1606 25.6139C69.5128 23.4608 65.9974 18.1152 66.4322 12.5337C66.9208 6.23164 70.9331 1.66453 77.2185 0.244297C77.4131 0.19875 77.587 0.0828125 77.7734 0C79.0197 0 80.2577 0 81.4999 0ZM86.2161 13.279C86.2409 9.61039 83.3508 6.6457 79.6988 6.59602C76.084 6.55047 73.0903 9.51102 73.0655 13.163C73.0406 16.8275 75.9473 19.8046 79.5828 19.8336C83.2224 19.8626 86.1913 16.931 86.2161 13.279Z" fill="white"/>
<path d="M159 147.534C158.818 148.056 158.619 148.574 158.462 149.104C156.271 156.577 148.441 160.507 141.121 157.803C134.032 155.19 130.587 147.033 133.73 140.102C134.226 139.005 134.102 138.421 133.274 137.609C129.212 133.634 125.216 129.593 121.2 125.577C120.873 125.249 120.529 124.931 120.231 124.575C118.981 123.088 119.03 121.245 120.339 119.978C121.647 118.707 123.502 118.67 124.935 119.999C126.376 121.332 127.73 122.757 129.117 124.144C132.152 127.175 135.187 130.198 138.206 133.245C138.723 133.767 139.125 134.036 139.92 133.647C148.089 129.651 157.335 134.76 158.764 143.12C158.789 143.257 158.917 143.377 158.996 143.505V147.534H159ZM139.162 145.41C139.133 149.029 142.098 152.052 145.713 152.093C149.294 152.135 152.35 149.128 152.4 145.522C152.445 141.936 149.439 138.885 145.828 138.856C142.201 138.827 139.191 141.787 139.162 145.406V145.41Z" fill="white"/>
<path d="M76.3074 150.623C76.3074 149.857 76.3074 149.348 76.3074 148.839C76.3074 125.904 76.2991 102.969 76.3364 80.0338C76.3364 78.7627 75.9886 78.1788 74.7423 77.7234C56.9666 71.2267 39.2157 64.668 21.4566 58.1216C21.0756 57.9809 20.6905 57.8566 20.115 57.6579V59.5916C20.115 77.359 20.115 95.1306 20.115 112.898C20.115 113.465 20.1481 114.041 20.0653 114.6C19.8127 116.264 18.318 117.494 16.699 117.428C15.0427 117.362 13.7094 116.074 13.5687 114.368C13.5148 113.751 13.5355 113.13 13.5355 112.509C13.5355 93.6027 13.5355 74.6966 13.5314 55.7905C13.5314 54.9127 13.4693 54.0349 13.4652 53.1612C13.4569 51.4677 14.256 50.2503 15.7963 49.6872C29.9324 44.5031 44.0685 39.3232 58.2129 34.1557C60.2087 33.427 61.9353 34.0066 62.7386 35.6049C63.6744 37.4765 62.8255 39.4764 60.631 40.2963C54.4987 42.5902 48.3458 44.8385 42.197 47.0993C37.0667 48.9874 31.9365 50.8631 26.5247 52.8506C27.2493 53.1612 27.7296 53.3931 28.2265 53.5752C45.0167 59.7613 61.8028 65.9516 78.6055 72.1004C79.2141 72.324 80.0464 72.3488 80.6468 72.1294C97.6896 65.8853 114.72 59.5998 131.746 53.3144C132.024 53.2109 132.28 53.0411 132.699 52.8216C125.722 50.2545 118.902 47.7494 112.087 45.2402C107.586 43.5839 103.081 41.9442 98.584 40.2673C96.9484 39.6586 96.0623 38.3336 96.1866 36.8595C96.3025 35.4227 97.2962 34.0977 98.733 33.9238C99.6523 33.812 100.679 34.0398 101.569 34.3586C111.068 37.8077 120.55 41.3107 130.04 44.7888C134.446 46.4037 138.856 48.002 143.265 49.6044C145.025 50.242 145.82 51.3849 145.82 53.2274C145.795 73.0113 145.775 92.7911 145.754 112.575C145.754 113.142 145.771 113.714 145.725 114.277C145.588 116.074 144.23 117.395 142.516 117.424C140.818 117.449 139.373 116.136 139.195 114.368C139.141 113.854 139.17 113.337 139.17 112.819C139.17 95.0519 139.17 77.2803 139.17 59.5129C139.17 58.9539 139.17 58.3949 139.17 57.6538C135.055 59.1568 131.092 60.5977 127.138 62.0552C112.911 67.2973 98.6916 72.5476 84.4603 77.7772C83.5204 78.125 82.9448 78.448 82.949 79.6819C82.9987 102.927 82.9862 126.173 82.9862 149.414C82.9862 149.721 82.9862 150.023 82.9862 150.561C83.6446 150.346 84.158 150.201 84.6549 150.019C94.0459 146.578 103.437 143.12 112.836 139.7C113.594 139.423 114.438 139.199 115.225 139.245C116.637 139.328 117.788 140.549 118.037 141.949C118.277 143.311 117.589 144.773 116.223 145.398C114.774 146.06 113.254 146.582 111.755 147.133C101.545 150.888 91.3379 154.66 81.1023 158.35C80.2617 158.652 79.123 158.673 78.2866 158.37C66.991 154.284 55.7202 150.114 44.4453 145.965C44.1555 145.857 43.8615 145.762 43.5758 145.646C41.6794 144.868 40.8223 143.187 41.4351 141.439C42.0769 139.605 43.8408 138.748 45.82 139.456C51.062 141.336 56.2834 143.274 61.513 145.191C66.3492 146.963 71.1855 148.735 76.324 150.615L76.3074 150.623Z" fill="white"/>
<path d="M13.5232 131.982C15.3492 132.471 17.2291 132.823 18.9847 133.498C19.9619 133.87 20.4919 133.858 21.2331 133.1C25.2826 128.972 29.3942 124.898 33.4893 120.815C33.8909 120.413 34.2926 120.003 34.7481 119.672C36.0606 118.724 37.7045 118.84 38.868 119.92C40.0812 121.043 40.3089 122.757 39.3566 124.14C38.9508 124.728 38.4208 125.237 37.9115 125.746C33.8992 129.767 29.8952 133.8 25.8416 137.783C25.1501 138.462 25.0093 138.98 25.4358 139.899C27.8042 145.033 26.7691 150.851 22.8769 154.785C19.0758 158.627 13.2375 159.753 8.27704 157.604C3.20063 155.406 0.0454746 150.325 0.298053 144.748C0.6086 137.841 6.43446 132.313 13.5232 131.982ZM20.1151 145.406C20.0861 141.791 17.0676 138.827 13.4445 138.86C9.82977 138.889 6.83196 141.936 6.87751 145.526C6.92305 149.128 9.99126 152.143 13.5688 152.093C17.1918 152.043 20.1482 149.025 20.1151 145.406Z" fill="white"/>
</g>
<defs>
<clipPath id="clip0_4687_3813">
<rect width="159" height="159" fill="white"/>
</clipPath>
</defs>
</svg>
