<svg width="232" height="232" viewBox="0 0 232 232" fill="none" xmlns="http://www.w3.org/2000/svg">
<g clip-path="url(#clip0_4684_3738)">
<path d="M63.3312 231.999C58.0766 229.917 55.856 225.934 56.6146 220.547C57.2018 216.37 55.697 213.961 51.7514 212.545C49.4819 211.728 47.3776 210.402 45.2917 209.155C44.056 208.417 43.2424 208.508 42.1046 209.422C36.3239 214.07 29.6868 216.431 22.2911 214.984C13.7699 213.32 8.04419 208.066 5.23641 199.906C3.49301 194.84 1.98207 189.695 0.348786 184.592C-0.165056 182.982 -0.269048 181.445 1.1746 180.234C2.69778 178.951 4.22708 179.368 5.82977 180.234C15.0545 185.234 24.3098 190.191 33.5528 195.167C34.2808 195.56 35.0271 195.923 36.1098 196.48C35.8468 195.633 35.7305 195.094 35.5225 194.592C32.99 188.369 30.4881 182.128 27.8516 175.948C27.5152 175.161 26.5181 174.229 25.7167 174.12C12.2895 172.304 2.71002 162.965 0.520067 149.684C-0.483149 143.595 0.483364 137.645 1.18072 131.652C1.83526 126.029 2.63049 120.424 3.26668 114.801C3.49913 112.779 3.93345 110.975 6.27021 110.588C8.7599 110.176 9.757 111.865 10.54 113.82C22.0219 142.409 33.5283 170.985 44.9736 199.585C45.6036 201.165 46.4968 202.206 48.0199 202.975C52.2958 205.142 56.4678 207.503 60.7437 209.664C62.7012 210.65 63.5147 212.043 63.4413 214.179C63.3435 216.897 63.4475 219.615 63.4107 222.333C63.3802 224.3 64.206 225.22 66.2797 225.214C80.7835 225.178 95.2873 225.178 109.797 225.214C111.755 225.214 112.574 224.36 112.574 222.49C112.562 206.328 112.672 190.161 112.507 173.999C112.422 166.124 106.671 160.792 98.6885 160.749C88.0018 160.695 77.3151 160.725 66.6223 160.737C63.8757 160.737 63.4352 161.179 63.4291 163.915C63.4169 174.49 63.4719 185.064 63.3557 195.639C63.3435 196.91 62.7134 198.478 61.808 199.325C61.1596 199.93 59.2511 200.015 58.4925 199.495C57.5383 198.841 56.6941 197.352 56.639 196.19C56.4372 191.438 56.2292 186.65 56.639 181.923C57.1101 176.463 55.3422 172.559 51.519 168.406C18.0458 132.064 23.123 74.3969 62.1934 44.0653C80.4471 29.8951 101.227 23.945 124.258 25.9001C162.485 29.1385 194.802 58.4956 201.225 95.9578C206.29 125.509 197.83 150.992 176.829 172.498C176.163 173.182 175.532 174.254 175.526 175.155C175.435 185.349 175.465 195.548 175.477 205.741C175.477 206.165 175.569 206.583 175.655 207.364C179.16 205.499 182.457 203.829 185.656 201.982C186.274 201.625 186.592 200.651 186.898 199.9C190.923 190.125 194.942 180.349 198.894 170.543C199.689 168.57 200.839 167.408 203.103 167.438C213.508 167.589 224.262 160.398 224.935 145.574C225.192 139.969 224.207 134.31 223.785 128.674C223.577 128.626 223.369 128.584 223.161 128.535C222.873 129.146 222.549 129.74 222.298 130.363C218.964 138.704 215.643 147.051 212.315 155.398C212.089 155.961 211.911 156.548 211.624 157.075C210.7 158.752 209.269 159.424 207.409 158.855C205.653 158.316 204.834 156.591 205.311 154.642C205.415 154.206 205.598 153.788 205.77 153.365C211.043 140.102 216.322 126.846 221.595 113.59C221.65 113.451 221.723 113.318 221.772 113.173C222.451 111.32 223.711 110.237 225.773 110.576C227.73 110.897 228.464 112.325 228.685 114.141C229.645 122.161 230.593 130.182 231.621 138.19C232.398 144.291 232.012 150.271 229.718 156.01C225.54 166.463 217.772 172.474 206.498 174.066C205.782 174.169 204.748 174.592 204.516 175.137C201.573 182.074 198.753 189.059 195.682 196.571C196.869 195.984 197.585 195.657 198.276 195.288C207.452 190.349 216.628 185.409 225.785 180.44C227.467 179.532 229.125 178.763 230.844 180.228C232.453 181.596 232.098 183.273 231.535 185.016C230.067 189.537 228.678 194.083 227.235 198.617C221.98 215.057 204.448 220.541 190.666 209.954C188.947 208.635 187.748 208.471 185.926 209.573C183.069 211.298 180.065 212.805 177.068 214.288C175.887 214.875 175.324 215.565 175.453 216.909C175.569 218.108 175.392 219.33 175.49 220.529C175.948 225.946 173.954 229.905 168.693 231.987H119.683C117.242 230.244 114.795 230.244 112.354 231.987H63.3435L63.3312 231.999ZM73.7365 44.5374C73.8528 44.8219 73.8956 44.9732 73.9751 45.0943C76.526 49.1256 79.3705 52.9995 81.5482 57.2185C83.8115 61.6008 86.8762 64.3368 91.9535 64.585C92.4796 64.6092 92.9995 64.7847 93.5134 64.9239C98.9515 66.3888 102.493 70.7046 102.628 76.3036C102.738 81.0613 102.732 85.819 102.628 90.5766C102.518 95.8004 99.5571 100.019 94.6206 101.581C86.4236 104.178 78.1593 106.569 69.9011 108.99C67.9864 109.553 66.2246 108.609 65.6313 106.932C64.989 105.11 65.8576 103.324 67.809 102.556C68.4452 102.307 69.1181 102.15 69.7726 101.956C76.9236 99.8317 84.0746 97.7192 91.2255 95.5825C94.3025 94.6624 95.6972 93.1613 95.7522 90.3708C95.844 85.7645 95.8379 81.1581 95.7522 76.5518C95.7033 73.8582 94.2964 72.2057 91.6476 71.5278C88.9928 70.8498 86.2339 70.4927 83.6586 69.615C82.2027 69.1187 80.6184 68.1139 79.7864 66.8791C76.1345 61.4919 72.7394 55.9352 69.2404 50.4451C68.8061 49.7611 68.3351 49.0953 67.8763 48.4174C35.284 72.3328 29.6806 115.188 42.6613 141.7C44.0071 139.521 45.3223 137.409 46.6313 135.284C50.1671 129.552 53.6722 123.802 57.2446 118.094C58.7923 115.618 61.5022 115.291 63.0927 117.325C64.31 118.887 63.8573 120.4 62.9091 121.931C58.725 128.686 54.547 135.442 50.4179 142.233C48.9497 144.654 46.4478 147.233 46.5824 149.624C46.7231 152.196 49.3045 154.696 50.999 157.105C52.5772 159.345 54.3879 161.415 56.3271 163.848C57.4159 156.349 60.2237 153.94 67.3563 153.94C74.7581 153.94 82.166 154.006 89.5678 153.873C90.7606 153.849 92.241 153.243 93.0852 152.408C99.8202 145.726 106.414 138.898 113.088 132.155C116.722 128.487 121.402 127.603 126.1 129.655C129.03 130.932 131.917 132.294 134.817 133.638C137.643 134.945 139.796 136.979 140.683 139.939C141.24 141.785 141.368 143.783 141.454 145.726C141.576 148.401 141.484 151.083 141.484 153.94C142.714 153.94 143.54 153.94 144.365 153.94C151.694 153.94 159.022 153.909 166.344 153.958C170.363 153.982 173.434 155.992 174.737 159.448C175.208 160.689 175.373 162.045 175.747 163.637C176.438 162.868 176.976 162.166 177.612 161.572C179.411 159.908 179.655 158.195 178.836 155.774C175.612 146.27 172.676 136.67 169.635 127.113C168.657 124.044 167.672 120.975 166.675 117.852C164.589 118.287 162.735 118.917 160.863 118.996C159.469 119.05 157.713 118.802 156.685 117.991C152.275 114.504 148.011 110.83 143.852 107.059C142.958 106.248 142.243 104.759 142.218 103.566C142.078 95.5643 142.016 87.5562 142.2 79.5541C142.328 74.2214 145.032 70.2627 149.908 67.8718C151.272 67.2059 152.709 66.6854 154.116 66.1043C160.851 63.3441 167.586 60.59 174.376 57.8056C149.797 29.7378 104.402 24.2416 73.7304 44.5434L73.7365 44.5374ZM184.635 151.53C185.149 150.762 185.369 150.459 185.558 150.138C200.992 124.213 198.772 88.2583 180.334 64.4639C179.386 63.2352 178.628 63.3925 177.465 63.8768C169.666 67.103 161.854 70.3111 154.018 73.4526C150.544 74.8448 148.935 77.2842 149.002 80.9765C149.082 85.5042 149.418 90.0803 148.923 94.5535C148.28 100.364 150.275 104.22 154.918 107.919C158.857 111.06 162.197 112.61 167.109 110.909C170.376 109.777 171.679 110.763 172.712 114.02C174.456 119.48 176.163 124.952 177.9 130.418C180.084 137.294 182.286 144.17 184.635 151.53ZM168.596 192.921C168.596 183.333 168.596 173.739 168.596 164.151C168.596 161.131 168.21 160.749 165.17 160.743C154.789 160.737 144.408 160.725 134.027 160.743C124.986 160.761 119.481 166.167 119.456 175.125C119.42 190.681 119.444 206.238 119.456 221.794C119.456 224.802 119.872 225.202 122.888 225.202C136.933 225.202 150.978 225.202 165.023 225.202C168.155 225.202 168.602 224.766 168.602 221.691C168.608 212.103 168.602 202.509 168.602 192.921H168.596ZM115.994 162.795C120.747 156.488 127.017 153.819 134.602 153.77C134.602 150.253 134.645 147.021 134.584 143.789C134.547 141.888 133.556 140.532 131.789 139.739C129.158 138.553 126.546 137.33 123.91 136.15C121.102 134.891 119.744 135.127 117.578 137.318C112.574 142.39 107.589 147.481 102.603 152.566C102.206 152.971 101.869 153.425 101.374 154.018C107.552 154.908 112.275 157.82 115.988 162.795H115.994ZM9.01071 128.602C8.74767 128.62 8.47851 128.638 8.21547 128.662C7.80562 134.431 6.95534 140.205 7.0838 145.962C7.2979 155.816 13.5374 163.836 22.2972 166.469C22.8111 166.621 23.3616 166.639 24.2058 166.766C19.0429 153.8 14.0268 141.204 9.01071 128.602ZM9.38997 189.888C11.5065 198.205 13.6047 206.044 23.0802 208.187C28.0841 209.319 32.6781 208.217 36.8255 204.676C27.613 199.713 18.6636 194.888 9.38997 189.888ZM195.322 204.597C202.075 211.31 214.413 209.264 218.928 200.681C220.616 197.473 221.497 193.841 222.745 190.409C222.592 190.306 222.445 190.197 222.292 190.094C213.355 194.9 204.418 199.706 195.322 204.603V204.597Z" fill="white"/>
<path d="M85.9772 207.679C81.9399 207.679 77.9086 207.703 73.8713 207.673C71.1063 207.648 69.681 206.462 69.6994 204.289C69.7177 202.14 71.1614 200.911 73.9202 200.905C81.9888 200.869 90.0574 200.893 98.1259 200.899C98.5786 200.899 99.0435 200.917 99.49 201.002C101.399 201.365 102.426 202.515 102.402 204.458C102.377 206.323 101.087 207.612 98.9884 207.648C94.6514 207.727 90.3082 207.673 85.9711 207.673C85.9711 207.673 85.9711 207.685 85.9711 207.691L85.9772 207.679Z" fill="white"/>
<path d="M86.2462 184.95C82.0559 184.95 77.8718 184.974 73.6815 184.937C71.1245 184.913 69.7053 183.678 69.7053 181.59C69.7053 179.514 71.1429 178.182 73.657 178.17C81.958 178.134 90.2529 178.128 98.5539 178.17C101.007 178.182 102.481 179.611 102.42 181.675C102.365 183.684 100.995 184.907 98.5784 184.931C94.4676 184.974 90.3569 184.944 86.2462 184.944V184.95Z" fill="white"/>
<path d="M86.0015 196.311C81.9642 196.311 77.9329 196.329 73.8956 196.305C71.1306 196.287 69.6992 195.106 69.7053 192.939C69.7115 190.791 71.1796 189.544 73.9078 189.531C82.0559 189.501 90.1979 189.501 98.346 189.531C100.989 189.544 102.493 190.924 102.42 193.066C102.347 195.137 100.952 196.281 98.3337 196.305C94.223 196.335 90.1122 196.311 86.0015 196.311Z" fill="white"/>
<path d="M86.0015 219.053C81.9642 219.053 77.9329 219.077 73.8956 219.047C71.1184 219.023 69.6992 217.842 69.7053 215.675C69.7053 213.52 71.1368 212.292 73.9078 212.28C82.0498 212.243 90.1979 212.237 98.3398 212.28C101.025 212.292 102.487 213.648 102.42 215.796C102.353 217.848 100.94 219.017 98.3276 219.041C94.2169 219.077 90.1061 219.053 85.9954 219.053H86.0015Z" fill="white"/>
<path d="M194.783 50.8331C194.061 50.3005 192.716 49.792 192.318 48.878C191.884 47.8792 191.822 46.0331 192.459 45.3733C195.407 42.3407 198.576 39.4958 201.842 36.7962C203.164 35.7066 205.036 36.1061 205.861 37.5225C206.473 38.5758 206.822 40.7125 206.21 41.3601C203.194 44.5198 199.83 47.3587 196.551 50.2702C196.245 50.5426 195.701 50.5486 194.789 50.8271L194.783 50.8331Z" fill="white"/>
<path d="M28.3901 35.8879C29.5708 36.5598 30.5189 36.9108 31.2285 37.5283C33.8038 39.7679 36.3241 42.068 38.8138 44.4045C40.6367 46.1175 40.7652 48.0787 39.2971 49.5798C37.8718 51.0265 36.0183 51.0083 34.2198 49.4164C31.6078 47.1041 29.0447 44.7374 26.4694 42.3828C25.2092 41.2327 24.7198 39.7316 25.564 38.3091C26.1451 37.3285 27.3747 36.7232 28.3901 35.8818V35.8879Z" fill="white"/>
<path d="M176.328 15.544C175.814 16.7727 175.588 17.493 175.233 18.1468C173.697 21.0038 172.156 23.8608 170.559 26.6876C169.256 28.9938 167.366 29.6838 165.488 28.6124C163.751 27.6197 163.353 25.6949 164.528 23.4976C166.167 20.4348 167.831 17.3901 169.544 14.3697C170.443 12.7777 172.015 12.0756 173.612 12.8201C174.743 13.3467 175.496 14.6663 176.328 15.544Z" fill="white"/>
<path d="M68.3656 26.318C67.76 26.9839 67.0443 28.4184 65.9921 28.7271C64.9277 29.0419 62.8846 28.6484 62.3769 27.8676C60.089 24.3266 58.0765 20.5979 56.2169 16.8148C55.4706 15.2955 56.2719 13.5825 57.8502 13.1043C59.0185 12.7472 61.2268 12.8985 61.6979 13.6248C64.0713 17.2809 66.0227 21.2032 68.1148 25.0348C68.2188 25.2224 68.2065 25.4706 68.3595 26.318H68.3656Z" fill="white"/>
<path d="M138.927 4.1222C138.34 7.53005 137.784 11.4161 136.952 15.2416C136.554 17.0817 135.025 17.9655 133.098 17.6204C131.177 17.2754 130.088 15.9195 130.327 14.0552C130.816 10.2479 131.483 6.45262 132.241 2.68764C132.615 0.841469 133.979 -0.133066 135.93 0.0243121C137.741 0.163531 138.952 1.701 138.927 4.1222Z" fill="white"/>
<path d="M225.332 68.3506C226.262 69.3009 227.755 70.1362 227.963 71.2197C228.177 72.3335 227.498 74.3431 226.593 74.8213C222.983 76.7219 219.166 78.2775 215.349 79.7605C213.765 80.3719 212.284 79.6576 211.526 78.108C210.798 76.619 210.853 74.8213 212.364 74.0646C216.218 72.1337 220.249 70.5418 224.213 68.8288C224.409 68.744 224.666 68.7864 224.892 68.7682L225.332 68.3566V68.3506Z" fill="white"/>
<path d="M93.0669 4.02489C93.0363 1.67632 94.0028 0.399133 95.8869 0.0722698C97.8016 -0.260646 99.3003 0.653359 99.6918 2.51769C100.499 6.34925 101.178 10.2171 101.674 14.0971C101.912 15.9493 100.799 17.3052 98.8659 17.6321C96.939 17.9529 95.4342 17.0631 95.0427 15.2109C94.223 11.3793 93.6663 7.49932 93.0669 4.02489Z" fill="white"/>
<path d="M7.51209 68.7617C7.80571 68.8465 8.4052 68.9554 8.95574 69.1915C12.1673 70.5595 15.391 71.9153 18.5658 73.362C20.6518 74.3123 21.392 76.1585 20.5784 77.9865C19.8321 79.6571 17.9113 80.4017 15.911 79.5845C12.5404 78.2044 9.20655 76.7154 5.88492 75.2203C4.22717 74.4758 3.4564 73.1078 3.8846 71.3464C4.2761 69.7181 5.43225 68.8041 7.50597 68.7617H7.51209Z" fill="white"/>
<path d="M76.8197 173.57C75.5289 173.57 74.2321 173.648 72.9475 173.552C71.0206 173.406 69.8583 172.335 69.7299 170.404C69.6014 168.449 70.7025 167.087 72.5621 166.93C75.3515 166.687 78.1899 166.7 80.9794 166.917C82.8573 167.063 83.9768 168.443 83.8789 170.356C83.781 172.244 82.6371 173.4 80.6918 173.545C79.4072 173.642 78.1104 173.564 76.8197 173.57Z" fill="white"/>
<path d="M145.907 207.673C150.018 207.673 154.129 207.697 158.239 207.661C160.87 207.637 162.252 206.487 162.307 204.399C162.362 202.238 160.906 200.906 158.209 200.894C149.987 200.851 141.766 200.851 133.544 200.894C131.006 200.906 129.58 202.244 129.593 204.314C129.599 206.402 131 207.625 133.581 207.649C137.692 207.691 141.802 207.661 145.913 207.661L145.907 207.673ZM145.785 196.306C149.975 196.306 154.159 196.336 158.349 196.294C160.913 196.269 162.319 195.028 162.307 192.928C162.301 190.852 160.87 189.538 158.331 189.526C150.11 189.484 141.888 189.49 133.667 189.526C131.024 189.538 129.519 190.918 129.593 193.061C129.66 195.125 131.073 196.275 133.685 196.294C137.722 196.324 141.754 196.3 145.791 196.3L145.785 196.306ZM146.109 173.595C150.067 173.595 154.031 173.613 157.988 173.595C160.845 173.583 162.368 172.324 162.307 170.114C162.246 167.996 160.753 166.821 158.007 166.815C149.938 166.797 141.864 166.797 133.795 166.815C131.122 166.821 129.586 168.099 129.586 170.211C129.586 172.336 131.079 173.577 133.783 173.595C137.894 173.619 142.004 173.601 146.121 173.601L146.109 173.595ZM146.023 184.95C150.134 184.95 154.245 184.974 158.356 184.938C160.882 184.914 162.319 183.643 162.301 181.554C162.289 179.484 160.839 178.177 158.313 178.171C150.091 178.135 141.864 178.141 133.642 178.171C131.122 178.177 129.623 179.466 129.574 181.488C129.519 183.637 131.006 184.92 133.685 184.944C137.796 184.974 141.906 184.95 146.017 184.95H146.023ZM136.774 219.011C138.065 219.011 139.362 219.095 140.64 218.992C142.604 218.835 143.717 217.606 143.748 215.742C143.784 213.872 142.708 212.51 140.756 212.401C138.04 212.243 135.294 212.243 132.578 212.401C130.639 212.51 129.574 213.805 129.605 215.73C129.635 217.655 130.73 218.823 132.682 218.98C134.04 219.095 135.41 219.004 136.774 219.004V219.011Z" fill="white"/>
<path d="M119.707 95.0624C119.23 96.382 119.053 97.1205 118.716 97.7802C116.85 101.406 114.954 105.02 113.046 108.621C111.412 111.702 108.898 113.815 105.595 114.947C100.126 116.811 94.639 118.633 89.1396 120.425C86.6561 121.236 84.7292 120.425 84.0869 118.409C83.4874 116.508 84.5395 114.807 86.913 114.002C92.0942 112.247 97.2816 110.473 102.493 108.821C104.836 108.076 106.402 106.672 107.479 104.511C109.228 101 111.076 97.5321 112.948 94.0758C113.816 92.4718 115.364 91.7393 116.991 92.4778C118.123 92.9923 118.9 94.2574 119.707 95.0624Z" fill="white"/>
<path d="M145.907 207.672C141.796 207.672 137.686 207.703 133.575 207.66C130.993 207.636 129.593 206.413 129.586 204.325C129.58 202.255 131.006 200.917 133.538 200.905C141.76 200.857 149.981 200.863 158.203 200.905C160.9 200.917 162.356 202.249 162.301 204.41C162.246 206.492 160.87 207.648 158.233 207.672C154.122 207.709 150.012 207.685 145.901 207.679L145.907 207.672Z" fill="white"/>
<path d="M145.785 196.311C141.748 196.311 137.716 196.336 133.679 196.305C131.067 196.287 129.66 195.131 129.587 193.073C129.513 190.93 131.018 189.55 133.661 189.538C141.882 189.502 150.104 189.502 158.325 189.538C160.87 189.55 162.295 190.864 162.301 192.94C162.307 195.04 160.906 196.281 158.343 196.305C154.159 196.342 149.969 196.317 145.779 196.317L145.785 196.311Z" fill="white"/>
<path d="M146.109 173.594C141.998 173.594 137.887 173.612 133.771 173.588C131.067 173.57 129.574 172.329 129.574 170.204C129.574 168.092 131.11 166.815 133.783 166.809C141.851 166.79 149.926 166.79 157.995 166.809C160.741 166.809 162.234 167.989 162.295 170.107C162.356 172.323 160.833 173.576 157.976 173.588C154.018 173.606 150.055 173.588 146.097 173.588L146.109 173.594Z" fill="white"/>
<path d="M146.024 184.95C141.913 184.95 137.802 184.974 133.691 184.943C131.012 184.925 129.526 183.642 129.581 181.487C129.63 179.465 131.128 178.176 133.648 178.17C141.87 178.14 150.098 178.14 158.319 178.17C160.845 178.182 162.295 179.49 162.307 181.554C162.32 183.636 160.888 184.913 158.362 184.937C154.251 184.974 150.14 184.95 146.03 184.95H146.024Z" fill="white"/>
<path d="M136.774 219.004C135.41 219.004 134.034 219.095 132.682 218.98C130.73 218.816 129.635 217.648 129.605 215.729C129.574 213.805 130.639 212.509 132.578 212.4C135.294 212.243 138.04 212.243 140.757 212.4C142.708 212.509 143.785 213.871 143.748 215.742C143.711 217.606 142.604 218.829 140.64 218.992C139.362 219.095 138.065 219.01 136.774 219.01V219.004Z" fill="white"/>
</g>
<defs>
<clipPath id="clip0_4684_3738">
<rect width="232" height="232" fill="white"/>
</clipPath>
</defs>
</svg>
