<svg width="189" height="174" viewBox="0 0 189 174" fill="none" xmlns="http://www.w3.org/2000/svg">
<g clip-path="url(#clip0_4684_3767)">
<path d="M0 33.4154C1.20753 31.3136 2.13285 28.9665 3.68738 27.1703C5.71844 24.8278 8.71646 24.2307 11.77 24.2307C15.078 24.2307 18.3814 24.2307 21.879 24.2307C21.879 19.2402 21.8698 14.4488 21.8883 9.66199C21.8883 8.49539 21.8837 7.31489 22.0549 6.16218C22.573 2.68088 25.1732 0.245824 28.6847 0.102313C31.8817 -0.0273099 35.0879 -0.0365687 38.2849 0.0976834C42.2221 0.259712 45.0119 3.21326 45.072 7.19916C45.1414 12.1248 45.0952 17.0551 45.0952 21.9854C45.0952 22.652 45.0952 23.3187 45.0952 24.1057H69.2042C69.2366 23.4853 69.3014 22.8418 69.306 22.1984C69.3153 17.5181 69.2875 12.8331 69.3153 8.15281C69.3476 2.8105 72.0773 0.0745365 77.3886 0.032872C79.9749 0.0143545 82.5611 -0.0273099 85.1474 0.0513896C89.5704 0.185642 92.3695 2.98179 92.4435 7.42137C92.5221 12.2868 92.4666 17.1523 92.4666 22.0224C92.4666 22.6844 92.4666 23.3464 92.4666 24.1196H116.705C116.705 23.4853 116.705 22.8372 116.705 22.1891C116.705 17.444 116.691 12.7035 116.71 7.95838C116.733 2.91235 119.537 0.0976834 124.598 0.0375014C127.059 0.00972513 129.525 0.00509575 131.987 0.0375014C137.007 0.102313 139.852 2.9355 139.903 7.98615C139.949 12.8516 139.912 17.7171 139.917 22.5872C139.917 23.0641 139.968 23.5455 140.009 24.2353C143.461 24.2353 146.824 24.2029 150.192 24.2399C156.003 24.3047 160.436 27.7444 161.504 32.9339C162.707 38.7762 163.896 44.6231 165.155 50.4561C172.96 86.5885 180.779 122.716 188.611 158.839C190.147 165.927 187.145 171.649 180.681 173.538C179.349 173.926 177.887 173.987 176.49 173.991C147.245 174.014 118.005 174.01 88.7607 174.01C88.6358 174.01 88.5155 174.01 88.3906 174.01C85.9293 173.977 84.5829 172.977 84.6246 171.209C84.6662 169.454 86.0126 168.478 88.497 168.473C94.5301 168.459 100.563 168.468 106.596 168.468C120.878 168.468 135.161 168.468 149.443 168.468C154.393 168.468 156.253 166.612 156.258 161.691C156.258 148.756 156.258 135.817 156.258 122.883C156.258 122.267 156.221 121.642 156.299 121.036C156.503 119.476 157.447 118.531 158.992 118.513C160.547 118.494 161.486 119.452 161.74 120.985C161.833 121.526 161.796 122.091 161.796 122.642C161.796 135.762 161.837 148.886 161.759 162.006C161.745 164.103 161.194 166.2 160.866 168.468C164.326 168.468 167.949 168.468 171.567 168.468C173.538 168.468 175.509 168.519 177.475 168.45C181.741 168.302 184.258 165.131 183.369 160.969C181.075 150.201 178.743 139.442 176.416 128.679C171.798 107.337 167.181 86.0005 162.559 64.6591C162.406 63.9508 162.24 63.2517 161.8 62.562V64.4554C161.8 78.5611 161.8 92.6668 161.8 106.777C161.8 109.634 160.94 110.981 159.085 111.027C157.169 111.078 156.258 109.694 156.258 106.722C156.258 92.6159 156.258 78.5102 156.258 64.3998C156.258 63.6637 156.258 62.923 156.258 62.0342H5.54263V63.9369C5.54263 96.5879 5.54263 129.234 5.54263 161.885C5.54263 166.552 7.46266 168.464 12.1771 168.464C32.3073 168.468 52.4422 168.464 72.5724 168.473C73.4283 168.473 74.3073 168.496 75.1355 168.686C76.5188 169.01 77.2174 170.047 77.1342 171.408C77.0509 172.751 76.2921 173.718 74.8579 173.908C74.1315 174.005 73.3866 174 72.6464 174C53.0066 174 33.3668 174 13.7317 174C5.5195 174 3.15069 172.45 0.00462657 165.006C0.00462657 121.142 0.00462657 77.2788 0.00462657 33.42L0 33.4154ZM5.55651 56.1966H156.235C156.235 49.0395 156.29 42.026 156.207 35.0079C156.174 32.2765 154.241 30.0683 151.529 29.9109C147.745 29.6887 143.933 29.8554 139.907 29.8554C139.907 32.6608 139.954 35.3504 139.898 38.0401C139.801 42.725 137.108 45.6184 132.533 45.8221C129.646 45.9517 126.74 45.961 123.853 45.8082C119.426 45.5721 116.761 42.6788 116.705 38.2577C116.673 35.9152 116.705 33.5774 116.691 31.2349C116.691 30.772 116.585 30.309 116.539 29.9109H92.462C92.462 32.6839 92.4897 35.318 92.4574 37.9568C92.3972 42.9195 89.6259 45.7388 84.6801 45.8452C82.0938 45.9008 79.5076 45.9101 76.9213 45.8406C73.1553 45.7388 70.3701 43.7435 69.5975 40.5215C69.3153 39.3456 69.3384 38.0771 69.3153 36.855C69.2736 34.5357 69.3014 32.2163 69.3014 29.8924H45.0905C45.0905 32.6376 45.1044 35.2717 45.0905 37.9059C45.0628 42.8362 42.2683 45.7249 37.3595 45.8499C35.2082 45.9054 33.0522 45.8638 30.8962 45.8638C24.5301 45.8638 21.8837 43.2389 21.8837 36.9198C21.8837 34.6005 21.8837 32.2812 21.8837 29.86C17.8447 29.86 14.037 29.6933 10.2479 29.9155C7.55519 30.0729 5.61203 32.3182 5.58427 35.0264C5.51024 42.0399 5.56114 49.058 5.56114 56.2012L5.55651 56.1966ZM39.5525 22.8974C39.5525 17.9162 39.5248 12.935 39.5664 7.95375C39.5803 6.34735 38.9742 5.53721 37.3087 5.56036C34.7872 5.59276 32.2703 5.60202 29.7488 5.56036C28.1018 5.53258 27.4124 6.31032 27.4124 7.90745C27.4263 17.9301 27.4263 27.9527 27.4124 37.9799C27.4124 39.6095 28.1989 40.3317 29.7905 40.3178C32.187 40.2992 34.5836 40.3363 36.9802 40.3085C39.0806 40.2854 39.5387 39.7993 39.5433 37.6559C39.5525 32.7348 39.5433 27.8184 39.5433 22.8974H39.5525ZM122.239 22.8835C122.239 27.9249 122.262 32.9663 122.225 38.0077C122.211 39.5585 122.896 40.2992 124.413 40.3039C126.995 40.3131 129.576 40.3039 132.158 40.3039C133.699 40.3039 134.369 39.4799 134.369 37.9846C134.365 27.9619 134.36 17.9393 134.374 7.91671C134.374 6.18995 133.555 5.50017 131.862 5.54647C129.59 5.60665 127.314 5.5511 125.042 5.56499C122.549 5.57887 122.248 5.87052 122.243 8.30558C122.234 13.1618 122.243 18.0227 122.243 22.8789L122.239 22.8835ZM86.9193 22.9622C86.9193 17.9717 86.887 12.9859 86.9379 8.00004C86.9564 6.27791 86.267 5.51869 84.5321 5.55573C82.0707 5.61128 79.6094 5.59739 77.148 5.56036C75.6352 5.53721 74.8486 6.15755 74.8486 7.73154C74.8579 17.8329 74.8625 27.9295 74.844 38.0309C74.844 39.7113 75.686 40.3317 77.2544 40.3178C79.5909 40.2946 81.9319 40.3317 84.2683 40.3085C86.5122 40.2854 86.9147 39.8687 86.9193 37.5587C86.9332 32.6932 86.9193 27.8277 86.9193 22.9622Z" fill="white"/>
<path d="M80.9973 153.057C62.0932 153.044 45.8169 138.929 43.1751 120.106C40.2373 99.1668 54.7786 79.8438 75.5935 76.9967C84.9299 75.719 93.5631 77.6402 101.502 82.677C102.423 83.2603 103.075 83.413 104.126 82.8112C108.623 80.2326 113.892 81.2048 117.334 85.1028C120.513 88.6998 120.795 94.2365 117.737 98.2178C116.543 99.7686 116.391 100.986 117.024 102.838C124.367 124.341 110.584 147.928 88.2981 152.099C85.8876 152.548 83.4309 152.743 80.9973 153.057ZM99.0178 87.7369C85.189 78.5661 67.6219 80.8808 56.4626 93.1949C45.8724 104.879 45.5763 123.249 55.7872 135.558C66.0258 147.905 83.8103 150.97 97.5234 142.776C111.482 134.438 116.303 117.694 111.866 105.305C109.839 107.666 107.887 109.926 105.944 112.194C100.619 118.416 95.3166 124.656 89.9729 130.855C85.2353 136.35 77.9947 136.669 73.4468 131.295C69.4772 126.605 65.7528 121.68 62.2227 116.643C59.0535 112.115 60.2934 105.907 64.6147 102.602C69.0006 99.2502 75.0013 99.7733 78.8043 103.893C79.8777 105.055 80.8262 106.328 81.9365 107.685C87.6411 101.023 93.2716 94.4402 99.0132 87.7369H99.0178ZM65.7991 110.972C66.2386 112.023 66.493 113.212 67.1546 114.097C70.495 118.592 73.8956 123.041 77.3701 127.434C79.6186 130.276 83.0932 130.35 85.4759 127.582C94.6272 116.944 103.755 106.287 112.8 95.5559C113.638 94.5652 114.137 93.0375 114.225 91.7228C114.369 89.5747 113.009 87.9961 110.991 87.3017C108.84 86.5656 106.962 87.0702 105.5 88.7692C98.7865 96.5512 92.0224 104.296 85.4435 112.189C82.3575 115.897 80.5532 115.481 78.2029 112.032C77.0971 110.412 75.8665 108.851 74.5248 107.421C73.0258 105.824 71.1011 105.551 69.0978 106.403C67.1732 107.222 66.1368 108.726 65.8037 110.967L65.7991 110.972Z" fill="white"/>
</g>
<defs>
<clipPath id="clip0_4684_3767">
<rect width="189" height="174" fill="white"/>
</clipPath>
</defs>
</svg>
