<svg width="232" height="232" viewBox="0 0 232 232" fill="none" xmlns="http://www.w3.org/2000/svg">
<g clip-path="url(#clip0_4687_3847)">
<path d="M103.738 232C102.659 231.746 101.556 231.569 100.509 231.223C96.6578 229.954 93.0878 228.105 90.005 225.519C88.5325 224.284 87.4025 222.638 86.1931 221.119C85.3791 220.097 84.687 218.983 83.9614 217.896C83.2551 216.84 82.3123 216.322 80.9969 216.402C76.7489 216.657 72.7004 215.803 68.8319 214.122C67.7637 213.658 66.7326 213.077 65.7651 212.432C61.3175 209.472 57.3573 206.072 54.9313 201.188C53.4659 198.24 52.802 195.086 52.0499 191.941C51.7745 190.792 51.5131 189.641 51.2801 188.635C49.7422 188.809 48.2786 189.019 46.8078 189.118C46.1775 189.161 45.526 189 44.8939 188.883C43.3773 188.604 42.6075 187.571 42.2137 186.204C42.0089 185.49 42.1572 184.86 42.701 184.29C44.0058 182.929 45.5719 182.488 47.4646 182.542C52.0534 182.668 56.282 181.451 60.0604 178.839C60.493 178.541 60.8797 178.181 61.3034 177.87C62.8271 176.752 65.0218 176.901 66.3036 178.204C67.3524 179.27 67.3329 180.314 66.157 181.239C63.611 183.245 61.0439 185.225 58.4626 187.185C58.0159 187.524 57.8234 187.871 57.8605 188.42C58.3725 195.963 61.2875 202.218 67.9297 206.429C69.4569 207.398 71.0531 208.282 72.6951 209.048C75.8237 210.508 79.1148 211.08 82.5542 210.333C84.7894 209.848 87.0353 209.4 89.2387 208.796C92.1131 208.008 94.4014 206.23 96.5589 204.278C97.5018 203.425 99.6434 203.555 100.885 204.519C101.815 205.241 101.958 206.563 101.169 207.825C100.081 209.567 98.5276 210.852 96.7496 211.852C95.12 212.769 93.4197 213.561 91.7635 214.429C91.0185 214.82 90.3016 215.263 89.5054 215.72C94.0853 222.735 100.383 226.491 108.872 226.26C117.829 226.016 123.896 221.419 128.02 213.693C127.57 213.693 127.24 213.697 126.91 213.693C125.617 213.674 124.319 213.707 123.032 213.617C120.765 213.457 119.272 211.297 119.865 209.126C120.14 208.119 120.861 207.548 121.853 207.386C122.746 207.242 123.663 207.211 124.57 207.195C126.216 207.166 127.863 207.183 129.51 207.179C129.569 207.179 129.625 207.157 129.752 207.131V181.868C129.445 181.854 129.133 181.826 128.822 181.826C125.088 181.823 121.35 181.915 117.621 181.797C114.473 181.696 112.184 183.026 110.246 185.315C108.41 187.484 107.506 189.99 107.094 192.723C107.055 192.98 106.999 193.233 106.935 193.485C106.404 195.564 105.157 196.04 103.362 194.845C102.066 193.984 101.315 192.87 101.337 191.24C101.368 188.777 101.891 186.452 103.272 184.405C106.459 179.675 110.733 176.443 116.565 175.531C117.63 175.365 118.728 175.354 119.81 175.345C123.071 175.323 126.332 175.337 129.678 175.337V128.088H128.679C120.446 128.088 112.213 128.091 103.98 128.088C94.5126 128.082 85.0437 128.096 75.5765 128.027C74.2876 128.018 72.9316 127.745 71.731 127.284C69.6423 126.48 69.374 124.311 71.0478 122.875C72.0365 122.025 73.0341 121.553 74.4942 121.56C92.6658 121.638 110.837 121.612 129.007 121.61C129.208 121.61 129.41 121.591 129.682 121.577V63.4801C129.367 63.4801 129.03 63.4801 128.693 63.4801C120.342 63.4801 111.992 63.4975 103.641 63.4662C101.736 63.4593 99.7441 63.6034 97.9449 63.1224C91.4475 61.3841 86.3149 57.9458 84.0938 51.2914C83.7371 50.2235 83.2904 49.1763 83.0203 48.0875C82.4959 45.9655 83.6082 43.7028 85.5716 42.7738C85.7994 42.6661 86.1931 42.6435 86.3838 42.7685C87.1871 43.2895 88.0152 43.8122 88.6879 44.4773C89.0339 44.8177 89.1823 45.448 89.2317 45.9655C89.4277 48.0094 89.892 49.9821 91.0273 51.7082C93.1107 54.8791 95.8209 56.9508 99.9577 56.9143C109.598 56.8327 119.24 56.9039 128.882 56.9178C129.498 56.9178 129.856 56.7754 129.855 56.0426C129.833 48.9575 129.842 41.8725 129.839 34.7875C129.839 34.6746 129.819 34.5635 129.796 34.3273C128.949 34.3273 128.108 34.3429 127.27 34.3238C125.891 34.2943 124.5 34.336 123.135 34.178C120.972 33.9262 119.704 32.3494 119.787 30.2169C119.849 28.6471 120.608 27.8796 122.213 27.857C124.3 27.8292 126.389 27.85 128.476 27.8483C128.827 27.8483 129.178 27.8483 129.66 27.8483C129.512 23.5452 128.668 19.4904 126.316 15.8715C123.211 11.0891 118.864 7.88346 113.214 6.59322C101.423 3.90334 90.8843 11.8705 89.7137 17.3857C90.3422 17.6341 90.9849 17.8893 91.6276 18.1446C97.1522 20.3483 101.681 23.7189 104.698 28.8798C105.108 29.5796 105.565 30.2603 106.079 30.889C108.334 33.65 109.111 36.9026 109.365 40.3287C109.485 41.942 109.534 43.5604 109.626 45.1754C109.674 46.0054 109.314 46.5768 108.528 46.8563C107.504 47.221 106.462 47.2523 105.42 46.9136C104.603 46.648 104.215 46.0419 104.068 45.2466C103.662 43.0603 103.408 40.8341 102.818 38.6981C100.652 30.8334 95.3124 25.8391 87.715 23.019C86.774 22.67 85.7022 22.5345 84.6888 22.5224C81.0305 22.479 77.3121 21.9667 73.7615 23.2239C65.0112 26.3236 59.6826 32.3633 58.0724 41.4054C57.7687 43.1141 57.9947 44.9132 57.977 46.6705C57.9717 47.1602 58.037 47.6621 57.9505 48.1379C57.6257 49.9161 56.3597 50.8903 54.5729 50.5117C50.4962 49.6504 46.4247 50.0637 42.385 50.5534C38.4124 51.0344 35.1089 53.1269 32.1357 55.631C28.6804 58.5414 26.0391 62.0423 24.9815 66.5017C24.3529 69.1481 24.4924 71.845 24.5665 74.5314C24.5948 75.5715 24.6319 76.61 24.6636 77.6502C24.7096 79.0897 25.4988 79.7566 26.8442 79.253C30.4336 77.9089 34.2032 77.5564 37.9622 77.1171C39.1151 76.9816 40.2539 76.9538 41.3044 77.5581C42.3603 78.1642 43.0524 79.0116 43.063 80.2671C43.0736 81.5105 42.3532 82.3371 41.3133 82.8684C40.7306 83.1671 40.0403 83.4363 39.3994 83.4328C31.3729 83.3807 24.5966 86.3588 18.4523 91.2854C13.5298 95.2325 9.87144 99.9524 8.25415 105.983C6.28904 113.305 5.87235 120.676 8.45013 127.999C9.47771 130.92 11.1144 133.448 13.2049 135.725C14.8204 137.484 16.36 139.312 18.0373 141.009C18.9908 141.975 20.1137 142.794 21.2348 143.576C22.3737 144.369 23.5443 144.187 24.2134 142.996C26.3268 139.231 29.994 137.347 33.5623 135.341C34.7682 134.664 36.2778 134.992 36.9999 135.944C37.8686 137.086 37.8033 139.175 36.8216 140.117C36.472 140.452 36.0359 140.724 35.5945 140.94C33.1774 142.12 31.1664 143.784 29.5508 145.89C27.1231 149.056 25.0468 152.42 24.6124 156.468C24.0775 161.448 24.2487 166.315 27.0719 170.785C28.179 172.539 28.9664 174.495 29.8316 176.387C30.0735 176.919 30.1706 177.565 30.1441 178.148C30.1247 178.563 29.8792 179.053 29.5773 179.357C28.4226 180.522 25.6365 180.268 24.6707 178.95C20.0625 172.656 17.5836 165.706 17.9861 157.874C18.0938 155.78 18.5317 153.755 19.3527 151.815C19.9089 150.504 19.6652 149.721 18.4399 148.876C15.4949 146.842 12.7352 144.6 10.3958 141.895C6.89993 137.852 3.96197 133.519 2.71369 128.23C2.29171 126.441 1.48484 124.741 0.911015 122.984C0.059995 120.372 0.1624 117.688 0.337194 114.996C0.80861 107.739 2.90968 100.923 6.78694 94.7914C9.78669 90.0472 13.897 86.2043 18.9025 83.405C19.7765 82.9153 19.9619 82.4985 19.7147 81.3663C19.2697 79.3346 18.7524 77.3167 18.3552 75.2763C17.317 69.9591 18.3234 64.937 20.7705 60.1547C24.8349 52.2135 31.1946 46.9727 39.9061 44.5433C41.7917 44.0171 43.7092 43.998 45.669 44.1612C47.5317 44.3158 49.4191 44.1942 51.3913 44.1942C51.4584 43.5674 51.5661 42.9717 51.5802 42.3761C51.6367 39.8373 52.456 37.4965 53.4906 35.2199C54.3522 33.3236 55.2703 31.4499 56.1867 29.5779C58.0794 25.7159 61.2187 23.0277 64.7922 20.739C67.6966 18.8792 70.7211 17.3111 74.2205 16.8752C76.6677 16.5696 79.1183 16.2796 81.5725 16.0312C82.6637 15.9201 83.3275 15.3332 83.8095 14.4371C87.226 8.08664 92.5757 3.97628 99.3715 1.62155C103.551 0.173284 107.903 0.0881937 112.267 0.485858C117.799 0.991188 122.526 3.39628 126.624 6.89885C129.35 9.22927 131.747 11.9799 133.043 15.38C133.875 17.5577 134.336 19.8724 134.947 22.1299C135.445 23.9689 135.919 25.8148 136.424 27.7302C138.974 27.7302 141.497 27.7459 144.02 27.7024C144.232 27.699 144.499 27.343 144.636 27.0947C146.676 23.4306 149.617 20.8484 153.766 19.7214C155.007 19.3845 156.261 19.4088 157.504 19.7804C160.244 20.5983 162.773 21.7496 164.623 24.0158C167.755 27.8535 167.843 33.4503 164.799 37.3297C164.28 37.9914 163.68 38.5922 163.111 39.2156C159.729 42.9387 153.448 42.7512 150.217 40.6239C147.977 39.1496 146.132 37.3471 144.728 35.0862C144.557 34.8118 144.191 34.4784 143.911 34.4732C141.324 34.4297 138.736 34.4523 136.149 34.4593C136.068 34.4593 135.987 34.5044 135.847 34.5461C135.835 34.8205 135.81 35.1035 135.81 35.3848C135.808 42.2389 135.822 49.093 135.789 55.9471C135.785 56.7302 136.041 56.9299 136.785 56.9299C141.193 56.9334 145.602 56.9855 150.013 56.9977C154.804 57.0115 159.598 56.9785 164.39 57.015C165.806 57.0254 166.957 56.5739 167.947 55.6015C171.694 51.927 175.458 48.2699 179.194 44.5832C179.374 44.4044 179.472 43.9633 179.382 43.7306C178.952 42.6262 178.449 41.5512 177.964 40.4677C177.448 39.3198 177.293 38.1546 177.639 36.9217C178.075 35.3657 178.396 33.7785 178.892 32.2435C179.126 31.5193 179.521 30.7553 180.067 30.236C182.648 27.7841 185.658 26.051 189.341 26.0614C193.951 26.0753 197.06 28.5499 199.23 32.3824C202.915 38.8891 198.452 45.7484 193.686 47.4919C192.343 47.9833 190.96 48.414 189.56 48.704C188.921 48.836 188.146 48.678 187.514 48.44C185.642 47.7402 184.092 48.1066 182.696 49.4872C179.129 53.0123 175.524 56.4993 171.959 60.0262C169.602 62.3583 166.835 63.5305 163.44 63.5044C154.561 63.4332 145.68 63.4801 136.801 63.4801C136.454 63.4801 136.107 63.4801 135.711 63.4801C135.692 63.8048 135.663 64.0566 135.663 64.3084C135.671 68.3858 135.678 72.4632 135.693 76.5405C135.699 78.0044 136.154 78.5115 137.629 78.7077C137.976 78.7529 138.331 78.7494 138.684 78.7494C146.476 78.7511 154.268 78.7494 162.061 78.7494C166.088 78.7494 170.117 78.7876 174.143 78.7355C176.693 78.7025 178.73 79.6229 180.464 81.4427C182.694 83.7836 185.023 86.0341 187.297 88.335C188.471 89.5228 188.36 91.3965 187.067 92.4193C186.915 92.5391 186.698 92.6537 186.513 92.652C184.608 92.626 182.738 92.5183 181.43 90.8304C180.699 89.8892 179.869 89.0227 179.126 88.0919C176.564 84.8897 173.214 83.7263 169.15 84.183C167.432 84.3757 165.689 84.4035 163.957 84.407C155.018 84.4278 146.081 84.4174 137.141 84.4174C136.763 84.4174 136.386 84.4174 135.939 84.4174V105.179C138.045 105.179 140.13 105.077 142.201 105.209C144.117 105.332 145.212 104.561 146.081 102.918C147.696 99.8638 150.131 97.6984 153.722 97.075C155.747 96.7242 157.79 96.7398 159.753 97.2833C163.973 98.452 166.207 101.493 167.012 105.525C167.695 108.949 167.273 112.27 164.905 115.114C162.125 118.455 156.639 120.018 152.49 118.651C150.902 118.129 149.656 117.165 148.644 115.873C147.694 114.659 146.734 113.454 145.772 112.249C144.998 111.28 144.025 110.799 142.726 110.832C140.411 110.891 138.095 110.849 135.722 110.849V136.048C136.308 136.093 136.91 136.178 137.512 136.178C148.42 136.195 159.328 136.194 170.236 136.225C171.611 136.228 172.561 135.65 173.343 134.589C174.237 133.375 175.126 132.142 176.166 131.055C177.572 129.584 179.364 128.852 181.458 128.892C182.925 128.919 184.398 128.839 185.863 128.904C188.174 129.006 190.083 129.982 191.677 131.627C194.873 134.921 195.885 140.059 194.064 143.933C192.034 148.256 187.385 151.126 182.756 150.775C179.247 150.51 176.625 148.625 174.514 145.979C174.099 145.458 173.765 144.875 173.403 144.314C172.729 143.27 171.864 142.699 170.511 142.7C159.338 142.716 148.166 142.681 136.995 142.662C136.649 142.662 136.303 142.662 135.902 142.662V166.003H166.622C166.87 165.447 167.112 164.836 167.413 164.252C169.741 159.731 175.508 155.921 182.996 159.321C186.873 161.082 188.646 164.211 189.113 168.194C189.661 172.866 187.2 176.973 182.498 179.386C178.585 181.394 173.968 180.708 170.215 177.563C168.832 176.403 167.704 175.048 166.959 173.411C166.773 173.005 166.577 172.788 166.064 172.788C156.125 172.807 146.186 172.803 136.248 172.805C136.16 172.805 136.073 172.822 135.918 172.84V191.714H153.445C154.238 191.714 155.03 191.683 155.82 191.721C157.568 191.803 159.07 192.497 160.313 193.676C162.873 196.104 165.451 198.518 167.917 201.036C169.005 202.147 170.066 202.388 171.537 201.949C176.666 200.412 182.62 202.883 184.738 207.66C188.27 215.624 183.257 222.577 175.909 223.767C169.669 224.777 163.608 219.893 163.051 213.7C162.887 211.873 163.288 210.14 164.063 208.484C164.93 206.631 164.778 206.349 163.242 205.042C162.096 204.068 161.108 202.902 160.126 201.758C158.253 199.573 156.047 197.856 153.132 197.403C151.473 197.144 149.746 197.292 148.051 197.29C144.469 197.286 140.886 197.304 137.304 197.312C136.806 197.312 136.308 197.312 135.672 197.312C135.672 197.63 135.672 197.932 135.672 198.236C135.651 201.475 135.752 204.719 135.577 207.949C135.31 212.882 133.218 217.187 130.467 221.235C128.057 224.783 124.669 227.167 120.926 229.134C119.07 230.11 117.299 231.303 115.14 231.59C114.045 231.736 112.951 231.862 111.854 232H103.738ZM161.439 107.569C161.279 107.133 161.07 106.214 160.627 105.426C158.968 102.469 155.451 101.876 152.924 104.13C152.218 104.761 151.633 105.551 151.116 106.346C150.814 106.81 150.627 107.423 150.609 107.975C150.553 109.896 154.222 113.357 156.197 113.32C158.812 113.272 161.454 110.615 161.439 107.569ZM174.659 207.36C171.726 207.372 169.332 209.494 169.051 212.332C168.839 214.468 172.31 218.062 174.521 217.996C176.449 217.939 179.95 214.416 179.945 212.537C179.938 210.137 177.092 207.35 174.659 207.36ZM184.108 144.371C185.918 144.187 187.839 143.277 188.833 141.141C189.682 139.312 188.845 137.72 187.639 136.308C187.36 135.982 187 135.711 186.643 135.464C184.714 134.136 182.321 134.157 180.483 135.501C178.769 136.755 177.868 139.108 178.439 140.846C179.083 142.815 181.363 144.371 184.108 144.373V144.371ZM172.642 169.132C172.669 171.245 173.326 172.699 174.703 173.586C177.134 175.153 180.169 174.595 181.883 172.296C183.158 170.587 182.955 168.781 182.302 166.942C181.896 165.798 181.052 165.081 179.869 164.768C178.395 164.379 176.908 164.395 175.434 164.761C174.023 165.114 173.151 166.005 172.881 167.423C172.773 167.988 172.72 168.561 172.64 169.13L172.642 169.132ZM193.891 37.3193C193.905 37.3176 193.921 37.3159 193.935 37.3141C193.858 36.6838 193.819 36.0482 193.697 35.4265C193.409 33.9522 192.535 32.9745 191.015 32.6793C190.272 32.5352 189.495 32.4553 188.743 32.4953C185.904 32.6446 184.3 33.9157 183.88 36.2583C183.363 39.1357 185.475 42.0774 188.254 42.35C192.03 42.7199 193.861 41.1154 193.891 37.4044C193.891 37.3749 193.891 37.3471 193.891 37.3176V37.3193ZM160.578 30.7917C160.537 30.3333 160.527 29.8696 160.449 29.4164C160.085 27.2944 159.04 26.348 156.874 26.1917C156.204 26.143 155.525 26.1274 154.857 26.183C151.531 26.4626 149.495 29.7724 150.731 32.8374C151.453 34.6294 153.761 36.6143 156.639 35.9596C159.218 35.3727 160.548 33.7195 160.578 30.7935V30.7917Z" fill="white"/>
<path d="M232 159.64C231.532 161.022 231.248 162.504 230.559 163.77C228.647 167.281 225.755 169.629 221.565 169.875C216.32 170.184 210.684 166.265 209.729 161.566C208.65 156.256 210.871 150.544 216.237 148.047C222.642 145.069 230.879 149.763 231.818 156.824C231.852 157.072 231.938 157.313 232 157.556V159.638V159.64ZM220.624 163.487C223.594 163.487 225.954 161.385 225.972 158.725C225.993 155.773 223.755 153.568 220.742 153.574C217.764 153.581 215.28 155.806 215.269 158.475C215.258 161.196 217.707 163.487 220.624 163.487Z" fill="white"/>
<path d="M224.392 118.526C224.289 120.811 223.52 123.984 220.566 126.207C218.493 127.768 216.085 128.679 213.54 128.997C212.333 129.148 210.956 128.803 209.797 128.339C207.43 127.391 205.438 125.833 203.81 123.886C201.914 121.62 201.241 119.071 202.174 116.199C202.431 115.404 202.58 114.572 202.846 113.778C203.162 112.84 202.892 112.101 202.234 111.413C200.441 109.541 198.66 107.659 196.887 105.769C195.964 104.785 195.636 103.647 196.019 102.328C196.329 101.253 196.734 100.905 197.865 100.81C199.022 100.713 200.065 100.971 201.019 101.65C202.603 102.777 204.01 104.055 205.11 105.669C206.524 107.739 208.479 108.192 210.686 106.921C212.322 105.978 213.952 105.912 215.659 106.599C217.554 107.363 219.411 108.096 220.982 109.539C223.343 111.705 224.48 114.252 224.392 118.524V118.526ZM213.228 122.513C216.086 122.539 218.756 120.219 218.797 117.67C218.839 115.068 216.251 112.623 213.447 112.616C210.514 112.608 207.921 114.905 207.866 117.559C207.813 120.078 210.421 122.487 213.228 122.513Z" fill="white"/>
<path d="M43.1037 65.3711C43.1037 64.3761 43.0119 63.4193 43.1249 62.485C43.3032 61.0072 44.1613 60.2987 45.8757 60.0313C47.6113 59.7587 49.255 60.1772 50.8917 60.6843C57.0307 62.5927 61.7802 66.1352 64.6405 71.9248C65.6981 74.0659 66.2489 76.3373 66.2737 78.699C66.2966 80.8905 66.4873 83.1601 66.0035 85.2613C64.6511 91.1325 61.2788 95.6162 55.7171 98.3895C53.0475 99.7214 50.3409 100.873 47.2793 100.859C46.3436 100.855 45.4025 100.8 44.4773 100.673C43.6245 100.557 43.1549 99.9767 43.0348 99.1414C42.9942 98.8566 42.966 98.5666 42.9607 98.2783C42.9183 96.0278 43.485 95.4947 45.7203 95.0692C47.9291 94.649 50.2067 94.2704 52.2601 93.4178C60.8815 89.8423 63.4028 78.6747 57.3203 71.5341C54.5236 68.2503 50.9624 66.4078 46.6437 65.9268C45.4819 65.7966 44.3325 65.5656 43.1019 65.3677L43.1037 65.3711Z" fill="white"/>
<path d="M217.033 193.892C216.687 201.354 212.084 204.981 205.233 205.461C197.998 204.618 194.041 200.574 193.956 193.362C193.896 188.26 200.161 182.584 205.502 182.632C211.265 182.686 217.119 188.403 217.033 193.892ZM205.449 199.032C208.314 198.987 210.687 196.705 210.647 194.034C210.608 191.45 208.025 188.962 205.417 188.997C202.836 189.03 200.383 191.61 200.378 194.199C200.373 196.335 202.687 199.407 205.447 199.032H205.449Z" fill="white"/>
<path d="M70.1313 147.118C75.2763 147.118 80.4213 147.121 85.5662 147.114C86.5673 147.114 87.579 147.156 88.0963 148.151C88.6878 149.29 88.6719 150.513 88.0963 151.657C87.6885 152.468 86.8622 152.694 86.0023 152.696C82.7695 152.703 79.5367 152.663 76.3021 152.685C69.5734 152.73 62.8376 152.654 56.116 152.918C51.4248 153.104 47.7788 155.373 45.623 159.588C45.1957 160.422 45.0527 161.458 45.0192 162.408C44.9644 163.948 44.5707 165.296 43.5096 166.454C42.8175 167.21 42.173 167.409 41.2443 166.96C39.2068 165.975 37.5842 164.468 38.6789 161.588C39.5317 159.348 40.4233 157.11 41.5092 154.974C42.0848 153.842 43.0029 152.819 43.9545 151.944C47.9377 148.281 52.6448 146.719 58.1376 147.05C62.1208 147.292 66.1305 147.097 70.1296 147.097C70.1296 147.104 70.1296 147.109 70.1296 147.116L70.1313 147.118Z" fill="white"/>
<path d="M197.597 71.227C197.604 65.4357 201.243 61.2888 207.232 60.009C209.471 59.5297 211.508 59.7659 213.38 60.9519C214.95 61.947 216.595 62.9455 217.863 64.2635C221.731 68.2853 221.3 75.0369 217.036 78.8243C214.942 80.6841 212.63 82.2383 209.688 82.4189C202.989 82.8305 197.588 77.8102 197.597 71.227ZM204.107 71.1349L204.158 71.1402C204.158 71.4006 204.139 71.6628 204.162 71.9199C204.31 73.6303 204.831 75.1863 206.688 75.6968C207.76 75.992 208.976 76.1309 210.062 75.9555C213.126 75.4606 215.954 71.2339 213.06 67.8477C211.614 66.1563 209.766 65.9584 207.703 66.2501C205.682 66.5349 204.591 67.5108 204.291 69.5009C204.209 70.0427 204.167 70.5897 204.107 71.1332V71.1349Z" fill="white"/>
<path d="M72.3207 162.561C79.7927 162.561 85.6669 167.213 87.6814 174.725C89.9273 183.102 85.5892 191.087 77.0878 194.138C75.6877 194.64 74.2293 195.01 72.7727 195.321C70.9771 195.703 69.3369 194.996 68.4841 193.621C67.9049 192.685 67.9102 191.912 68.6235 191.066C69.6653 189.831 70.8341 188.84 72.6703 189.085C73.2282 189.159 73.8621 189.041 74.4006 188.849C79.1677 187.145 82.5771 183.163 81.968 177.599C81.7067 175.208 81.0622 172.893 79.1218 171.348C76.853 169.542 74.2558 168.238 71.2207 168.147C69.7871 168.106 69.102 167.59 68.8866 166.199C68.8036 165.662 68.793 165.098 68.8566 164.56C69.012 163.264 69.7659 162.615 71.0866 162.566C71.4979 162.551 71.9093 162.564 72.3207 162.561Z" fill="white"/>
<path d="M115.294 96.382C115.451 93.2146 114.326 90.6706 111.547 88.9341C110.447 88.2464 109.262 87.9321 107.947 88.0623C106.058 88.2499 104.188 86.7408 103.953 84.8879C103.814 83.7853 104.495 82.7659 105.692 82.3856C107.391 81.8473 109.091 81.9324 110.816 82.3474C116.922 83.8165 120.121 87.9599 121.53 93.6748C122.93 99.3619 120.449 104.894 115.227 108.472C112.725 110.186 109.97 110.554 107.057 110.736C104.238 110.912 104.031 109.592 104.07 107.728C104.107 105.936 104.688 105.374 106.678 105.181C109.227 104.934 111.402 103.912 113.288 102.218C114.63 101.015 115.292 99.5425 115.295 97.7678C115.295 97.3059 115.295 96.8422 115.295 96.3803L115.294 96.382Z" fill="white"/>
<path d="M47.68 128.07C43.5644 128.313 39.3464 127.601 35.2625 125.879C29.1659 123.305 26.2032 118.653 25.5888 112.339C25.4881 111.307 25.3328 110.266 25.3804 109.237C25.4599 107.532 26.9006 106.624 28.5462 107.199C29.9904 107.704 30.8662 108.737 31.0692 110.25C31.3517 112.353 31.7084 114.461 32.9496 116.232C35.3949 119.721 38.6631 121.765 43.1548 121.633C46.1775 121.544 49.2055 121.631 52.2317 121.642C52.4065 121.642 52.5848 121.655 52.7579 121.685C54.6877 122.013 56.139 123.404 56.0701 124.856C55.9977 126.377 54.2215 127.879 52.2935 128.051C52.147 128.065 52.0004 128.068 51.8539 128.068C50.5615 128.068 49.269 128.068 47.6818 128.068L47.68 128.07Z" fill="white"/>
<path d="M92.2296 84.8275C91.6575 93.1541 87.9833 99.6956 80.6419 104.086C77.2961 106.086 73.7119 107.444 69.8153 108.014C67.3222 108.378 65.8656 107.441 65.3995 104.987C65.3889 104.93 65.3712 104.874 65.3624 104.817C64.9916 102.693 65.0693 102.571 67.1439 102.101C69.0313 101.674 70.917 101.239 72.8097 100.833C79.8068 99.324 83.933 94.9983 85.5609 88.245C85.9193 86.7585 86.1435 85.2408 86.4525 83.7439C86.8145 81.9935 88.4476 80.5904 89.9943 80.6702C91.1949 80.7328 91.8923 81.3353 92.0971 82.4953C92.1519 82.8079 92.2102 83.124 92.2243 83.44C92.2455 83.9019 92.2296 84.3638 92.2296 84.8258V84.8275Z" fill="white"/>
<path d="M67.8961 42.1866C68.0267 36.0046 73.3659 30.024 79.5349 29.1471C80.1741 29.0568 80.8062 28.9126 81.4471 28.8571C81.9361 28.8136 82.4552 28.7841 82.9249 28.897C84.5651 29.2912 85.8293 30.8193 85.6986 32.1599C85.5397 33.7819 83.9366 35.1346 82.0739 35.2249C78.5091 35.3986 75.8607 37.0066 74.3564 40.2087C73.9256 41.1256 73.8144 42.2005 73.6325 43.2164C73.3977 44.5292 72.7868 45.1405 71.4361 45.2724C71.3196 45.2846 71.2013 45.2846 71.0848 45.2881C68.6111 45.3558 67.8449 44.6108 67.8943 42.1884L67.8961 42.1866Z" fill="white"/>
<path d="M115.956 152.699C115.716 152.699 115.426 152.699 115.138 152.699C109.875 152.699 104.614 152.699 99.3503 152.699C98.3563 152.699 97.2828 152.708 96.9173 151.584C96.5024 150.306 96.3135 148.927 97.2528 147.785C97.567 147.403 98.2733 147.154 98.8047 147.149C103.773 147.104 108.742 147.087 113.71 147.142C116.085 147.168 117.248 148.945 116.47 151.136C116.297 151.623 116.146 152.117 115.954 152.699H115.956Z" fill="white"/>
</g>
<defs>
<clipPath id="clip0_4687_3847">
<rect width="232" height="232" fill="white"/>
</clipPath>
</defs>
</svg>
