<svg width="38" height="38" viewBox="0 0 38 38" fill="none" xmlns="http://www.w3.org/2000/svg">
<path d="M28.5 12.667H25.3333C24.4935 12.667 23.688 13.0006 23.0942 13.5945C22.5003 14.1884 22.1667 14.9938 22.1667 15.8337V22.167C22.1667 23.0068 22.5003 23.8123 23.0942 24.4062C23.688 25 24.4935 25.3337 25.3333 25.3337H28.5V19.0003H26.9167M15.8333 14.2503C15.8333 13.8304 15.6665 13.4277 15.3696 13.1307C15.0727 12.8338 14.6699 12.667 14.25 12.667H11.0833C10.6634 12.667 10.2607 12.8338 9.96375 13.1307C9.66682 13.4277 9.5 13.8304 9.5 14.2503V23.7503C9.5 24.1703 9.66682 24.573 9.96375 24.8699C10.2607 25.1668 10.6634 25.3337 11.0833 25.3337H14.25C14.6699 25.3337 15.0727 25.1668 15.3696 24.8699C15.6665 24.573 15.8333 24.1703 15.8333 23.7503V20.5837C15.8333 20.1637 15.6665 19.761 15.3696 19.4641C15.0727 19.1671 14.6699 19.0003 14.25 19.0003H9.5" stroke="#00A3E0" stroke-width="2" stroke-linecap="round" stroke-linejoin="round"/>
</svg>
