<svg width="31" height="31" viewBox="0 0 31 31" fill="none" xmlns="http://www.w3.org/2000/svg">
<g clip-path="url(#clip0_4591_4720)">
<path d="M25.6111 8.5401L18.4811 1.39073C18.1037 1.00169 17.6519 0.692394 17.1527 0.48118C16.6535 0.269966 16.1169 0.161133 15.5749 0.161133C15.0328 0.161133 14.4963 0.269966 13.9971 0.48118C13.4978 0.692394 13.0461 1.00169 12.6686 1.39073L5.51926 8.5401L15.5361 13.5389L25.6111 8.5401ZM28.3469 11.427L29.7613 12.8414C30.1527 13.2174 30.4642 13.6687 30.6769 14.1681C30.8897 14.6675 30.9994 15.2048 30.9994 15.7476C30.9994 16.2904 30.8897 16.8277 30.6769 17.3271C30.4642 17.8265 30.1527 18.2778 29.7613 18.6539L18.3675 30.16C18.0974 30.4363 17.7831 30.6655 17.4375 30.8381V16.8907L28.3469 11.427ZM2.65176 11.427L1.23738 12.8414C0.845913 13.2174 0.534453 13.6687 0.321695 14.1681C0.108937 14.6675 -0.000732422 15.2048 -0.000732422 15.7476C-0.000732422 16.2904 0.108937 16.8277 0.321695 17.3271C0.534453 17.8265 0.845913 18.2778 1.23738 18.6539L12.6325 30.16C12.9037 30.4364 13.2176 30.6664 13.5625 30.8381V16.8907L2.65176 11.427Z" fill="black"/>
</g>
<defs>
<clipPath id="clip0_4591_4720">
<rect width="31" height="31" fill="white"/>
</clipPath>
</defs>
</svg>
