<svg width="20" height="5" viewBox="0 0 20 5" fill="none" xmlns="http://www.w3.org/2000/svg">
<path d="M15.2381 2.5C15.2381 2.99445 15.3777 3.4778 15.6394 3.88893C15.901 4.30005 16.2728 4.62048 16.7079 4.8097C17.143 4.99892 17.6217 5.04843 18.0835 4.95196C18.5454 4.8555 18.9697 4.6174 19.3026 4.26777C19.6356 3.91814 19.8624 3.47268 19.9543 2.98773C20.0461 2.50277 19.999 2.00011 19.8188 1.54329C19.6386 1.08648 19.3334 0.69603 18.9418 0.421327C18.5503 0.146623 18.09 1.35137e-06 17.619 1.35137e-06C16.9876 1.35137e-06 16.382 0.263393 15.9355 0.732234C15.4889 1.20107 15.2381 1.83696 15.2381 2.5ZM4.76191 2.5C4.76191 2.00555 4.62227 1.5222 4.36064 1.11108C4.09902 0.699953 3.72717 0.379521 3.2921 0.190302C2.85704 0.00108321 2.37831 -0.0484251 1.91645 0.0480379C1.45459 0.144501 1.03035 0.382603 0.697366 0.732234C0.364384 1.08187 0.13762 1.52732 0.0457504 2.01227C-0.0461192 2.49723 0.00103163 2.99989 0.18124 3.45671C0.361449 3.91352 0.666622 4.30397 1.05817 4.57867C1.44971 4.85338 1.91005 5 2.38095 5C3.01242 5 3.61803 4.73661 4.06454 4.26777C4.51106 3.79893 4.76191 3.16304 4.76191 2.5ZM7.61905 2.5C7.61905 2.99445 7.75869 3.4778 8.02031 3.88893C8.28193 4.30005 8.65379 4.62048 9.08885 4.8097C9.52391 4.99892 10.0026 5.04843 10.4645 4.95196C10.9264 4.8555 11.3506 4.6174 11.6836 4.26777C12.0166 3.91814 12.2433 3.47268 12.3352 2.98773C12.4271 2.50277 12.3799 2.00011 12.1997 1.54329C12.0195 1.08648 11.7143 0.69603 11.3228 0.421327C10.9312 0.146623 10.4709 1.35137e-06 10 1.35137e-06C9.36853 1.35137e-06 8.76293 0.263393 8.31641 0.732234C7.8699 1.20107 7.61905 1.83696 7.61905 2.5Z" fill="#C0C0C0"/>
</svg>
