<svg width="34" height="34" viewBox="0 0 34 34" fill="none" xmlns="http://www.w3.org/2000/svg">
<path d="M27.2001 6.78478C27.2002 7.3258 27.0713 7.85905 26.8239 8.34021C26.5765 8.82137 26.2179 9.23656 25.7779 9.55127C25.3378 9.86598 24.829 10.0711 24.2937 10.1497C23.7584 10.2282 23.2121 10.1779 22.7002 10.0029L20.5174 13.306C21.4881 14.2308 22.095 15.5347 22.1001 16.9814L24.0891 17.3248C24.423 16.5676 25.0217 15.9583 25.7728 15.6109C26.5239 15.2636 27.3758 15.2021 28.169 15.438C28.9622 15.6739 29.6422 16.1909 30.0814 16.8922C30.5207 17.5936 30.689 18.431 30.555 19.2476C30.421 20.0642 29.9937 20.8039 29.3534 21.328C28.713 21.8521 27.9034 22.1247 27.0764 22.0947C26.2495 22.0646 25.4618 21.734 24.8612 21.1648C24.2605 20.5956 23.8881 19.8269 23.8137 19.0027L21.8247 18.6576C21.4041 19.8773 20.5382 20.8932 19.4005 21.5017L20.1553 23.8086C20.9807 23.7492 21.7994 23.9928 22.458 24.4939C23.1166 24.9949 23.5698 25.7189 23.7328 26.5302C23.8958 27.3416 23.7572 28.1845 23.3432 28.901C22.9292 29.6174 22.268 30.1583 21.4837 30.4223C20.6994 30.6862 19.8458 30.655 19.0828 30.3346C18.3199 30.0141 17.6999 29.4264 17.3393 28.6816C16.9786 27.9369 16.902 27.0861 17.1237 26.2888C17.3454 25.4916 17.8503 24.8025 18.5437 24.3509L17.7872 22.0389C16.8672 22.1831 15.9253 22.0723 15.0639 21.7187C14.2025 21.365 13.4546 20.7819 12.9014 20.0329L10.1219 21.3725C10.2995 22.1807 10.1763 23.026 9.77525 23.7499C9.37424 24.4738 8.72298 25.0266 7.94356 25.3046C7.16413 25.5827 6.31005 25.5669 5.54141 25.2603C4.77277 24.9537 4.14233 24.3773 3.76828 23.6391C3.39423 22.901 3.30223 22.0517 3.50955 21.2505C3.71686 20.4494 4.20924 19.7514 4.89441 19.2873C5.57957 18.8232 6.41046 18.6249 7.23135 18.7296C8.05224 18.8344 8.80676 19.2349 9.35347 19.8561L12.1296 18.5182C11.866 17.6726 11.8273 16.773 12.0172 15.908C12.207 15.0429 12.619 14.2422 13.2125 13.5848L11.623 11.589C10.8713 11.935 10.0192 11.995 9.22636 11.7578C8.43357 11.5205 7.75453 11.0022 7.31652 10.3001C6.87851 9.59801 6.7116 8.76025 6.84709 7.94388C6.98257 7.12751 7.41114 6.38858 8.05246 5.86559C8.69379 5.3426 9.50384 5.07146 10.3308 5.10299C11.1577 5.13453 11.9448 5.46657 12.5444 6.03688C13.144 6.60719 13.5151 7.37662 13.588 8.20093C13.6609 9.02525 13.4307 9.84787 12.9405 10.5146L14.5453 12.5291C15.297 12.1148 16.1417 11.8984 17.0001 11.9001C17.7515 11.9001 18.4655 12.0616 19.1081 12.354L21.2807 9.06788C20.91 8.65886 20.6445 8.16573 20.5071 7.63111C20.3697 7.0965 20.3645 6.53646 20.492 5.9994C20.6195 5.46233 20.8759 4.96439 21.2389 4.54858C21.602 4.13278 22.0608 3.81162 22.5758 3.61285C23.0907 3.41408 23.6463 3.34368 24.1946 3.40773C24.7429 3.47179 25.2673 3.66836 25.7226 3.98048C26.1778 4.2926 26.5503 4.71088 26.8077 5.19917C27.0651 5.68746 27.1998 6.23279 27.2001 6.78478ZM25.5001 6.78478C25.5001 6.33391 25.321 5.90151 25.0022 5.5827C24.6833 5.26389 24.2509 5.08478 23.8001 5.08478C23.3492 5.08478 22.9168 5.26389 22.598 5.5827C22.2792 5.90151 22.1001 6.33391 22.1001 6.78478C22.1001 7.23565 22.2792 7.66805 22.598 7.98686C22.9168 8.30568 23.3492 8.48478 23.8001 8.48478C24.2509 8.48478 24.6833 8.30568 25.0022 7.98686C25.321 7.66805 25.5001 7.23565 25.5001 6.78478ZM10.2001 10.2001C10.6509 10.2001 11.0833 10.021 11.4022 9.70216C11.721 9.38335 11.9001 8.95095 11.9001 8.50008C11.9001 8.04921 11.721 7.61681 11.4022 7.298C11.0833 6.97919 10.6509 6.80008 10.2001 6.80008C9.74921 6.80008 9.3168 6.97919 8.99799 7.298C8.67918 7.61681 8.50007 8.04921 8.50007 8.50008C8.50007 8.95095 8.67918 9.38335 8.99799 9.70216C9.3168 10.021 9.74921 10.2001 10.2001 10.2001ZM17.0001 20.4001C17.9018 20.4001 18.7666 20.0419 19.4042 19.4042C20.0419 18.7666 20.4001 17.9018 20.4001 17.0001C20.4001 16.0983 20.0419 15.2335 19.4042 14.5959C18.7666 13.9583 17.9018 13.6001 17.0001 13.6001C16.0983 13.6001 15.2335 13.9583 14.5959 14.5959C13.9583 15.2335 13.6001 16.0983 13.6001 17.0001C13.6001 17.9018 13.9583 18.7666 14.5959 19.4042C15.2335 20.0419 16.0983 20.4001 17.0001 20.4001ZM8.50007 22.1001C8.50007 21.6492 8.32097 21.2168 8.00215 20.898C7.68334 20.5792 7.25094 20.4001 6.80007 20.4001C6.34921 20.4001 5.9168 20.5792 5.59799 20.898C5.27918 21.2168 5.10007 21.6492 5.10007 22.1001C5.10007 22.551 5.27918 22.9834 5.59799 23.3022C5.9168 23.621 6.34921 23.8001 6.80007 23.8001C7.25094 23.8001 7.68334 23.621 8.00215 23.3022C8.32097 22.9834 8.50007 22.551 8.50007 22.1001ZM22.1001 27.2001C22.1001 26.7492 21.921 26.3168 21.6022 25.998C21.2833 25.6792 20.8509 25.5001 20.4001 25.5001C19.9492 25.5001 19.5168 25.6792 19.198 25.998C18.8792 26.3168 18.7001 26.7492 18.7001 27.2001C18.7001 27.6509 18.8792 28.0834 19.198 28.4022C19.5168 28.721 19.9492 28.9001 20.4001 28.9001C20.8509 28.9001 21.2833 28.721 21.6022 28.4022C21.921 28.0834 22.1001 27.6509 22.1001 27.2001ZM27.2001 20.4001C27.6509 20.4001 28.0833 20.221 28.4022 19.9022C28.721 19.5834 28.9001 19.151 28.9001 18.7001C28.9001 18.2492 28.721 17.8168 28.4022 17.498C28.0833 17.1792 27.6509 17.0001 27.2001 17.0001C26.7492 17.0001 26.3168 17.1792 25.998 17.498C25.6792 17.8168 25.5001 18.2492 25.5001 18.7001C25.5001 19.151 25.6792 19.5834 25.998 19.9022C26.3168 20.221 26.7492 20.4001 27.2001 20.4001Z" fill="black"/>
</svg>
