<svg width="17" height="16" viewBox="0 0 17 16" fill="none" xmlns="http://www.w3.org/2000/svg">
<path fill-rule="evenodd" clip-rule="evenodd" d="M2.42017 2.13766C1.70021 2.63982 1.33333 3.27519 1.33333 3.91085C1.33333 4.2388 1.48221 4.57016 1.79427 4.91826C2.1091 5.26946 2.55285 5.59451 3.04565 5.89071C3.21683 5.9936 3.33154 6.16659 3.3579 6.36162C3.40297 6.69505 3.43224 7.03001 3.44573 7.36543C3.57722 7.1712 3.69693 6.96895 3.80406 6.75968C3.94697 6.48049 4.27166 6.33951 4.5788 6.42327C4.8203 6.48913 5.07029 6.52027 5.32094 6.5157C5.32507 6.51562 5.3292 6.51559 5.33333 6.51559C6.49984 6.51559 7.5276 6.18546 8.24649 5.68405C8.96646 5.18189 9.33333 4.54652 9.33333 3.91085C9.33333 3.25326 8.9639 2.61934 8.24862 2.12457C7.53159 1.62858 6.50382 1.30612 5.33333 1.30612C4.16683 1.30612 3.13907 1.63625 2.42017 2.13766ZM1.64683 1.07368C2.61693 0.397058 3.9225 0 5.33333 0C6.74018 0 8.04575 0.3853 9.01772 1.05764C9.99143 1.73118 10.6667 2.72617 10.6667 3.91085C10.6667 5.07862 9.98888 6.07214 9.01984 6.74803C8.05113 7.42368 6.74791 7.82057 5.3394 7.82171C5.14172 7.825 4.94432 7.81363 4.74889 7.78782C4.32076 8.49416 3.77015 9.12357 3.12059 9.64714C2.90912 9.8176 2.61273 9.84402 2.37332 9.71377C2.1339 9.58352 2.00015 9.32308 2.0361 9.05713C2.13589 8.3189 2.14774 7.57215 2.07165 6.8319C1.61596 6.53826 1.15924 6.18932 0.7924 5.7801C0.348292 5.28469 0 4.65915 0 3.91085C0 2.74309 0.67779 1.74956 1.64683 1.07368Z" fill="#5F6369"/>
<path fill-rule="evenodd" clip-rule="evenodd" d="M6.98233 6.28225C7.95429 5.60991 9.25986 5.22461 10.6667 5.22461C12.0775 5.22461 13.3831 5.62167 14.3532 6.29829C15.3222 6.97417 16 7.9677 16 9.13546C16 9.88376 15.6517 10.5093 15.2076 11.0047C14.8408 11.4139 14.3841 11.7629 13.9284 12.0565C13.8523 12.7968 13.8642 13.5435 13.9639 14.2817C13.9999 14.5477 13.8661 14.8081 13.6267 14.9384C13.3873 15.0686 13.0909 15.0422 12.8794 14.8717C12.2299 14.3482 11.6793 13.7188 11.2512 13.0124C11.0557 13.0382 10.8583 13.0496 10.6606 13.0463C9.25213 13.0452 7.94891 12.6483 6.9802 11.9726C6.01116 11.2968 5.33337 10.3032 5.33337 9.13546C5.33337 7.95078 6.00861 6.95579 6.98233 6.28225ZM7.75142 7.34918C7.03614 7.84395 6.66671 8.47787 6.66671 9.13546C6.66671 9.77113 7.03358 10.4065 7.75355 10.9087C8.47244 11.4101 9.5002 11.7402 10.6667 11.7402C10.6708 11.7402 10.675 11.7402 10.6791 11.7403C10.9297 11.7449 11.1797 11.7137 11.4212 11.6479C11.7284 11.5641 12.0531 11.7051 12.196 11.9843C12.3031 12.1936 12.4228 12.3958 12.5543 12.59C12.5678 12.2546 12.5971 11.9197 12.6421 11.5862C12.6685 11.3912 12.7832 11.2182 12.9544 11.1153C13.4472 10.8191 13.8909 10.4941 14.2058 10.1429C14.5178 9.79477 14.6667 9.46341 14.6667 9.13546C14.6667 8.4998 14.2998 7.86443 13.5799 7.36227C12.861 6.86086 11.8332 6.53073 10.6667 6.53073C9.49622 6.53073 8.46845 6.85319 7.75142 7.34918Z" fill="#5F6369"/>
</svg>
